<?xml version="1.0" standalone="no"?>
<!DOCTYPE svg PUBLIC "-//W3C//DTD SVG 1.1//EN" "http://www.w3.org/Graphics/SVG/1.1/DTD/svg11.dtd" >
<svg xmlns="http://www.w3.org/2000/svg">
<metadata>
This is a custom SVG webfont generated by Font Squirrel.
Designer    : Oswald Bruce Cooper
Foundry URL : http://www.adobe.com/type
</metadata>
<defs>
<font id="webfont37hojTTp" horiz-adv-x="630" >
<font-face units-per-em="1000" ascent="701" descent="-299" />
<missing-glyph horiz-adv-x="315" />
<glyph unicode=" "  horiz-adv-x="315" />
<glyph unicode="&#x09;" horiz-adv-x="315" />
<glyph unicode="&#xa0;" horiz-adv-x="315" />
<glyph unicode="!" horiz-adv-x="324" d="M273 97q0 -46 -32.5 -78.5t-78.5 -32.5t-78.5 32.5t-32.5 78.5t32.5 78.5t78.5 32.5t78.5 -32.5t32.5 -78.5zM282 562q0 -92 -51 -192q-12 -26 -32.5 -55t-36.5 -29t-36.5 29t-32.5 55q-51 100 -51 192q0 62 30.5 107.5t89.5 45.5t89.5 -45.5t30.5 -107.5z" />
<glyph unicode="&#x22;" horiz-adv-x="587" d="M430 715q54 0 81 -41t27 -97q0 -92 -45 -174q-44 -74 -63 -74q-23 0 -62 74q-46 83 -46 174q0 56 27.5 97t80.5 41zM157 715q54 0 81 -41t27 -97q0 -92 -45 -174q-44 -74 -63 -74q-23 0 -62 74q-46 83 -46 174q0 56 27.5 97t80.5 41z" />
<glyph unicode="#" d="M406 164l-19 -145q-3 -19 -22 -19h-38q-8 0 -12.5 6t-3.5 13l20 145q1 8 -3.5 13.5t-11.5 5.5h-36q-7 0 -13 -5.5t-7 -13.5l-20 -145q-3 -19 -22 -19h-38q-8 0 -12.5 6t-3.5 13l21 145q1 8 -3.5 13.5t-11.5 5.5h-45q-19 0 -19 19v38q0 19 19 19h56q17 0 21 19l5 37 q1 8 -3.5 13.5t-11.5 5.5h-45q-19 0 -19 19v38q0 19 19 19h56q17 0 21 19l18 134q3 19 22 19h38q8 0 12.5 -6t3.5 -13l-20 -135q-1 -7 3 -12.5t12 -5.5h35q17 0 21 19l19 134q3 19 22 19h38q8 0 12.5 -6t3.5 -13l-19 -135q-1 -7 3 -12.5t12 -5.5h45q19 0 19 -19v-38 q0 -19 -19 -19h-56q-7 0 -13 -5.5t-7 -13.5l-5 -38q-1 -7 3 -12.5t12 -5.5h45q19 0 19 -19v-38q0 -19 -19 -19h-58q-7 0 -13 -5.5t-7 -13.5zM293 259h34q17 0 21 19l5 37q1 8 -3.5 13.5t-11.5 5.5h-35q-7 0 -13 -5.5t-7 -13.5l-5 -38q-1 -7 3 -12.5t12 -5.5z" />
<glyph unicode="$" d="M486 594q29 0 62.5 -47t33.5 -92q0 -26 -14 -43t-39 -17q-18 0 -39 16t-39 34.5t-47 34.5t-60 16q-23 0 -38.5 -11.5t-15.5 -34.5q0 -19 17 -32.5t43.5 -22.5t59 -18.5t65.5 -23.5t59.5 -34.5t43.5 -55.5t17 -82q0 -46 -23 -86t-57.5 -65t-70 -39.5t-64.5 -16.5 q-15 -1 -18 -6t-3 -21v-7q0 -36 -7 -42t-45 -6h-15h-14q-3 0 -9.5 0.5t-8 2.5t-5 5t-4 8t-1.5 11.5t-1 16.5q0 3 0.5 8t0.5 8t-1 7.5t-2.5 7t-4.5 4.5t-8 2q-105 14 -145 43q-24 18 -39.5 68.5t-15.5 86.5q0 19 9 33t27 14q19 0 33 -14.5t26.5 -35t29 -41t47.5 -35t74 -14.5 q23 0 48 10.5t25 32.5q0 23 -18 34.5t-99 40.5q-80 28 -133 78.5t-53 124.5q0 73 51.5 128.5t124.5 70.5q5 1 8 1.5t5.5 2t4 2t2.5 2.5l2 3q0 1 0.5 4.5t0.5 4.5v7v8q0 36 7 42t45 6h15h14q3 0 9.5 -0.5t8 -2.5t5 -5t4 -8t1.5 -11.5t1 -16.5q0 -2 -0.5 -8.5t0 -10t1.5 -8 t4 -7.5t8 -4q6 -1 36 -8t33 -7q5 0 20 5t25 5z" />
<glyph unicode="%" horiz-adv-x="852" d="M838 183q0 -82 -66.5 -134.5t-150.5 -52.5q-78 0 -133 44t-55 121q0 89 65.5 140t157.5 51q68 0 125 -51t57 -118zM679 125q0 42 -16 94.5t-47 52.5q-14 0 -22 -12t-8 -26q0 -9 3 -30.5t10 -49.5t20.5 -48.5t30.5 -20.5q29 0 29 40zM419 542q0 -82 -66.5 -134.5 t-150.5 -52.5q-78 0 -133 44.5t-55 120.5q0 90 65.5 140.5t157.5 50.5q69 0 125.5 -50.5t56.5 -118.5zM260 484q0 42 -16 94.5t-47 52.5q-14 0 -22 -12t-8 -26q0 -9 3 -30.5t10 -49.5t20.5 -48.5t30.5 -20.5q29 0 29 40zM541 469l-190 -324q-18 -31 -34 -61.5t-22.5 -44 t-14.5 -25.5t-16 -15.5t-21 -3.5q-18 0 -38.5 6t-20.5 20q0 9 3 16t13 22l24 35q15 21 44 68l62 104l233 405q12 25 24 34.5t37 9.5q47 0 47 -23q0 -9 -3.5 -17.5t-13.5 -24.5l-24 -36l-38 -60z" />
<glyph unicode="&#x26;" horiz-adv-x="913" d="M471 215q-21 0 -33 24t-12 47q0 56 28 96.5t68.5 61.5t81 36.5t68.5 33t28 39.5q0 11 -7 19t-17 8q-4 0 -12 -3.5t-14 -3.5q-8 0 -14.5 6.5t-6.5 15.5q0 37 46 59t87 22q61 0 106 -35t45 -94q0 -43 -23.5 -78.5t-51.5 -53.5l-50 -34q-24 -16 -24 -25t11.5 -19t26 -19 t26 -30.5t11.5 -51.5q0 -41 -27.5 -84t-77.5 -80.5t-132 -61.5t-179 -24q-188 0 -298.5 84t-110.5 198q0 35 11.5 63t27.5 44.5t32 27.5l27 19q12 7 12 12q0 2 -18 40.5t-18 65.5q0 80 76 134t173 54q34 0 71.5 -8t71 -31.5t33.5 -57.5q0 -21 -17.5 -39.5t-39.5 -18.5 q-13 0 -44 21t-57 21q-27 0 -44 -20.5t-17 -48.5q0 -33 17 -48q16 -14 36 -14h1q2 1 3 1q19 0 35 -9q17 -8 17 -31q0 -40 -18 -57.5t-40 -18t-40 -12.5t-18 -42q0 -77 60.5 -142t137.5 -65q56 0 104 33.5t48 87.5q0 26 -19.5 43.5t-47.5 17.5q-21 0 -37.5 -11.5t-24 -26 t-17.5 -26t-20 -11.5z" />
<glyph unicode="'" horiz-adv-x="315" d="M157 715q54 0 81 -41t27 -97q0 -92 -45 -174q-44 -74 -63 -74q-23 0 -62 74q-46 83 -46 174q0 56 27.5 97t80.5 41z" />
<glyph unicode="(" horiz-adv-x="524" d="M70 350q0 81 20 158.5t58 145t104 109t150 41.5q67 0 89.5 -14t22.5 -38q0 -21 -9.5 -35.5t-28.5 -14.5q-21 0 -37.5 2.5t-18.5 2.5q-42 0 -70.5 -42t-41 -107t-17 -114.5t-4.5 -93.5t4.5 -93.5t17 -114.5t41 -107t70.5 -42q2 0 18.5 2.5t37.5 2.5q19 0 28.5 -14.5 t9.5 -35.5q0 -24 -22.5 -38t-89.5 -14q-84 0 -150 41.5t-104 109t-58 145t-20 158.5z" />
<glyph unicode=")" horiz-adv-x="524" d="M454 350q0 -81 -20 -158.5t-58 -145t-104 -109t-150 -41.5q-67 0 -89.5 14t-22.5 38q0 21 9.5 35.5t28.5 14.5q21 0 37.5 -2.5t18.5 -2.5q42 0 70.5 42t41 107t17 114.5t4.5 93.5t-4.5 93.5t-17 114.5t-41 107t-70.5 42q-2 0 -18.5 -2.5t-37.5 -2.5q-19 0 -28.5 14.5 t-9.5 35.5q0 24 22.5 38t89.5 14q84 0 150 -41.5t104 -109t58 -145t20 -158.5z" />
<glyph unicode="*" horiz-adv-x="758" d="M455 593l40 14q37 10 39 10q16 0 26 -21t12.5 -37t2.5 -22q0 -16 -17.5 -25t-38 -11t-38 -6.5t-17.5 -13.5q0 -2 31 -43t31 -56q0 -13 -31.5 -36t-44.5 -23q-14 0 -41.5 50.5t-36.5 50.5q-6 0 -43 -45.5t-51 -45.5q-13 0 -40 23.5t-27 38.5q0 21 36.5 56.5t36.5 41.5 q0 7 -16 13t-34.5 10t-34.5 14t-16 25q0 16 12.5 46t27.5 30q18 0 54.5 -18t41.5 -18q10 0 10 26q0 5 -0.5 11t-0.5 7v42q1 34 42 34q19 0 28.5 -1t20.5 -8.5t11 -23.5q0 -10 -3.5 -40t-3.5 -45q0 -10 9 -10q2 0 6.5 1t10 3t6.5 2z" />
<glyph unicode="+" d="M492 198h-68q-42 0 -46 -4q-5 -5 -5 -47v-68v-9q0 -18 -1 -25.5t-6 -16.5t-17 -11.5t-34 -2.5t-34 2.5t-17 11.5t-6 16t-1 26v9v68q0 44 -4 47q-5 4 -47 4h-68h-9q-18 0 -25.5 1t-16.5 6t-11.5 17t-2.5 34t2.5 34t11.5 17t16 6t26 1h9h68q42 0 47 5q4 4 4 46v68v9 q0 18 1 25.5t6 16.5t17 11.5t34 2.5t34 -2.5t17 -11.5t6 -16t1 -26v-9v-68q0 -40 5 -46q4 -5 46 -5h68h9q18 0 25.5 -1t16.5 -6t11.5 -17t2.5 -34t-2.5 -34t-11.5 -17t-16 -6t-26 -1h-9z" />
<glyph unicode="," horiz-adv-x="315" d="M142 -185q-17 0 -33.5 11.5t-16.5 27.5q0 6 25 50t25 67q0 14 -17 24t-38 18t-38 34t-17 67q0 49 34.5 85t82.5 36q64 0 98.5 -50.5t34.5 -117.5q0 -46 -18 -104t-51.5 -103t-70.5 -45z" />
<glyph unicode="-" horiz-adv-x="299" d="M259 204q-10 -20 -21.5 -28t-32.5 -8q-12 0 -36.5 4t-36.5 4q-30 0 -51 -0.5t-29.5 -1.5t-14 -1.5t-7.5 -0.5q-12 0 -21 8.5t-9 21.5q0 17 15.5 61.5t24.5 62.5q10 20 21.5 28t32.5 8q12 0 36.5 -4t36.5 -4q30 0 51 0.5t29.5 1.5t14 1.5t7.5 0.5q12 0 21 -8.5t9 -21.5 q0 -17 -15.5 -61.5t-24.5 -62.5z" />
<glyph unicode="." horiz-adv-x="315" d="M278 107q0 -50 -35.5 -85.5t-85.5 -35.5t-85.5 35.5t-35.5 85.5t35.5 85.5t85.5 35.5t85.5 -35.5t35.5 -85.5z" />
<glyph unicode="/" horiz-adv-x="496" d="M390 455l-249 -511q-8 -16 -17 -36.5t-12.5 -27.5t-10 -15.5t-15 -10.5t-21.5 -2q-86 0 -86 37q0 10 13 36l42 77q29 52 51 96l249 511q8 16 17 36.5t12.5 27.5t10 15.5t15 10.5t21.5 2q86 0 86 -37q0 -10 -14 -36l-42 -78q-28 -51 -50 -95z" />
<glyph unicode="0" d="M26 293q0 130 75 213t204 83q125 0 212 -91t87 -217q0 -71 -27 -129t-70 -93t-93 -54t-101 -19q-127 0 -207 89.5t-80 217.5zM380 217q0 23 -4 56t-12 72.5t-25.5 67t-40.5 27.5q-48 0 -48 -80q0 -21 4 -54.5t12.5 -74t26 -68.5t40.5 -28q47 0 47 82z" />
<glyph unicode="1" d="M193 235v136q0 37 -9 50t-44 13q-7 0 -19 -1t-18 -1q-17 0 -28.5 8.5t-11.5 24.5q0 33 63 62.5t148.5 45.5t161.5 16q83 0 83 -45q0 -16 -11.5 -25t-25.5 -12.5t-25.5 -21t-12.5 -49.5q-2 -106 -2 -120q0 -124 9 -171q6 -30 28 -41q19 -11 39 -11q3 0 6 1h6q19 0 34 -7 q18 -8 18 -32q0 -16 -10 -27t-20.5 -15.5t-29.5 -8.5q-85 -18 -202 -18q-14 0 -33.5 1t-54 3t-65.5 7t-60.5 13t-47.5 21t-18 29q0 17 13.5 28.5t31.5 11.5q8 0 26 -3t26 -3q30 0 42.5 29t12.5 112z" />
<glyph unicode="2" d="M562 206q25 0 35 -23t10 -52q0 -77 -38.5 -128t-73.5 -51q-15 0 -22.5 5t-10 12t-7 14t-19 12t-39.5 5h-330q-58 0 -58 26q0 13 9.5 24.5t63.5 62.5q60 56 116 127t56 117q0 26 -15 41.5t-41 15.5q-32 0 -65 -29t-54 -29q-23 0 -44 18t-21 40q0 42 52 83.5t124.5 66.5 t134.5 25q119 0 179 -46t60 -111q0 -36 -17.5 -71t-42 -61.5t-49 -49t-42 -40.5t-17.5 -29q0 -16 13.5 -25.5t30.5 -9.5q31 0 54 15t39 30t29 15z" />
<glyph unicode="3" d="M206 192q-22 0 -47 -5l-25 -5q-16 0 -29 30t-13 49q0 13 21 24.5t46 20.5t46 31t21 54q0 27 -24 47t-54 20q-28 0 -62 -17.5t-39 -17.5q-14 0 -25 19.5t-11 36.5q0 39 84 74.5t173 35.5q35 0 73 -6t78.5 -19.5t66.5 -41t26 -64.5q0 -29 -11.5 -52.5t-26 -35t-26 -22 t-11.5 -17.5q0 -9 17.5 -15t42 -13.5t49 -21t42 -46t17.5 -81.5q0 -105 -98 -182.5t-283 -77.5q-26 0 -57.5 3t-73 10.5t-68.5 25.5t-27 43q0 24 16 39t40 15q10 0 49 -9t75 -9q52 0 93 26t41 70q0 41 -31.5 62.5t-74.5 21.5z" />
<glyph unicode="4" d="M219 176h31q53 0 61.5 7.5t8.5 55.5q0 8 1.5 30.5t1.5 38.5t-1.5 34t-8 27.5t-17.5 8.5q-25 -3 -45 -31q-4 -5 -33.5 -39.5t-50.5 -65t-21 -44.5q1 -22 73 -22zM537 561v-331q0 -30 6 -35t23 -5q26 0 32 -6.5t6 -34.5v-80q0 -15 -0.5 -21.5t-7 -13.5t-19.5 -8 q-22 -2 -25 -9.5t-3 -49.5q0 -6 0.5 -20t0 -17t-2.5 -11t-6.5 -10t-12.5 -4t-21 -2h-151h-14q-6 0 -10.5 1.5t-7.5 2t-5 4.5t-3 5.5t-1.5 8t-0.5 9.5v14v15q0 45 -5 53q-8 12 -44 12h-175q-43 0 -60.5 12.5t-17.5 53.5q0 55 17 88.5t85 115.5l231 266q67 64 145 64 q22 0 32.5 -10.5t12.5 -22t2 -34.5z" />
<glyph unicode="5" d="M496 402h-210q-13 0 -18.5 -0.5t-15 -3t-13.5 -9.5t-4 -18q0 -5 1.5 -9t5.5 -6l6 -5q3 -2 9 -3t9.5 -1.5t10.5 -1t9 -0.5q92 -10 157 -35t96.5 -57t44.5 -61t13 -59q0 -99 -103 -170.5t-261 -71.5q-192 0 -192 81q0 16 7 36.5t21 20.5q1 0 19.5 -5t45 -10t48.5 -5 q38 0 67.5 16.5t29.5 51.5q0 73 -145 99q-3 0 -16.5 2t-22 3t-21.5 5t-21 8.5t-14 12.5t-6 18q0 59 67 239q18 48 28 71.5t23.5 34.5t20.5 11.5t32 0.5h341q30 0 38.5 -7t8.5 -37q0 -46 -23.5 -91t-72.5 -45z" />
<glyph unicode="6" d="M620 261q0 -109 -81.5 -192t-212.5 -83q-136 0 -222 85t-86 214q0 58 27.5 128t65 125t76.5 92.5t62 37.5h6q23 0 75 -18q61 -21 61 -41q0 -11 -26 -40q-70 -78 -70 -120q0 -19 16 -19q4 0 45 13.5t73 13.5q79 0 135 -58t56 -138zM400 171q0 43 -25 92t-65 49 q-24 0 -36 -18t-12 -44q0 -36 29 -80.5t62 -44.5q21 0 34 12.5t13 33.5z" />
<glyph unicode="7" d="M238 582h306q18 0 28.5 -1.5t21.5 -10.5t11 -26q0 -11 -8 -35l-201 -608q-5 -16 -8 -21t-14.5 -9t-35.5 -4q-50 0 -88 11t-53 23.5t-15 21.5q0 7 10 24l180 344q27 54 27 68q0 8 -4.5 14t-14 9.5t-18 6t-23 3t-21.5 0.5h-22h-15q-55 0 -87 -6.5t-41.5 -15.5t-14 -18 t-13.5 -15.5t-31 -6.5q-28 0 -45.5 18.5t-23.5 42t-6 50.5q0 70 27 119.5t63 49.5q13 0 43 -14t86 -14z" />
<glyph unicode="8" d="M609 487q0 -29 -13.5 -52t-29.5 -35l-30 -21q-14 -10 -14 -16q0 -7 24 -24q33 -23 53 -60t20 -77q0 -33 -15.5 -68.5t-46.5 -69.5t-89.5 -56t-133.5 -22q-50 0 -102.5 10.5t-104 32t-84 63t-32.5 96.5q0 32 13 57t29 37t29 23t13 17q0 5 -11 16l-23 26q-13 14 -23.5 39.5 t-10.5 54.5q0 89 81.5 140.5t194.5 51.5q44 0 91 -7t98.5 -23.5t84 -51t32.5 -81.5zM330 555q-20 0 -36.5 -10.5t-16.5 -28.5q0 -26 39 -55.5t66 -29.5q16 0 25.5 20t9.5 38q0 33 -26.5 49.5t-60.5 16.5zM307 90q29 0 49.5 12t20.5 39q0 9 -2 16.5t-7 14.5l-8 10 q-3 4 -12 10l-12 7q-4 2 -15 7l-13 7q-71 37 -100 37q-26 0 -26 -40q0 -48 38 -84t87 -36z" />
<glyph unicode="9" d="M494 38q-37 -50 -96.5 -110t-94.5 -60q-25 0 -77.5 25t-52.5 45q0 14 22 25q35 19 67 63t32 74q0 19 -21 19q-8 0 -24 -1.5t-24 -1.5q-101 0 -156.5 72.5t-55.5 167.5q0 76 45.5 130.5t111 78.5t139.5 24q79 0 145.5 -24.5t111.5 -81.5t45 -137q0 -149 -117 -308z M387 304q0 24 -8 54.5t-28 57t-47 26.5q-23 0 -37 -20t-14 -45q0 -45 23.5 -87t63.5 -42q22 0 34.5 16.5t12.5 39.5z" />
<glyph unicode=":" horiz-adv-x="315" d="M278 107q0 -50 -35.5 -85.5t-85.5 -35.5t-85.5 35.5t-35.5 85.5t35.5 85.5t85.5 35.5t85.5 -35.5t35.5 -85.5zM278 404q0 -50 -35.5 -85.5t-85.5 -35.5t-85.5 35.5t-35.5 85.5t35.5 85.5t85.5 35.5t85.5 -35.5t35.5 -85.5z" />
<glyph unicode=";" horiz-adv-x="315" d="M274 404q0 -50 -35.5 -85.5t-85.5 -35.5t-85.5 35.5t-35.5 85.5t35.5 85.5t85.5 35.5t85.5 -35.5t35.5 -85.5zM142 -185q-17 0 -33.5 11.5t-16.5 27.5q0 6 25 50t25 67q0 14 -17 24t-38 18t-38 34t-17 67q0 49 34.5 85t82.5 36q64 0 98.5 -50.5t34.5 -117.5 q0 -46 -18 -104t-51.5 -103t-70.5 -45z" />
<glyph unicode="&#x3c;" d="M257 256l262 -114q23 -9 30.5 -19t7.5 -28v-32q0 -16 -5 -32.5t-15 -16.5q-9 0 -38 11l-409 178q-4 1 -6.5 4t-4 7t-3 7t-2 9t-0.5 9t-0.5 9t-0.5 8t0.5 8t0.5 9t0.5 9t2 9t3 7t4 7t6.5 4l409 178q29 11 38 11q10 0 15 -16.5t5 -32.5v-31q0 -19 -7.5 -29t-30.5 -19z" />
<glyph unicode="=" d="M492 296h-354h-9q-18 0 -25.5 1t-16.5 6t-11.5 17t-2.5 34t2.5 34t11.5 17t16 6t26 1h9h354h9q18 0 25.5 -1t16.5 -6t11.5 -17t2.5 -34t-2.5 -34t-11.5 -17t-16 -6t-26 -1h-9zM492 100h-354h-9q-18 0 -25.5 1t-16.5 6t-11.5 17t-2.5 34t2.5 34t11.5 17t16 6t26 1h9h354h9 q18 0 25.5 -1t16.5 -6t11.5 -17t2.5 -34t-2.5 -34t-11.5 -17t-16 -6t-26 -1h-9z" />
<glyph unicode="&#x3e;" d="M111 142l262 114l-262 114q-23 9 -30.5 19t-7.5 28v32q0 16 5 32.5t15 16.5q9 0 38 -11l409 -178q4 -1 6.5 -4t4 -7t3 -7t2 -9t0.5 -9t0.5 -9t0.5 -8t-0.5 -8t-0.5 -9t-0.5 -9t-2 -9t-3 -7t-4 -7t-6.5 -4l-409 -178q-29 -11 -38 -11q-10 0 -15 16.5t-5 32.5v31 q0 19 7.5 29t30.5 19z" />
<glyph unicode="?" horiz-adv-x="506" d="M195 559q-5 -50 -34.5 -78.5t-78.5 -28.5q-32 0 -53.5 20.5t-21.5 52.5q0 71 66.5 130.5t175.5 59.5q54 0 110 -21.5t96.5 -66t40.5 -100.5q0 -95 -112 -137q-28 -11 -44.5 -27t-22 -31t-12 -28.5t-21 -21.5t-41.5 -8q-31 0 -49 17.5t-18 48.5q0 42 43 107.5t43 108.5 q0 19 -8.5 35t-26.5 16q-13 0 -20.5 -9t-9 -16.5t-2.5 -22.5zM346 97q0 -46 -32.5 -78.5t-78.5 -32.5t-78.5 32.5t-32.5 78.5t32.5 78.5t78.5 32.5t78.5 -32.5t32.5 -78.5z" />
<glyph unicode="@" horiz-adv-x="758" d="M475 496q3 0 35 15t56 15q16 0 21.5 -6t5.5 -21q0 -20 -19 -94l-2 -10q-3 -10 -4.5 -16.5t-5 -20t-4.5 -22.5l-4 -23q-2 -13 -2 -21.5t0.5 -17t3.5 -12.5t8 -4q4 0 12 4t20 15.5t23.5 28t21.5 44.5t14 62q1 9 1 19q0 26 -8 55q-11 38 -37 74.5t-79 60t-123 23.5 q-119 0 -210 -83t-100 -211q-1 -13 -1 -25q0 -116 76 -188q83 -80 215 -80q45 0 88.5 16.5t69.5 36.5l47 36q20 17 24 17q12 0 25.5 -15.5t12.5 -25.5q-1 -8 -38 -39t-109 -64t-145 -33q-157 0 -256 101q-85 86 -85 210q0 22 3 46q18 157 131 264.5t268 107.5q46 0 92 -12 t87.5 -37t72 -59t46.5 -81q12 -37 12 -77q0 -12 -1 -25q-11 -126 -97 -198.5t-206 -72.5q-22 0 -31.5 9.5t-9 21t-1 21t-8.5 9.5q-6 0 -24 -16t-47.5 -32.5t-61.5 -16.5q-43 0 -66 32q-19 26 -19 67q0 9 1 18q9 102 83 181t145 79q26 0 51 -15t32 -15zM345 263 q20 0 56.5 59.5t40.5 101.5v6q0 18 -12 18q-21 0 -58 -52t-42 -105v-7q0 -21 15 -21z" />
<glyph unicode="A" horiz-adv-x="869" d="M339 289h75q40 0 40 13q0 16 -37 81q0 1 -5 9t-7 12t-7 11.5t-9 11t-9.5 6.5t-10.5 3q-6 0 -11.5 -5t-10 -11t-9 -15.5t-6.5 -16t-5 -14.5l-3 -9q-21 -58 -21 -62t1.5 -6.5t4 -4t5 -2.5t6.5 -1h6h8h5zM141 224l63 137l34 78q11 26 24.5 74t13.5 84q0 121 121 121 q31 0 58.5 -13.5t51 -40.5t38 -47.5t33.5 -53.5q14 -24 96.5 -191.5t107.5 -225.5q11 -25 27.5 -37.5t29 -13.5t21.5 -9t9 -27q0 -17 -9.5 -30t-30.5 -20.5t-36.5 -12t-45 -6t-37.5 -1.5h-33q-128 0 -178.5 10.5t-50.5 52.5q0 16 9.5 25.5t21 12t21 9t9.5 18.5 q0 33 -31.5 41t-154.5 8q-46 0 -64.5 -8.5t-18.5 -42.5q0 -13 10 -19.5t22 -8t22 -11t10 -26.5q0 -61 -148 -61q-68 0 -104 9t-44 20t-8 30q0 20 14 29.5t36 17.5t33 22q18 23 58 107z" />
<glyph unicode="B" horiz-adv-x="754" d="M680 544q0 -80 -55 -124q-18 -16 -18 -27q0 -6 4 -11t6 -6t11 -5q40 -16 76 -56.5t36 -96.5q0 -40 -14 -77.5t-44 -71t-84 -54t-126 -20.5q-50 0 -95 3q-60 2 -91 2q-35 0 -103 -2q-51 -3 -103 -3q-26 0 -46 14t-20 39q0 17 6.5 24.5t16.5 13t20 15t18 38t10 74.5l11 288 v16q0 31 -6 51q-8 24 -20 32t-24 12t-21 12.5t-9 27.5q0 26 22.5 41t49.5 15l111 -3q74 -4 111 -4q24 0 70 4q69 3 70 3q125 0 177.5 -47.5t52.5 -116.5zM334 545v-81q0 -43 7 -51q7 -7 22 -7q42 0 58 25.5t16 71.5q0 41 -16.5 71t-53.5 30q-6 0 -11 -1t-8 -3.5t-6 -4.5 t-4 -6.5t-2 -7t-1.5 -8.5t-0.5 -9v-10v-9zM334 270v-50q0 -55 7 -82t15.5 -32t27.5 -5q77 0 77 91q0 115 -88 115q-22 0 -30 -9.5t-9 -27.5z" />
<glyph unicode="C" horiz-adv-x="756" d="M24 353q0 99 56.5 183.5t146 131.5t187.5 47q43 0 83.5 -12.5t67.5 -24.5t36 -12q12 0 24.5 3.5t20.5 3.5q35 0 65.5 -48t30.5 -126q0 -45 -25 -75t-68 -30q-28 0 -48.5 18t-35.5 44t-33.5 52.5t-53.5 44.5t-84 18q-53 0 -81 -39.5t-28 -87.5q0 -116 59 -195t160 -79 q43 0 76.5 11t48.5 23l29 24q14 11 23 11q20 0 31.5 -18.5t11.5 -40.5q0 -38 -30.5 -87t-65.5 -49q-12 0 -43.5 -14.5t-79 -29t-99.5 -14.5q-157 0 -269.5 108t-112.5 259z" />
<glyph unicode="D" horiz-adv-x="843" d="M96 190l8 347v5q0 31 -10 48q-12 17 -26 20t-25.5 13.5t-11.5 31.5q0 53 93 53h326q100 0 174 -29t115.5 -80t60.5 -111.5t19 -131.5q0 -72 -21.5 -135.5t-64 -114.5t-113.5 -81t-163 -30q-63 0 -110 3q-62 2 -86 2q-29 0 -85 -2q-42 -3 -85 -3q-29 0 -53 14.5t-24 42.5 q0 17 6 25.5t14.5 10t19 6t19.5 12t15.5 29t7.5 55.5zM344 544v-373q0 -41 11.5 -56.5t50.5 -15.5q148 0 148 229q0 84 -14.5 140.5t-40 83.5t-51.5 37t-59 10q-29 0 -37 -11.5t-8 -43.5z" />
<glyph unicode="E" horiz-adv-x="726" d="M139 701h288q59 0 97 5t53.5 10t18.5 5q38 0 59.5 -49t21.5 -93q0 -29 -12.5 -50.5t-39.5 -21.5q-21 0 -32.5 10t-19.5 24t-21 28t-46 24t-86 10q-26 0 -42.5 -1.5t-28.5 -6t-17 -12t-9 -19.5t-3 -28q1 -9 0.5 -19t-0.5 -21v-28q0 -43 9 -51.5t55 -8.5q25 0 36 17.5 t11 38t9.5 38t33.5 17.5q62 0 62 -152q0 -21 -2.5 -43.5t-8.5 -51.5t-20.5 -47.5t-35.5 -18.5q-20 0 -27.5 16.5t-8 36t-16 36t-49.5 16.5q-15 0 -24 -5.5t-12.5 -18.5t-4 -21t-0.5 -25q0 -38 0.5 -59t6 -38.5t9 -24.5t19 -12t26.5 -5h40h14q48 0 82 10.5t50 26t28.5 34 t18.5 34t18.5 26t31.5 10.5q22 0 35 -20t13 -44q0 -53 -32.5 -121.5t-61.5 -68.5q-2 0 -44 6q-55 5 -84 5h-411q-23 0 -38 4.5t-20.5 12.5t-7 13.5t-1.5 12.5q0 18 11 27t24 12.5t25.5 22.5t14.5 55q10 150 10 178q0 35 -7 167q-2 42 -11.5 66.5t-21 31t-23 9.5t-19.5 11 t-8 27q0 13 4.5 22t13.5 14.5t17.5 9t23.5 4.5l23 2q8 0 23.5 -0.5t19.5 -0.5z" />
<glyph unicode="F" horiz-adv-x="695" d="M102 270v139q1 29 1 53q0 60 -4 91q-4 29 -17 44t-26 18t-23.5 12t-10.5 27q0 26 24 40t52 14q6 0 123 -5t166 -5q11 0 120 5t115 5q29 0 54.5 -47.5t25.5 -99.5q0 -28 -13.5 -48.5t-40.5 -20.5q-18 0 -30.5 10.5t-23.5 26t-28 30.5t-53.5 25.5t-89.5 10.5q-46 0 -59 -9 q-27 -25 -28 -131q0 -9 1 -13.5t6.5 -10.5t18 -8.5t33.5 -2.5q26 0 38 14.5t13.5 31.5t12.5 31.5t34 14.5q61 0 61 -148q0 -168 -73 -168q-17 0 -24.5 11.5t-9.5 28t-6 33.5t-19.5 28.5t-45.5 11.5q-28 0 -33.5 -11.5t-5.5 -66.5v-33v-9q0 -29 6 -47q7 -22 17.5 -29.5 t23.5 -12.5t24 -6.5t18.5 -10.5t7.5 -27q0 -12 -0.5 -16.5t-12 -16.5t-34 -17.5t-70.5 -11t-117 -5.5q-78 0 -119.5 8t-54 21t-12.5 37q0 19 9 29t20.5 13.5t25 13.5t20.5 27q13 36 13 132z" />
<glyph unicode="G" horiz-adv-x="834" d="M283 412q0 -73 19.5 -130t49 -88t59.5 -46.5t56 -15.5t43.5 17.5t17.5 44.5q0 28 -16 37q-13 7 -28 7h-8q-4 -1 -8 -1q-15 0 -28 9q-17 11 -17 42q0 25 23 42.5t60.5 24.5t64 9t54.5 2q66 0 109.5 -8t61 -22.5t23 -26t5.5 -25.5q0 -19 -13.5 -32t-32.5 -16 q-19 -2 -24 -7.5t-11 -26.5q-28 -104 -118.5 -160t-203.5 -56q-106 0 -196.5 45t-145.5 130.5t-55 192.5q0 156 115 258.5t278 102.5q52 0 104.5 -13.5t57.5 -13.5q9 0 31 7.5t31 7.5q42 0 70.5 -53.5t28.5 -99.5q0 -40 -20.5 -69.5t-58.5 -29.5q-27 0 -49 14.5t-38 34.5 l-34 40q-18 21 -47 35.5t-67 14.5q-65 0 -104 -49t-39 -129z" />
<glyph unicode="H" horiz-adv-x="842" d="M756 425v-260q0 -24 6 -36.5t25 -23.5q26 -14 31 -25q3 -7 3 -17t-1.5 -17t-12 -19t-30 -19.5t-59.5 -13t-96 -5.5q-172 0 -172 68q-1 21 5.5 30t17.5 14t21.5 16t18 45t7.5 90q0 17 -2.5 26.5t-4.5 15t-12.5 7.5t-16.5 2.5t-26 0.5q-95 0 -112 -11q-15 -9 -15 -48v-14 v-21q0 -38 6.5 -61t15.5 -31.5t18 -13.5t15.5 -14t6.5 -27q0 -24 -22 -40.5t-58.5 -23t-61.5 -8.5t-52 -2q-185 0 -185 72q0 27 32 42q23 11 30 20t13 55t6 148v78q0 32 -1 60q-2 22 -2 36v8q1 16 -2.5 31t-3 20.5t-5.5 12.5t-6.5 7.5t-9.5 4.5l-11 6q-11 6 -16 9t-11 11 t-6 17q0 27 25.5 45.5t66 26t71.5 10.5t60 3q22 0 43.5 -2t50 -8t46.5 -20t18 -35q0 -15 -6 -25.5t-13 -16t-21 -14.5q-19 -11 -25 -30.5t-6 -84.5q0 -10 1.5 -18t3 -13.5t6.5 -9t7.5 -5t11 -2.5t11.5 -1h16h17h51q32 0 46 4.5t16 11t2 25.5q0 50 -5.5 78.5t-10.5 34 t-14 10.5q-14 8 -19 11.5t-11.5 13t-6.5 21.5v11q0 3 3.5 12t10.5 14.5t21 13.5t34 12.5t52.5 8t73.5 3.5q180 0 180 -71q0 -31 -31 -47q-19 -8 -25 -15t-11 -42t-5 -112z" />
<glyph unicode="I" horiz-adv-x="435" d="M97 301v99q0 143 -21 170q-6 7 -34 27.5t-28 42.5q0 17 14.5 30t40 20.5t49.5 12.5t53.5 6.5t42 2t24.5 0.5q183 0 183 -70q0 -16 -9.5 -25t-26 -17t-25.5 -18q-20 -23 -20 -182v-99q0 -85 4.5 -125t9 -46.5t18.5 -14.5q4 -2 17.5 -9.5t17.5 -10.5t9 -11.5t5 -19.5 q0 -12 -2.5 -20t-15 -19t-35.5 -18.5t-67.5 -12.5t-107.5 -5q-168 0 -168 65q0 14 8.5 23.5t22.5 17.5t19 15q22 26 22 191z" />
<glyph unicode="J" horiz-adv-x="659" d="M572 526l-8 -308q-2 -60 -27 -105t-58 -68.5t-76 -37.5t-70.5 -17.5t-50.5 -3.5q-37 0 -75 6t-77 20.5t-69 35.5t-49 54.5t-19 74.5q0 50 31.5 85t80.5 35q46 0 81 -27t35 -72q0 -9 -3.5 -25t-3.5 -22q0 -18 12 -29q11 -8 26 -8h6q28 3 45.5 21.5t23.5 45.5t7 69v23 q0 29 -2 57q-2 38 -4 90q-1 26 -1 48.5t1 41.5v9q0 30 -12 47q-14 18 -31.5 20t-32 11.5t-14.5 31.5q0 8 2 16t13.5 21t31.5 22.5t60.5 16.5t95.5 7q211 0 211 -74q0 -17 -12 -27.5t-27 -16t-27.5 -23t-13.5 -45.5z" />
<glyph unicode="K" horiz-adv-x="869" d="M529 52l-68 83q-79 93 -99 93q-30 0 -30 -55v-21q0 -24 31.5 -50t31.5 -51q0 -19 -12 -31t-58 -21.5t-129 -9.5q-75 0 -116 9t-51.5 20.5t-10.5 31.5q0 17 8 27t18.5 15t21 21.5t14.5 44.5q10 62 10 177q0 140 -10 195q-4 29 -15.5 45t-22.5 19.5t-19.5 14.5t-8.5 31v9 q0 2 3.5 12t10 14.5t22 13t37 12.5t57 7.5t80.5 3.5q22 0 34.5 -0.5t38 -4t40 -10t26.5 -20t12 -33.5q0 -14 -5.5 -23t-13.5 -15.5t-16.5 -15.5t-14 -30.5t-5.5 -54.5q0 -42 19 -42t62.5 53.5t43.5 72.5q0 10 -8 26t-8 27q0 70 168 70h5h7q95 0 129 -16q35 -16 35 -50 q0 -28 -17 -40q-16 -12 -37 -12h-2q-3 1 -6 1q-20 0 -41 -3q-25 -3 -36 -14q-4 -4 -24 -22l-37 -32q-16 -14 -30 -34t-14 -35q0 -6 2 -13.5t4.5 -12.5t8 -12.5t8.5 -10.5l9 -12q7 -8 8 -9l209 -239q11 -12 35.5 -23.5t40 -26t15.5 -41.5q0 -55 -90 -55h-170q-28 0 -38.5 7 t-41.5 45z" />
<glyph unicode="L" horiz-adv-x="665" d="M445 0h-334q-57 0 -73 16q-10 10 -10 28q0 20 12.5 29.5t27 13t27.5 24t14 59.5q2 73 2 196q0 35 -3.5 97.5t-3.5 74.5q-1 28 -15 42.5t-30.5 16.5t-30.5 10.5t-14 27.5q0 25 23.5 42.5t62.5 24t65.5 8.5t54.5 2q94 -2 142.5 -13t58 -22.5t9.5 -32.5q0 -19 -12.5 -28.5 t-27 -12t-27 -19t-12.5 -48.5v-318q0 -58 16.5 -82.5t66.5 -24.5q47 0 76.5 14.5t41 34.5t17.5 40.5t15 35t26 14.5q31 0 46.5 -26.5t15.5 -59.5q0 -59 -34 -118.5t-68 -59.5q-8 0 -50 7q-33 7 -75 7z" />
<glyph unicode="M" horiz-adv-x="929" d="M336 151l-58 130q-1 1 -3 6.5t-3.5 8t-4 7.5t-5.5 8l-5 7q-3 3 -6.5 4.5t-7.5 1.5q-9 0 -14 -13t-6.5 -36t-2.5 -43v-13q0 -14 1 -31q1 -25 1 -29q0 -36 10 -54.5t22 -21t22 -10.5t10 -25q0 -59 -146 -59q-126 0 -126 55q0 19 9.5 27t21.5 9.5t23 14.5t14 41 q17 178 17 322q0 83 -15 114q-4 8 -21 17t-31.5 21.5t-14.5 30.5q0 71 173 71q22 0 39 -1.5t29 -2t22 -5.5t15 -7t12 -10.5t9 -11.5t9 -16t10 -17q10 -17 39.5 -80t55.5 -106t46 -47h3q13 0 29 24q17 28 41.5 82.5t34.5 73.5q5 9 15 28.5t13.5 25.5t12.5 19.5t13 16.5l16 12 q10 9 19.5 11t24 5.5t31.5 4.5t39 1q144 0 144 -66q0 -22 -25.5 -45t-29.5 -37q-6 -19 -10.5 -85.5t-4.5 -105.5q0 -6 2 -39l4 -88q2 -53 4 -91q1 -25 11 -40.5t21.5 -21t21 -15.5t9.5 -25q0 -64 -176 -64h-5q-125 0 -160 26q-18 14 -18 34q0 19 24.5 38.5t27.5 34.5 q3 14 7 56q2 25 2 50q0 19 -1 38q-3 45 -19 45q-9 0 -18.5 -8.5t-18.5 -26.5l-18 -32l-18 -39l-14 -33q-3 -6 -23.5 -57t-36.5 -76q-15 -23 -28 -23h-2q-10 1 -16 5.5t-22.5 35t-45.5 94.5z" />
<glyph unicode="N" horiz-adv-x="873" d="M312 668l237 -208q47 -39 62 -39q26 0 26 58q0 65 -9 91q-6 17 -23 26.5t-30.5 20.5t-13.5 34q0 22 14.5 36t44 18.5t43 5.5t42.5 1h8q27 0 44.5 -1t44.5 -6t41.5 -19.5t14.5 -37.5q0 -19 -8.5 -30.5t-20 -15t-23.5 -12.5t-18 -24q-13 -36 -13 -136v-259v-10v-32 q0 -12 -1.5 -35.5t-5.5 -39t-10.5 -32t-17.5 -25t-26 -8.5q-23 0 -52 25l-309 277q-40 37 -61 37q-32 0 -32 -86q0 -61 7 -91q5 -21 17 -33.5t23 -16.5t19.5 -13.5t8.5 -25.5q0 -73 -150 -73q-149 0 -149 71q0 18 9.5 28.5t21 15t23 18t14.5 34.5q9 55 9 151q0 145 -11 217 q-5 34 -20 52.5t-30 23t-26.5 15t-11.5 30.5q0 67 168 67h5h7q47 0 65.5 -7t52.5 -37z" />
<glyph unicode="O" horiz-adv-x="818" d="M399 -14q-159 0 -267 104t-108 263q0 158 111 260t276 102q79 0 145.5 -26.5t109 -67.5t72 -91.5t42.5 -98t13 -88.5q0 -104 -56 -187t-145.5 -126.5t-192.5 -43.5zM536 242q0 37 -10.5 89.5t-30.5 106t-54.5 91t-75.5 37.5q-39 0 -61.5 -33t-22.5 -74q0 -35 11.5 -87 t31.5 -106.5t53.5 -92.5t71.5 -38q43 0 65 31t22 76z" />
<glyph unicode="P" horiz-adv-x="719" d="M474 482q0 50 -25.5 82.5t-73.5 32.5q-19 0 -27.5 -4.5t-9.5 -9.5t-1 -18v-150q0 -3 -0.5 -9t0 -9t1.5 -8t4 -7.5t7.5 -5.5t13 -4t19.5 -1q47 0 69.5 31t22.5 80zM107 158v391q0 25 -14.5 38t-32 15.5t-32 13t-14.5 31.5q0 48 75 48q13 0 37 -1t37 -1q64 0 127 3.5 t102.5 7.5t45.5 4q110 0 188.5 -58t78.5 -164q0 -107 -77.5 -168t-187.5 -61q-15 0 -44.5 2.5t-42.5 2.5q-16 0 -16 -16v-58q1 -35 9 -56t19 -28t22 -11.5t18.5 -12t7.5 -23.5q0 -68 -189 -68q-190 0 -190 66q0 18 11.5 28t25 13.5t25 18.5t11.5 43z" />
<glyph unicode="Q" horiz-adv-x="821" d="M536 242q0 37 -10.5 89.5t-30.5 106t-54.5 91t-75.5 37.5q-39 0 -61.5 -33t-22.5 -74q0 -35 11.5 -87t31.5 -106.5t53.5 -92.5t71.5 -38q43 0 65 31t22 76zM404 -154l-154 63q-16 6 -44.5 18.5t-39 16.5t-28 9.5t-29.5 7.5t-25 2q-4 0 -12 -1t-13 -1q-23 0 -23 29 q0 30 24 47.5t55 17.5q3 0 10 -0.5t11 -0.5q15 0 15 10q0 5 -20 26.5t-43.5 50t-43.5 86t-20 126.5q0 158 111 260t276 102q79 0 145.5 -26.5t109 -67.5t72 -91.5t42.5 -98t13 -88.5q0 -115 -63 -199.5t-175 -129.5q-13 -5 -13 -14t12 -19t48 -18.5t90 -8.5q18 0 35.5 4.5 t29.5 9t14 4.5q10 0 18 -14t8 -25q0 -13 -13.5 -32t-39 -39.5t-72.5 -34.5t-104 -14q-73 0 -164 33z" />
<glyph unicode="R" horiz-adv-x="816" d="M326 544l-4 -95q-2 -10 -2 -18t2 -15q4 -15 26 -15q47 0 66.5 24.5t19.5 73.5q0 99 -70 99q-11 0 -18 -3.5t-10.5 -6t-6 -13t-2.5 -13t-1 -18.5zM90 208v285q0 43 -8 69t-19 34.5t-22 13t-19 12t-8 24.5q0 62 118 62q9 0 19.5 -0.5t23 -1.5t19.5 -1q40 -4 61 -4 q31 0 97 4q96 3 97 3q61 0 114 -17t91.5 -60t38.5 -106q0 -47 -22 -86t-63 -59q-16 -9 -16 -20q0 -14 25 -24q53 -20 79 -60t36 -120q4 -31 17 -45.5t26 -15.5t23.5 -9t10.5 -28q0 -32 -40 -55t-119 -23q-30 0 -54 3.5t-42.5 13.5t-32 18.5t-25.5 27.5t-19 31t-15 39.5 t-12 42.5l-11 48q-10 43 -28 67t-55 24q-18 0 -24 -11t-6 -55q0 -58 7 -97q4 -22 31.5 -38.5t27.5 -41.5q0 -20 -12 -32.5t-55 -21.5t-120 -9q-190 0 -190 73q0 14 7.5 22.5t18.5 14.5t22.5 16t19 33.5t7.5 59.5z" />
<glyph unicode="S" horiz-adv-x="678" d="M135 305q-95 76 -95 177q0 87 79.5 160t214.5 73q38 0 94 -14.5t57 -14.5q6 0 22 6t27 6q30 0 70 -50t40 -108q0 -27 -16 -47.5t-43 -20.5q-22 0 -46.5 18t-44.5 39t-52 39t-67 18q-26 0 -45 -12.5t-19 -37.5q0 -27 24.5 -44t57.5 -24t83.5 -24.5t87.5 -42.5 q93 -61 93 -166q0 -46 -19.5 -88.5t-57.5 -79.5t-103 -59t-149 -22q-55 0 -125.5 13t-110.5 35q-33 18 -52 77.5t-19 106.5q0 22 10.5 38t31.5 16q19 0 34 -16.5t29.5 -40t34 -46.5t57 -39.5t88.5 -16.5q24 0 50.5 12t26.5 37t-24 40.5t-57.5 24t-82 29t-84.5 49.5z" />
<glyph unicode="T" horiz-adv-x="737" d="M252 701h246q43 0 78 7q24 7 41 7q35 0 77.5 -55.5t42.5 -129.5q0 -38 -20 -60.5t-57 -22.5q-29 0 -50.5 18.5t-31.5 40.5t-24 40.5t-31 18.5q-35 0 -35 -62v-307q0 -40 14.5 -60.5t31.5 -24t31.5 -14t14.5 -33.5q0 -14 -6.5 -25t-25.5 -23.5t-63.5 -19.5t-110.5 -7 q-238 0 -238 75q0 18 10 28t23 12.5t28 10t21 19.5q12 25 15 106l8 221q1 12 1 23q0 31 -5 50q-6 25 -11.5 28t-15.5 3q-15 0 -31 -18.5t-29.5 -40.5t-37 -40.5t-50.5 -18.5q-28 0 -45 21.5t-17 50.5q0 64 43 130t86 66q4 0 37 -7q44 -7 86 -7z" />
<glyph unicode="U" horiz-adv-x="862" d="M629 279v249q0 36 -13.5 56t-29.5 24.5t-29.5 14.5t-13.5 29q0 60 157 60q148 0 148 -58q0 -18 -11.5 -28.5t-26 -15t-26 -21.5t-11.5 -48v-270q0 -17 -0.5 -30.5t-7.5 -45t-18.5 -56t-37.5 -55t-61 -50.5t-92 -34t-128 -14q-261 0 -330 171q-21 50 -21 117q0 14 1 28 v231q1 21 -8.5 37t-22 24t-23 20.5t-10.5 27.5v2q0 8 1 14t11 17t28.5 18t58.5 13t96 6q113 0 154.5 -18t41.5 -51q0 -24 -11.5 -33.5t-25.5 -11t-26.5 -21.5t-14.5 -61v-184q0 -195 151 -195q32 0 58 8t41.5 18t26.5 27t15.5 28t7 29t2.5 21v11z" />
<glyph unicode="V" horiz-adv-x="844" d="M722 532l-225 -456q-28 -54 -45 -69q-21 -18 -50 -18q-21 0 -35.5 5t-26 18.5t-17 23.5t-16.5 33l-199 440q-23 50 -36 64.5t-42 18.5q-30 4 -30 39q0 27 24 45t63.5 25t66.5 9t56 2q59 0 101 -6t61 -12t29 -18t10.5 -16t0.5 -13q0 -20 -24 -37.5t-24 -29.5q0 -6 4 -18 t12 -30l14 -32l18 -38l15 -33q2 -3 7 -15t9 -20t11 -15t15 -7q11 -1 22 8.5t17 19.5l13 27l10 20q58 116 58 138q0 15 -13 23l-25 17q-13 9 -13 26q0 61 166 61q88 0 117.5 -14.5t29.5 -43.5q0 -38 -44 -43q-34 -4 -46 -14t-39 -65z" />
<glyph unicode="W" horiz-adv-x="1093" d="M673 58l-92 219q-1 1 -4.5 10.5t-6 15t-7.5 11t-11 5.5q-11 0 -19.5 -13.5t-22.5 -50.5l-10 -26l-61 -151q-1 -4 -4 -10q-9 -23 -14 -33t-15.5 -23t-25.5 -18t-37 -5q-20 0 -34.5 5.5t-24.5 18.5t-16 24t-14 33l-186 475q-9 24 -22 37t-22.5 15.5t-16.5 12.5t-7 31 q0 71 181 71q103 0 137 -15t34 -49q0 -15 -11.5 -32t-11.5 -33q0 -10 5 -28.5t11 -34.5l12 -32q6 -17 7 -19q27 -86 50 -86t52 87q13 26 13 39q0 11 -16 44t-35 44q-37 19 -37 49v1q0 6 0.5 11t10.5 16t28.5 18.5t59 13.5t96.5 6q55 0 94 -5t57 -11.5t27.5 -17t10.5 -15 t1 -13.5q0 -18 -22.5 -37t-22.5 -30q0 -9 6 -26t12 -30.5l15 -32.5l11 -22q1 -1 5 -11l7 -17l8 -16q5 -11 10 -17.5t11 -11.5t12 -5q22 0 49.5 81.5t27.5 102.5q0 14 -10 22t-22.5 11t-22.5 14t-10 29q0 20 14 33.5t40 18t42 5.5t41 1h6q116 0 116 -61q0 -21 -11 -32 l-29 -28q-18 -17 -29 -46l-172 -450q-13 -34 -23 -53t-30.5 -36t-47.5 -17q-34 0 -51 16.5t-33 52.5z" />
<glyph unicode="X" horiz-adv-x="835" d="M610 532l-69 -88q-14 -14 -14 -21q0 -5 14 -22l187 -235q17 -21 38 -33.5t35 -16.5t24 -15t10 -31q0 -12 -2 -20t-15 -21t-37.5 -20.5t-74 -13.5t-119.5 -6h-8h-6q-175 0 -175 61q0 13 6.5 22.5t14 13.5t14 10t6.5 13q0 25 -56 100q-1 1 -4.5 5.5t-6 6.5t-6.5 2 q-9 0 -41.5 -47t-32.5 -58q0 -9 21 -25t21 -41q0 -63 -167 -63q-97 0 -132 18.5t-35 49.5q0 21 14.5 35t43.5 14t54 18t66 70l92 115q14 19 14 21q0 8 -14 22l-142 184q-17 22 -38.5 34t-36.5 15.5t-25.5 13.5t-10.5 30q0 10 2 17.5t15 21t37 22t74 15.5t119 7 q102 0 138 -14.5t36 -48.5q0 -19 -9 -29.5t-18 -16.5t-9 -13q0 -11 19 -36t28 -25t30.5 26.5t21.5 34.5q0 9 -9.5 16t-19 17t-9.5 28q0 19 11.5 31.5t51 21t109.5 8.5q146 0 146 -63q0 -13 -5 -22.5t-9.5 -14t-17.5 -8t-18 -4t-22 -1.5q-49 -4 -99 -67z" />
<glyph unicode="Y" horiz-adv-x="819" d="M697 572l-123 -135q-31 -39 -39 -68.5t-8 -86.5q0 -121 14 -151q5 -11 22.5 -19.5t31 -19.5t13.5 -31q0 -72 -207 -72q-222 0 -222 72q0 23 14.5 33t34 18t26.5 24q16 37 16 166q0 42 -8.5 64t-35.5 57l-113 131q-20 23 -50 36t-47 23t-17 31q0 11 1 16.5t12 17 t32.5 17.5t68 11.5t112.5 5.5q59 0 101 -4.5t62 -10t30.5 -15.5t11.5 -15.5t1 -15.5q0 -14 -14 -30.5t-14 -26.5q0 -18 23.5 -51.5t41.5 -33.5q19 0 43.5 29t24.5 47q0 13 -14.5 30.5t-14.5 37.5q0 59 154 59q92 0 125 -12.5t33 -46.5q0 -22 -12.5 -32t-29.5 -12 t-40.5 -10.5t-39.5 -26.5z" />
<glyph unicode="Z" horiz-adv-x="721" d="M638 609l-215 -370q-44 -73 -44 -91q0 -23 69 -23q49 0 79.5 13.5t43 33t20 39t19.5 33t32 13.5q72 0 72 -77q0 -75 -35.5 -132t-65.5 -57q-10 0 -45 5q-42 4 -58 4h-422q-4 0 -16.5 -0.5t-17.5 0t-14 2t-12.5 5.5t-7 12t-3.5 19q0 15 21 50l252 428q18 29 18 38 q0 29 -66 29q-35 0 -58.5 -14t-34.5 -33.5t-19.5 -39.5t-21.5 -34t-32 -14q-29 0 -49 26t-20 57q0 35 18.5 78t40.5 71t34 28q2 0 5.5 -1t11 -2.5t15.5 -3.5q49 -7 119 -7q27 0 194 9q131 9 166 9q23 0 37 -12t14 -34q0 -12 -24 -57z" />
<glyph unicode="[" horiz-adv-x="524" d="M321 628v-555q0 -56 7 -67q11 -18 59 -18q11 0 31 2t30 2q19 0 34 -8.5t15 -26.5q0 -14 -5 -24.5t-18 -16.5t-24.5 -9.5t-37 -5.5t-41.5 -2h-51h-16q-95 0 -115 5q-39 10 -51 54q-9 36 -9 115v555q0 34 1.5 58t5 43t9 31t14 21t19.5 12.5t26 6.5q11 2 24 2h10h19h21h26 q122 0 152 -9q41 -12 41 -49q0 -18 -15 -26.5t-34 -8.5q-10 0 -30 2t-31 2q-47 0 -56.5 -14t-9.5 -61v-10z" />
<glyph unicode="\" horiz-adv-x="496" d="M393 -56l-276 511q-24 45 -55 95.5t-46 77.5q-16 28 -16 37q0 36 85 36q16 0 25.5 -2t18 -11t12 -15t14 -28t18.5 -36l276 -511q24 -45 56 -96l47 -77q16 -26 16 -36q0 -37 -94 -37q-13 0 -21.5 2t-15.5 10.5t-11 15.5t-14 27.5t-19 36.5z" />
<glyph unicode="]" horiz-adv-x="524" d="M203 73v555q0 56 -7 67q-11 18 -59 18q-11 0 -31 -2t-30 -2q-19 0 -34 8.5t-15 26.5q0 14 5 24.5t18 16.5t24.5 9.5t37 5.5t41.5 2h51h16q95 0 115 -5q39 -10 51 -54q9 -36 9 -115v-555q0 -34 -1.5 -58t-5 -43t-9 -31t-14 -21t-19.5 -12.5t-26 -6.5q-11 -2 -24 -2h-10 q-9 1 -19 1t-21 -1h-26q-122 0 -152 9q-41 12 -41 49q0 18 15 26.5t34 8.5q10 0 30 -2t31 -2q47 0 56.5 14t9.5 61v10z" />
<glyph unicode="^" d="M429 204l-114 262l-114 -262q-9 -23 -19 -30.5t-28 -7.5h-32q-16 0 -32.5 5t-16.5 15q0 9 11 38l178 409q1 4 4 6.5t7 4t7 3t9 2t9 0.5t9 0.5t8 0.5t8 -0.5t9 -0.5t9 -0.5t9 -2t7 -3t7 -4t4 -6.5l178 -409q11 -29 11 -38q0 -10 -16.5 -15t-32.5 -5h-31q-19 0 -29 7.5 t-19 30.5z" />
<glyph unicode="_" horiz-adv-x="500" d="M0 -75h500v-50h-500v50z" />
<glyph unicode="`" horiz-adv-x="408" d="M284 561q-48 0 -90.5 14.5t-68 34.5t-40.5 39t-15 29q0 30 42 43t80 13q24 0 54 -7t30 -23q0 -6 -4 -12.5t-4 -10.5q0 -12 35 -36t35 -47q0 -37 -54 -37z" />
<glyph unicode="a" horiz-adv-x="596" d="M279 215q-25 0 -41 -19.5t-16 -44.5q0 -21 11.5 -37.5t31.5 -16.5q41 0 41 71q0 16 -0.5 23t-7 15.5t-19.5 8.5zM522 339v-100q0 -41 4.5 -67t11 -34t14.5 -11.5t14.5 -2t11 -3t4.5 -16.5q0 -43 -48 -81t-103 -38q-34 0 -55 13t-31.5 25.5t-19.5 12.5q-5 0 -11.5 -3.5 t-17 -10.5t-18.5 -11q-44 -26 -98 -26q-68 0 -117 36.5t-49 106.5q0 62 61.5 110.5t182.5 48.5q16 0 20.5 0.5t12.5 3t10 10t2 20.5q0 102 -47 102q-20 0 -37.5 -17t-29.5 -37t-35 -37t-53 -17q-24 0 -40 15.5t-16 39.5q0 58 90.5 99t173.5 41q21 0 44.5 -3t55 -14.5 t55.5 -29t41 -50t17 -75.5z" />
<glyph unicode="b" horiz-adv-x="665" d="M298 658l-6 -193q0 -16 7 -16q2 0 8 5l17 12q11 8 22 14q50 31 105 31q81 0 138.5 -62t57.5 -159q0 -129 -86 -216.5t-214 -87.5q-43 0 -82 10t-61 22l-38 23q-16 10 -20 10q-6 0 -26 -7.5t-39 -7.5q-30 0 -30 20q0 4 5 22t10 58.5t5 97.5v266q0 19 -11.5 30t-26 14.5 t-26 14.5t-11.5 30q0 45 100 78.5t177 33.5q13 0 19 -7t6.5 -14t-0.5 -22zM422 203q0 21 -3.5 44.5t-11 49.5t-24.5 43t-40 17q-30 0 -39.5 -19t-9.5 -51q0 -97 5 -141.5t14.5 -56.5t31.5 -12q77 0 77 126z" />
<glyph unicode="c" horiz-adv-x="553" d="M17 250q0 109 84 185t209 76q105 0 167 -47.5t62 -105.5q0 -42 -28 -70.5t-70 -28.5q-36 0 -55.5 19.5t-24 42.5t-18 42.5t-39.5 19.5q-31 0 -49.5 -26t-18.5 -59q0 -58 38.5 -103.5t95.5 -45.5q37 0 68.5 13t36.5 13q19 0 32 -17.5t13 -36.5q0 -48 -65.5 -91.5 t-164.5 -43.5q-115 0 -194 75t-79 189z" />
<glyph unicode="d" horiz-adv-x="683" d="M399 278q0 124 -58 124q-31 0 -50 -32.5t-24 -65.5t-5 -64q0 -29 5 -55t22.5 -50t46.5 -24q63 0 63 155v3v9zM620 647v-478q0 -24 8.5 -38t18 -18.5t18 -15t8.5 -27.5q0 -26 -32.5 -44t-80 -25t-75.5 -9.5t-42 -2.5q-17 0 -24 8.5t-6.5 19t-3 19t-14.5 8.5q-4 0 -10 -3.5 t-17.5 -12t-19.5 -13.5q-48 -29 -98 -29q-95 0 -164 83t-69 179q0 102 72.5 182.5t173.5 80.5q30 0 57 -7.5t43 -15t19 -7.5q16 0 16 44q0 21 -11.5 31.5t-25 13t-25 11.5t-11.5 27q0 25 39 45t90 29.5t86.5 14t42.5 4.5q37 0 37 -54z" />
<glyph unicode="e" horiz-adv-x="557" d="M481 230h-217h-6h-6q-2 0 -5.5 -0.5t-5 -2t-3 -4.5t-1.5 -7q0 -36 37 -64t75 -28q44 0 86.5 22.5t46.5 22.5q15 0 27 -17t12 -33q0 -54 -78 -93.5t-153 -39.5q-128 0 -200.5 77t-72.5 182q0 113 83 189.5t198 76.5q60 0 109.5 -21.5t77.5 -54t43 -66.5t15 -64 q0 -45 -16.5 -60t-45.5 -15zM292 326h13h15q3 0 11 1.5t11 4.5t6 9t3 15q0 28 -16 46t-43 18q-24 0 -42 -20.5t-18 -45.5q0 -10 3 -16.5t11 -9t13 -2.5q2 -1 6.5 -1t10.5 1h16z" />
<glyph unicode="f" horiz-adv-x="446" d="M83 151l8 108v6q0 41 -40 41q-2 0 -9 -0.5t-11.5 0t-10.5 1.5t-9 4t-3 8v33v15q0 25 2 32q4 9 22 10q28 2 28 19q0 4 -19 43t-19 76q0 56 36 93.5t84 51.5t103 14q57 0 99.5 -13.5t63 -35t29.5 -41.5t9 -39q0 -32 -22.5 -54.5t-53.5 -22.5q-29 0 -52.5 14t-36 31t-30 31 t-36.5 14q-15 0 -24.5 -10.5t-9.5 -25.5q0 -27 26.5 -49.5t57.5 -42t38 -36.5q4 -11 14 -11q9 0 26 1t27.5 1t22 -1.5t17 -6t4.5 -13.5l-5 -73q-1 -17 -26 -17q-47 0 -58 -9t-11 -56q0 -52 10 -89q6 -20 21.5 -30.5t30 -13.5t26 -14t11.5 -32q0 -10 -1.5 -17t-13.5 -18.5 t-34.5 -19t-68 -13t-109.5 -5.5q-177 0 -177 71q0 19 11 29.5t24.5 14t25.5 15.5t13 32z" />
<glyph unicode="g" horiz-adv-x="607" d="M350 317q0 26 -4 49t-19.5 44.5t-41.5 21.5q-27 0 -41.5 -21.5t-14.5 -50.5q0 -24 4 -49t19 -48.5t38 -23.5q31 0 45.5 22.5t14.5 55.5zM162 -50q0 -35 38.5 -51t78.5 -16q108 0 108 51q0 15 -11.5 22.5t-27.5 7.5q-5 0 -36.5 -3t-49.5 -3q-13 0 -48.5 4t-39.5 4 q-12 0 -12 -16zM600 8q0 -36 -18 -71.5t-55 -67.5t-104 -52t-154 -20q-128 0 -191.5 39.5t-63.5 94.5q0 25 14 40.5t27.5 22t13.5 11.5q0 3 -27 31t-27 54q0 31 20.5 54.5t40.5 35.5t20 16q0 3 -17 21t-34 48t-17 63q0 57 43 99t98.5 60t110.5 18q28 0 84 -9.5t71 -9.5 q33 0 62 13t45.5 26.5t21.5 13.5q16 0 24.5 -16t8.5 -33q0 -25 -14 -49t-28 -39.5t-14 -18.5q0 -5 1.5 -15.5t1.5 -15.5q0 -39 -17.5 -70.5t-45 -51.5t-63.5 -34t-71 -19.5t-70 -5.5q-8 0 -25.5 1.5t-26.5 1.5q-27 0 -27 -27q0 -14 12.5 -23t26.5 -11.5t28 -2.5t90 8.5 t97 8.5q73 0 110.5 -34.5t37.5 -84.5z" />
<glyph unicode="h" horiz-adv-x="713" d="M650 310l4 -161q0 -29 7.5 -46.5t17 -22.5t17 -13t7.5 -21q0 -57 -165 -57q-152 0 -152 51q0 13 16 32.5t20 46.5q7 37 7 100q0 27 -1.5 45t-7.5 44.5t-22 40.5t-41 14q-18 0 -29.5 -6.5t-17.5 -14t-9 -24t-3 -24.5v-28v-116q0 -28 6 -45.5t14 -23t14 -13.5t6 -20 q0 -59 -152 -59q-176 0 -176 61q0 13 6.5 21.5t15 12.5t18.5 17.5t16 35.5q12 47 12 234q0 26 -2 73.5t-2 62.5q-1 24 -10.5 38t-21 18t-21 13t-9.5 24q0 36 68.5 61t123 32.5t69.5 7.5q21 0 26.5 -7.5t5.5 -30.5l-6 -190v-10q0 -41 24 -41q9 0 21.5 14t25 30.5t41.5 30.5 t67 14q27 0 49.5 -5t39 -13t29.5 -20.5t21.5 -24t15 -27.5t9.5 -28t5 -27.5t2.5 -23.5t0.5 -20v-12z" />
<glyph unicode="i" horiz-adv-x="375" d="M305 464v-279q0 -40 9 -62t20.5 -26.5t20.5 -13.5t9 -26q0 -68 -172 -68q-49 0 -84.5 4.5t-53 10.5t-27.5 15.5t-12 16.5t-2 16q0 20 24 38t29 31q10 26 11 108v18q0 67 -7 91q-3 11 -13 19t-20.5 12t-18.5 13.5t-8 24.5q0 32 66.5 57t124.5 34.5t73 9.5q20 0 25.5 -11.5 t5.5 -32.5zM300 638q0 -27 -21.5 -47.5t-54 -31t-62.5 -15t-55 -4.5q-36 0 -61.5 17t-25.5 51q0 23 21 42t51.5 29.5t60 16t50.5 5.5q38 0 67.5 -14.5t29.5 -48.5z" />
<glyph unicode="j" horiz-adv-x="388" d="M318 455v-430q0 -123 -32 -164q-26 -31 -76 -47.5t-96 -16.5q-41 0 -79.5 17.5t-38.5 52.5q0 13 9.5 22.5t22.5 9.5q5 0 15 -1.5t14 -1.5q11 0 18 9t7 20q0 10 -2.5 22t-2.5 30v313q0 32 -10 48.5t-22.5 19t-22.5 10t-10 25.5q0 27 28.5 48.5t67 33.5t81 20t67 10.5 t28.5 2.5q17 0 25 -8.5t8.5 -16.5t0.5 -28zM306 638q0 -27 -21.5 -47.5t-54 -31t-62.5 -15t-55 -4.5q-36 0 -61.5 17t-25.5 51q0 23 21 42t51.5 29.5t60 16t50.5 5.5q38 0 67.5 -14.5t29.5 -48.5z" />
<glyph unicode="k" horiz-adv-x="771" d="M461 33l-93 119q-27 40 -38 40q-10 0 -10 -28v-10q0 -18 3 -30q4 -16 10 -22.5t12.5 -11t11 -12t4.5 -20.5q0 -14 -4 -23.5t-18.5 -21t-50 -18t-90.5 -6.5h-10q-27 0 -40.5 0.5t-37 2t-36 5.5t-26 10.5t-19.5 18t-6 26.5q0 16 8.5 24t18.5 11t19 18.5t10 43.5 q8 187 8 209v143q0 27 -12 39t-26.5 12t-26.5 7t-12 26q0 30 60 58.5t124 43t95 14.5q19 0 24 -9.5t4 -28.5l-5 -212q-1 -19 -1 -34q0 -26 3 -37q3 -18 20 -18q13 0 46.5 19t33.5 30q0 6 -10 18.5t-10 23.5q0 55 137 55q150 0 150 -63q0 -20 -10 -26.5t-37 -13.5t-50 -21 q-49 -24 -49 -37q0 -27 136 -192q18 -22 44.5 -39t41 -28.5t14.5 -29.5q0 -58 -100 -58h-141q-30 0 -40.5 5t-28.5 28z" />
<glyph unicode="l" horiz-adv-x="384" d="M313 373v-194q0 -54 4 -67q4 -15 18.5 -21.5t26 -14t11.5 -25.5q0 -62 -152 -62h-5h-8h-8h-5q-172 0 -172 66q0 18 24.5 29.5t30.5 29.5q13 41 13 215q0 124 -7 159q-5 25 -18 39.5t-25 19.5t-21.5 16t-9.5 30q0 30 39.5 53t93 34t91.5 16t50 5q42 0 42 -52q0 -6 -3 -46 t-6.5 -103.5t-3.5 -126.5z" />
<glyph unicode="m" horiz-adv-x="1014" d="M70 187v92q0 70 -23 91q-3 2 -12 7.5t-12 11t-3 17.5q0 33 65 58.5t119 34.5t66 9q27 0 27 -43v-6v-9v-8q0 -5 1 -8l4 -8q1 -3 4.5 -5t7.5 -2t11 6t19.5 18t23.5 21q56 44 127 44q41 0 69 -14t38 -30l20 -31q8 -14 14 -14q4 0 10 6l20 18l25 21q60 44 121 44 q72 0 113 -38.5t41 -111.5v-211q0 -33 18.5 -57t18.5 -35q0 -66 -153 -66q-17 0 -38 2t-48 7.5t-45 18.5t-18 31q0 16 17.5 39t17.5 55v90v9q0 24 -1 38.5t-5 35.5t-15.5 32t-30.5 11q-8 0 -15 -2t-12 -5t-9 -9l-6 -10q-3 -4 -4.5 -12.5t-2.5 -13t-1.5 -14.5t-0.5 -14v-13 v-12v-62q0 -42 5.5 -68t12.5 -34t12.5 -17t5.5 -20q0 -63 -156 -63q-54 0 -88 4.5t-48.5 13.5t-18 17t-3.5 21q0 17 8 26t17.5 14t16.5 27q6 20 6 53v10v57v8q0 22 -1 36.5t-5 36.5t-15.5 33.5t-30.5 11.5q-8 0 -15 -2t-12 -5t-9 -9l-7 -10q-2 -4 -3.5 -12.5t-2.5 -13 t-1.5 -14.5t-0.5 -14v-13v-12v-81q0 -53 13.5 -82t13.5 -40q0 -61 -160 -61q-157 0 -157 52q0 14 9.5 24.5t20.5 18.5t20.5 34t9.5 69z" />
<glyph unicode="n" horiz-adv-x="705" d="M298 244v-77q0 -42 8.5 -63t17 -31t8.5 -24q0 -60 -174 -60q-142 0 -142 60q0 16 7.5 23t16 9.5t16.5 20t9 50.5l4 150q1 25 -8 40t-20.5 19.5t-21 15.5t-9.5 28q0 34 108.5 68.5t141.5 34.5q16 0 26 -11.5t10 -27.5q0 -3 -0.5 -9t-0.5 -9q0 -26 20 -26q7 0 13 5t16 18 l16 19q41 41 107 41q43 0 74.5 -11t50.5 -33.5t30.5 -46.5t16 -61.5t6 -65t2 -70.5t2.5 -67q2 -27 9.5 -43.5t15.5 -22t14.5 -15t6.5 -23.5q0 -9 -1 -13.5t-10 -15t-26.5 -16t-55.5 -10.5t-91 -5q-132 0 -132 54q0 15 17.5 31.5t20.5 52.5q1 8 3.5 34.5t3 43t0.5 42.5 q1 3 1 6q0 22 -4 37q-4 17 -11 34t-21 25.5t-33 8.5q-10 0 -18.5 -2t-14.5 -8l-11 -9q-4 -4 -6.5 -14t-4.5 -14.5t-2.5 -17.5t-0.5 -16v-17v-16z" />
<glyph unicode="o" horiz-adv-x="633" d="M292 -14q-116 0 -195 65.5t-79 179.5q0 128 95.5 204t226.5 76q124 0 199.5 -80t75.5 -181q0 -78 -50.5 -140t-123.5 -93t-149 -31zM385 174q0 21 -4.5 54t-13.5 72t-27.5 66t-42.5 27t-37 -19q-12 -16 -12 -35v-6q2 -31 6.5 -62t14 -69.5t28 -63.5t42.5 -26h3 q24 0 33 16q10 17 10 46z" />
<glyph unicode="p" horiz-adv-x="699" d="M435 236q0 127 -73 127q-20 0 -29 -11t-14 -53.5t-5 -132.5q0 -24 12 -34.5t39 -10.5q70 0 70 115zM88 143v55q0 122 -11 133q-4 4 -22 7t-31.5 14t-13.5 36q0 31 55.5 60.5t119.5 44.5t105 15q17 0 22.5 -6.5t5.5 -23.5q0 -21 11 -21q4 0 25.5 13.5t56 27t70.5 13.5 q92 0 146.5 -76t54.5 -172q0 -68 -29 -131t-85.5 -104.5t-126.5 -41.5q-21 0 -44.5 6t-39.5 12.5t-19 6.5q-16 0 -16 -32q0 -26 9.5 -41t21.5 -19.5t21.5 -14.5t9.5 -26q0 -26 -26 -41t-51.5 -18.5t-52.5 -3.5q-98 0 -168.5 30.5t-70.5 69.5q0 15 7 24t16 12t19.5 10.5 t16.5 20.5q14 29 14 161z" />
<glyph unicode="q" horiz-adv-x="681" d="M391 241q0 2 0.5 21.5t0 29t-2 29t-5.5 30.5t-10 23.5t-16.5 18.5t-24.5 6q-8 0 -18 -5t-21 -17t-18.5 -38t-7.5 -63q0 -75 24 -118t56 -43q10 0 18 5t12.5 15t7.5 19t4 24t1.5 23.5t0 23t-0.5 16.5zM17 250q0 124 86 192.5t214 68.5q42 0 100.5 -12t65.5 -12q21 0 55 12 t53 12q45 0 45 -36q0 -13 -5 -58.5t-10 -129.5t-5 -191q0 -16 0.5 -33t1.5 -38t1 -33q1 -39 9.5 -59.5t18 -23.5t17 -12t7.5 -27q0 -67 -137 -67q-26 0 -57.5 3.5t-71.5 12t-66.5 27.5t-26.5 46q0 16 11 25.5t24 13.5t24 19.5t11 42.5t-14 27q-4 0 -43 -17t-80 -17 q-106 0 -167 77.5t-61 186.5z" />
<glyph unicode="r" horiz-adv-x="562" d="M78 243v60q0 33 -9.5 49t-21.5 17t-21.5 9.5t-9.5 28.5q0 27 36 48.5t83.5 32t81 15.5t42.5 5q27 0 33.5 -8t9.5 -36q0 -1 0.5 -5.5t0.5 -7t0.5 -6.5t2.5 -7l2 -4q2 -3 4.5 -4t6.5 -1q7 0 17.5 12.5t21.5 27t34 27t52 12.5q50 0 80.5 -33t30.5 -83t-36.5 -85t-86.5 -35 q-28 0 -49.5 14t-35.5 28.5t-24 14.5q-6 0 -10 -3.5t-6.5 -10.5t-4 -13.5t-2 -16.5t-0.5 -16v-15v-10q0 -49 8 -110q2 -14 15.5 -22t28 -10.5t26.5 -13.5t12 -31q0 -43 -49 -55.5t-149 -12.5q-182 0 -182 67q0 23 26 42.5t31 34.5q11 34 11 110z" />
<glyph unicode="s" horiz-adv-x="501" d="M229 511q22 0 60 -6q31 -7 41 -7q11 0 27 7q18 6 27 6q32 0 62 -49t30 -84q0 -20 -14.5 -33.5t-34.5 -13.5q-24 0 -48 19.5t-45.5 39.5t-39.5 20q-14 0 -25 -10t-11 -24q0 -17 22.5 -33t55 -32t65 -35.5t55 -53.5t22.5 -77q0 -69 -57.5 -114t-137.5 -45q-30 0 -74 7 q-50 6 -53 6q-6 0 -20 -2q-12 -2 -19 -2q-27 0 -44 19q-19 22 -34.5 58.5t-15.5 64.5q0 47 38 47q21 0 66 -49.5t74 -49.5q16 0 27.5 8t11.5 24t-20 30.5t-49 29.5t-58 35t-49 55t-20 81q0 73 53 118t132 45z" />
<glyph unicode="t" horiz-adv-x="487" d="M324 365v-149q0 -83 55 -83q17 0 38.5 11.5t28.5 11.5q14 0 24 -15.5t10 -30.5q0 -48 -68.5 -86t-146.5 -38q-19 0 -38.5 3.5t-46 15t-46.5 30t-34 53t-14 79.5v206q0 25 -5 28q-2 1 -39 1q-40 0 -44 4q-5 5 -5 40v8v8q0 2 0.5 5.5t3 6.5t5.5 5l228 145q7 4 11 6.5 t9.5 3.5t6.5 1h11h14q33 0 37 -4q5 -6 5 -38q0 -67 3 -74q3 -8 36 -8h70q32 0 37.5 -6.5t5.5 -41.5q0 -42 -8 -51.5t-38 -9.5h-69q-26 0 -31.5 -5t-5.5 -32z" />
<glyph unicode="u" horiz-adv-x="712" d="M301 470v-254q0 -102 57 -102q15 0 26 4.5t17.5 15.5t11 20t6 27t2 25.5t0 27t-0.5 22.5q0 82 -4 108q-4 25 -30.5 39.5t-26.5 35.5q0 27 55.5 44t103 21t80.5 4q51 0 51 -56q0 -16 -1 -47.5t-1 -47.5v-201q0 -20 8.5 -31t19 -13.5t19 -11t8.5 -24.5q0 -24 -28 -42 t-68.5 -27t-75.5 -13.5t-60 -4.5q-26 0 -37 9.5t-10 20.5t-2.5 20.5t-16.5 9.5q-5 0 -11.5 -3.5t-19 -12.5t-20.5 -14q-48 -30 -100 -30q-37 0 -65.5 7.5t-46.5 21.5t-31 33t-18.5 42t-9 49.5t-3.5 55.5v58v33q0 43 -7 68t-17.5 33t-20.5 12.5t-17 12.5t-7 26q0 22 37.5 37 t91.5 20.5t84.5 7.5t46.5 2q20 0 25.5 -8.5t5.5 -29.5z" />
<glyph unicode="v" horiz-adv-x="659" d="M245 59l-167 311q-10 18 -25.5 27.5t-28 12t-22 11.5t-9.5 27q0 16 9.5 27t57 22t134.5 11q169 0 169 -51q0 -17 -19 -35.5t-19 -30.5q0 -20 22.5 -59t39.5 -39q23 0 46 42.5t23 62.5q0 12 -17 30.5t-17 33.5q0 46 128 46h6h6q104 0 104 -44q0 -16 -11 -25t-25 -12.5 t-31 -15t-27 -29.5l-164 -319q-40 -77 -83 -77q-41 0 -80 73z" />
<glyph unicode="w" horiz-adv-x="1039" d="M603 99l-51 82l-4 7q-5 7 -6.5 9.5t-6 7.5t-8.5 7t-8 2q-3 0 -6.5 -1t-6.5 -3t-5.5 -4t-5.5 -6l-5 -6q-2 -2 -4.5 -6.5t-3.5 -6.5t-3.5 -6.5t-3.5 -5.5l-73 -127q-8 -13 -12 -18.5t-12.5 -15.5t-17.5 -14.5t-20 -4.5t-21 5t-16 10t-16 18t-12 16l-11 19l-190 309 q-11 17 -26 26.5t-26.5 11t-20 10t-8.5 25.5q0 22 23.5 37.5t60.5 21.5t63.5 8t51.5 2q160 0 160 -60q0 -13 -9.5 -26.5t-9.5 -18.5q0 -16 27 -61t44 -45q12 0 29 27t17 39q0 20 -15.5 33.5t-31 25t-15.5 26.5q0 8 2 14t13 15.5t30.5 15.5t59.5 10.5t96 4.5q145 0 145 -53 q0 -20 -16 -36t-16 -26q0 -17 22.5 -57.5t37.5 -40.5q19 0 43.5 43.5t24.5 54.5t-14 29t-14 35q0 51 122 51t122 -50q0 -19 -10.5 -28t-25 -11.5t-35 -17.5t-35.5 -43l-128 -251q-63 -118 -105 -118q-36 0 -100 104q-3 4 -4 6z" />
<glyph unicode="x" horiz-adv-x="632" d="M482 231l68 -98q16 -20 33 -33t26.5 -16.5t16 -11t6.5 -21.5q0 -11 -1.5 -17t-12 -16t-30 -15t-60 -9.5t-97.5 -4.5q-1 0 -23 -1h-18h-12q-9 1 -30.5 2.5t-33 5.5t-25 10t-20 16t-6.5 24q0 19 20.5 30t20.5 26t-20.5 45.5t-33.5 30.5t-36.5 -38t-23.5 -54 q0 -9 11.5 -22.5t11.5 -30.5q0 -44 -107 -44q-106 0 -106 49q0 18 8.5 25t21 8t31 13t33.5 37l81 132q12 12 12 22q0 3 -3 7.5t-7.5 9t-4.5 5.5l-64 79q-14 18 -39.5 26t-41 16t-15.5 29q0 61 215 61h8h6q144 0 144 -50q0 -11 -10 -26.5t-10 -22.5q0 -10 15.5 -31.5 t24.5 -21.5q10 0 27.5 24t17.5 34q0 7 -10.5 22.5t-10.5 24.5q0 47 106 47q94 0 94 -48q0 -15 -14.5 -25t-37 -22t-33.5 -29l-57 -83q-24 -30 -24 -38q0 -3 4 -10t9 -14t6 -8z" />
<glyph unicode="y" horiz-adv-x="651" d="M504 247l-59 -163q-17 -46 -32 -79t-39.5 -70t-51.5 -60t-66.5 -38.5t-86.5 -15.5q-61 0 -109 31t-48 89q0 38 25.5 65t63.5 27q32 0 50.5 -16.5t23.5 -36.5t13 -36.5t21 -16.5q19 0 29 15t10 34q0 24 -32 91l-140 293q-8 16 -27.5 25.5t-34 19t-14.5 29.5q0 11 3.5 19.5 t17 19.5t36.5 18t67.5 12t104.5 5q128 0 128 -61q0 -14 -11.5 -30.5t-11.5 -28.5q0 -27 24 -67.5t37 -40.5q20 0 35.5 35t15.5 58q0 24 -16 42t-16 34q0 19 14.5 31.5t37.5 18t41.5 7.5t36.5 2q107 0 107 -51q0 -20 -10 -31t-24 -15t-32 -15.5t-29 -30.5q-22 -36 -52 -118z " />
<glyph unicode="z" horiz-adv-x="540" d="M483 405l-124 -220q-22 -44 -22 -52q0 -25 36 -25q28 0 45.5 13.5t24 29.5t16.5 29.5t24 13.5q25 0 37.5 -19.5t12.5 -46.5q0 -54 -36 -99t-64 -45q-4 0 -26.5 8t-64.5 8h-244q-81 0 -81 38q0 8 4 17.5t8 16t11 17t9 14.5l121 195q39 63 39 76q0 21 -44 21 q-24 0 -40.5 -13t-23.5 -29t-19.5 -29t-29.5 -13q-22 0 -33.5 17t-11.5 40q0 49 31.5 98.5t56.5 49.5q7 0 23.5 -5t59.5 -9.5t116 -4.5h111q27 2 46 2q30 0 39 -5q17 -9 17 -29q0 -17 -24 -60z" />
<glyph unicode="{" horiz-adv-x="524" d="M341 222v-201q0 -25 9 -36.5t34 -11.5q23 0 32 -12.5t9 -24.5q0 -13 -9 -25t-32 -12h-93q-142 0 -142 141v229q0 25 -9 36.5t-34 11.5q-23 0 -32 12.5t-9 26.5q0 13 9 25.5t32 12.5q25 0 34 11.5t9 37.5v218q0 141 142 141h93q23 0 32 -12t9 -25q0 -12 -9 -24.5 t-32 -12.5q-25 0 -34 -11.5t-9 -36.5v-191q0 -61 -19.5 -92.5t-75.5 -39.5v-3q56 -7 75.5 -39t19.5 -93z" />
<glyph unicode="|" horiz-adv-x="496" d="M190 -250v1000h116v-1000h-116z" />
<glyph unicode="}" horiz-adv-x="524" d="M183 21v201q0 61 19.5 93t75.5 39v3q-56 8 -75.5 39.5t-19.5 92.5v191q0 25 -9 36.5t-34 11.5q-23 0 -32 12.5t-9 24.5q0 13 9 25t32 12h93q142 0 142 -141v-218q0 -26 9 -37.5t34 -11.5q23 0 32 -12.5t9 -25.5q0 -14 -9 -26.5t-32 -12.5q-25 0 -34 -11.5t-9 -36.5v-229 q0 -141 -142 -141h-93q-23 0 -32 12t-9 25q0 12 9 24.5t32 12.5q25 0 34 11.5t9 36.5z" />
<glyph unicode="~" d="M469 349q42 0 65 -12.5t23 -52.5q0 -48 -33.5 -83.5t-79.5 -35.5q-44 0 -125 33.5t-96 33.5q-8 0 -10 -3.5t-2 -13.5q0 -26 -14.5 -38t-35.5 -12q-42 0 -65 12.5t-23 52.5q0 48 33.5 83.5t79.5 35.5q44 0 125 -33.5t96 -33.5q8 0 10 3.5t2 13.5q0 26 14.5 38t35.5 12z " />
<glyph unicode="&#xa1;" horiz-adv-x="324" d="M273 406q0 -46 -32.5 -78.5t-78.5 -32.5t-78.5 32.5t-32.5 78.5t32.5 78.5t78.5 32.5t78.5 -32.5t32.5 -78.5zM42 -59q0 92 51 192q12 26 32.5 55t36.5 29t36.5 -29t32.5 -55q51 -100 51 -192q0 -62 -30.5 -107.5t-89.5 -45.5t-89.5 45.5t-30.5 107.5z" />
<glyph unicode="&#xa2;" d="M268 548q0 31 7.5 37t39.5 6h11h12q4 0 10 -0.5t8 -2.5l6 -6q4 -4 5 -9.5t1 -13.5v-5v-6v-4v-4l2 -3q1 -2 2.5 -2.5t3.5 -1.5t4.5 -1.5t5.5 -0.5q61 -7 112.5 -45t51.5 -94q0 -39 -27 -63.5t-65 -24.5q-31 0 -47.5 17.5t-20.5 38.5t-16.5 38.5t-36.5 17.5 q-30 0 -45 -25.5t-15 -58.5q0 -49 36 -88t85 -39q27 0 59 12t36 12q17 0 28 -16.5t11 -34.5q0 -33 -42 -68.5t-108 -47.5q-4 -1 -7 -2.5t-4.5 -3t-2 -5t-0.5 -5.5v-6v-8q0 -32 -7.5 -38.5t-39.5 -6.5h-23q-4 0 -13.5 2t-11 6.5t-3.5 12.5t-2 22q0 2 0.5 7.5t0 9t-1 8t-3.5 7 t-7 3.5q-76 21 -126.5 83.5t-50.5 140.5q0 47 15.5 86.5t37 63.5t47.5 42.5t43 26t28 10.5q9 2 12.5 5.5t4 6.5t0.5 13v5z" />
<glyph unicode="&#xa3;" d="M57 376h17q39 0 39 21q0 3 -7.5 25t-7.5 41q0 61 47 106.5t105 64.5t112 19q104 0 164.5 -48t60.5 -93q0 -30 -22 -52.5t-49 -22.5q-12 0 -20 7.5t-12.5 17t-21 17t-42.5 7.5q-31 0 -54 -15.5t-23 -47.5q0 -39 65 -39q9 0 26.5 2.5t25.5 2.5q4 0 7 -1.5t5 -4t3 -5 t1.5 -7.5t0.5 -7v-9v-7v-7v-7v-8q0 -5 -1 -8t-2 -7t-2 -6l-4 -5q-2 -2 -5.5 -3t-7.5 -1q-10 0 -28.5 2.5t-27.5 2.5q-24 0 -33 -10.5t-9 -36.5q0 -37 40.5 -56.5t78.5 -19.5q31 0 64.5 25.5t53.5 25.5q36 0 36 -54q0 -56 -35 -100t-83.5 -65.5t-97.5 -21.5q-35 0 -65 9.5 t-45.5 21t-26.5 21t-13 9.5q-1 0 -17.5 -15.5t-49 -31.5t-71.5 -16q-49 0 -79.5 34.5t-30.5 88.5q0 105 112 105q6 0 18.5 -1t18.5 -1q15 0 15 20q0 25 -14 36.5t-28 11.5q-3 1 -6 1q-14 0 -38 -3q-28 -2 -37 -2q-34 0 -34 52q0 48 34 48z" />
<glyph unicode="&#xa4;" d="M187 516q60 36 126 36q74 0 129 -36q32 32 42 32q20 0 46 -27t26 -45q-1 -11 -32 -42q38 -59 38 -129q0 -75 -38 -128q31 -31 32 -42q0 -19 -26.5 -45.5t-45.5 -26.5q-13 1 -42 32q-59 -37 -124 -37q-74 0 -131 37q-32 -32 -42 -32q-20 0 -46 27t-26 45q1 11 32 42 q-37 65 -37 127q0 71 37 130q-31 31 -32 42q0 19 26.5 45.5t45.5 26.5q13 -1 42 -32zM315 182q52 0 87.5 36.5t35.5 86.5t-35.5 86.5t-87.5 36.5t-87.5 -36.5t-35.5 -86.5t35.5 -86.5t87.5 -36.5z" />
<glyph unicode="&#xa5;" d="M544 519l-70 -89q-41 -51 -41 -59t23 -8q19 0 56 0.5t56 0.5q22 0 29.5 -11t7.5 -48q0 -35 -11 -43q-11 -7 -40 -7h-7h-81q-51 0 -56 -3q-6 -4 -6 -25v-51q0 -20 11 -33t24.5 -19.5t24.5 -20.5t11 -35q0 -79 -148 -79q-56 0 -95 7t-57 14.5t-28 21.5t-10.5 19.5 t-0.5 16.5q0 25 13.5 38.5t30.5 22t21 17.5q6 17 6 59q0 27 -3.5 37.5t-8.5 12t-21 1.5q-58 2 -101 2h-11h-10q-1 0 -7.5 0.5t-7.5 1.5t-6 2t-5.5 3.5t-3.5 6t-3 7.5t-1 10t-1 13q0 44 9 54t38 10t51.5 -1t26.5 -1q22 0 22 12q0 8 -16 28l-76 97q-12 16 -35 26.5t-36.5 23 t-13.5 40.5q0 36 34 55t126 19q29 0 45.5 -1t47 -7t46.5 -22.5t16 -42.5q0 -19 -10 -33.5t-10 -17.5q0 -13 17 -42t24 -29q9 0 29 28.5t20 38.5q0 2 -12 20.5t-12 37.5q0 70 160 70q27 0 40 -1t40.5 -6t41 -20t13.5 -39q0 -27 -19.5 -41t-46 -22t-33.5 -17z" />
<glyph unicode="&#xa6;" horiz-adv-x="496" d="M190 378v238q0 18 1 26t6 17.5t17 12.5t33 3q22 0 34 -3t17.5 -12t6.5 -17t1 -26v-242q0 -19 -2 -27.5t-15.5 -15.5t-41.5 -7q-39 0 -48 11.5t-9 41.5zM190 -122v238q0 18 1 26t6 17.5t17 12.5t33 3q22 0 34 -3t17.5 -12t6.5 -17t1 -26v-242q0 -19 -2 -27.5t-15.5 -15.5 t-41.5 -7q-39 0 -48 11.5t-9 41.5z" />
<glyph unicode="&#xa7;" horiz-adv-x="758" d="M340 319l72 -22q15 -5 23 -5q11 0 20 20.5t9 33.5q0 7 -1.5 12.5t-5.5 10t-7 7.5t-9.5 6.5t-9.5 4.5l-11 4q-9 3 -11 4q-71 25 -93 25q-13 0 -23 -19t-10 -33q0 -15 10.5 -26t19 -14t27.5 -9zM170 469q0 4 -12 15l-28 25q-16 14 -28.5 43t-12.5 65q0 78 72 132.5 t230 54.5q129 0 207 -35.5t78 -78.5q0 -26 -37 -45t-66 -19q-20 0 -38 12t-31 26t-38.5 26t-59.5 12q-23 0 -44 -10.5t-21 -31.5q0 -23 26 -37.5t64.5 -21.5t83.5 -20t83.5 -30t64.5 -55t26 -93q0 -36 -15 -66.5t-33 -46.5l-33 -28q-15 -12 -15 -16q0 -5 15 -16l31 -23 q17 -13 31.5 -42.5t14.5 -67.5q0 -97 -80 -148.5t-210 -51.5q-79 0 -140.5 12.5t-95 30t-55.5 39t-28.5 36.5t-6.5 25q0 27 38.5 39t73.5 12q23 0 42.5 -14t32.5 -30.5t41.5 -30.5t68.5 -14q28 0 52 9.5t24 33.5t-37.5 39.5t-91 28.5t-107 32t-91 61t-37.5 105 q0 37 14.5 68.5t31.5 47.5t31.5 27.5t14.5 14.5z" />
<glyph unicode="&#xa8;" horiz-adv-x="706" d="M331 656q0 -31 -32.5 -51.5t-67.5 -27t-66 -6.5q-36 0 -65.5 16.5t-29.5 49.5t29.5 53t60.5 25t64 5q40 0 73.5 -14.5t33.5 -49.5zM636 656q0 -31 -32.5 -51.5t-67.5 -27t-66 -6.5q-36 0 -65.5 16.5t-29.5 49.5t29.5 53t60.5 25t64 5q40 0 73.5 -14.5t33.5 -49.5z" />
<glyph unicode="&#xa9;" horiz-adv-x="758" d="M379 -14q-151 0 -258 107t-107 258t107 257.5t258 106.5t258 -106.5t107 -257.5t-107 -258t-258 -107zM379 55q123 0 209.5 86.5t86.5 209.5q0 122 -86.5 208.5t-209.5 86.5t-209.5 -86.5t-86.5 -208.5q0 -123 86.5 -209.5t209.5 -86.5zM489 520q5 0 13 2t12 2 q19 0 36 -26.5t17 -69.5q0 -24 -14 -40.5t-37 -16.5q-19 0 -32.5 15t-22 33.5t-30 33.5t-54.5 15q-31 0 -46 -23t-15 -55q0 -57 32.5 -100t87.5 -43q28 0 49 9.5t32.5 19t15.5 9.5q11 0 17.5 -10t6.5 -22q0 -23 -14.5 -46.5t-38.5 -28.5q-9 -2 -46 -17t-76 -15 q-86 0 -148 59.5t-62 142.5t65.5 141t149.5 58q32 0 66.5 -13.5t35.5 -13.5z" />
<glyph unicode="&#xaa;" horiz-adv-x="410" d="M205 604v15q0 40 -25 40q-11 0 -20.5 -9.5t-16.5 -21t-21 -21t-32 -9.5q-15 0 -25 9.5t-10 24.5q0 26 31 46t66 28.5t60 8.5q56 0 90.5 -27.5t34.5 -71.5v-64q0 -24 3.5 -37.5t8.5 -16.5t10.5 -3t9 -3t3.5 -12q0 -28 -30 -49.5t-60 -21.5q-28 0 -44 14.5t-18 14.5 q-1 0 -27 -14.5t-57 -14.5q-42 0 -71 21.5t-29 62.5q0 46 44 70t94 24q3 0 10 -0.5t9 0t6 2t5 5.5t1 10zM193 540q-13 0 -21.5 -10.5t-8.5 -23.5q0 -28 23 -28q20 0 20 36v5v5q0 1 -0.5 4.5t-1 5t-2 3.5t-4 2.5t-5.5 0.5z" />
<glyph unicode="&#xab;" horiz-adv-x="561" d="M368 375q89 96 130 96q18 0 33.5 -13t15.5 -31q0 -20 -47.5 -88t-47.5 -95t47.5 -95t47.5 -88q0 -18 -15.5 -31t-33.5 -13q-41 0 -130 96l-10 10l-10 11l-12 12q-8 9 -12 14l-10 13q-7 9 -10 15l-9 14q-5 8 -7 14t-4 13.5t-2 14.5q0 21 18.5 50t29.5 40zM100 375 q89 96 130 96q18 0 33.5 -13t15.5 -31q0 -20 -47.5 -88t-47.5 -95t47.5 -95t47.5 -88q0 -18 -15.5 -31t-33.5 -13q-41 0 -130 96l-10 10l-10 11l-12 12q-8 9 -12 14l-10 13q-7 9 -10 15l-9 14q-5 8 -7 14t-4 13.5t-2 14.5q0 21 18.5 50t29.5 40z" />
<glyph unicode="&#xac;" d="M441 165v100q0 23 -4.5 27t-29.5 4h-269h-9q-18 0 -25.5 1t-16.5 6t-11.5 17t-2.5 34t2.5 34t11.5 17t16 6t26 1h9h354q65 0 65 -65v-182v-9q0 -18 -1 -25.5t-6 -16.5t-17 -11.5t-34 -2.5t-34 2.5t-17 11.5t-6 16t-1 26v9z" />
<glyph unicode="&#xad;" horiz-adv-x="299" d="M259 204q-10 -20 -21.5 -28t-32.5 -8q-12 0 -36.5 4t-36.5 4q-30 0 -51 -0.5t-29.5 -1.5t-14 -1.5t-7.5 -0.5q-12 0 -21 8.5t-9 21.5q0 17 15.5 61.5t24.5 62.5q10 20 21.5 28t32.5 8q12 0 36.5 -4t36.5 -4q30 0 51 0.5t29.5 1.5t14 1.5t7.5 0.5q12 0 21 -8.5t9 -21.5 q0 -17 -15.5 -61.5t-24.5 -62.5z" />
<glyph unicode="&#xae;" horiz-adv-x="758" d="M379 -14q-151 0 -258 107t-107 258t107 257.5t258 106.5t258 -106.5t107 -257.5t-107 -258t-258 -107zM379 55q123 0 209.5 86.5t86.5 209.5q0 122 -86.5 208.5t-209.5 86.5t-209.5 -86.5t-86.5 -208.5q0 -123 86.5 -209.5t209.5 -86.5zM215 303v124q0 27 -4 42.5 t-10.5 19.5t-12.5 5.5t-10 6t-4 14.5q0 34 64 34q11 0 33.5 -2t33.5 -2q17 0 53 2t53 2q53 0 93 -25t40 -75q0 -33 -14 -51.5t-27.5 -26t-13.5 -12.5t11 -11l26 -14q15 -8 27 -30.5t12 -55.5q1 -16 8 -24t14.5 -8.5t13.5 -5t6 -15.5q0 -20 -26.5 -31.5t-60.5 -11.5 q-42 0 -66 17.5t-32 43t-13 51t-16 43t-33 17.5q-10 0 -13 -6t-3 -30q0 -33 4 -53q2 -12 17 -21t15 -22q0 -35 -102 -35q-104 0 -104 40q0 11 6.5 15.5t14 7.5t14 24t6.5 59zM343 460v-52q0 -3 -0.5 -7t-0.5 -6t0.5 -5t2 -4.5t4.5 -2.5t7 -1q47 0 47 53q0 54 -38 54 q-14 0 -18 -7t-4 -22z" />
<glyph unicode="&#xaf;" horiz-adv-x="614" d="M266 704h163q46 0 70 2q7 0 12.5 0.5t6.5 0.5q11 0 18.5 -6t7.5 -16q0 -12 -13.5 -44t-21.5 -45q-16 -26 -47 -26l-36 3q-37 3 -78 3h-163q-26 0 -44.5 -0.5t-25.5 -1t-12 -1t-7 -0.5q-11 0 -18.5 6t-7.5 15q0 12 13.5 44.5t21.5 45.5q16 26 47 26l36 -3q37 -3 78 -3z " />
<glyph unicode="&#xb0;" horiz-adv-x="378" d="M339 500q0 -62 -44 -106t-106 -44t-106 44t-44 109q0 60 43 103q45 44 107 44q61 0 105.5 -44t44.5 -106zM268 501q0 33 -23 55.5t-56 22.5t-57 -23q-22 -21 -22 -52q0 -36 23 -59.5t56 -23.5t56 23.5t23 56.5z" />
<glyph unicode="&#xb1;" d="M492 266h-68q-42 0 -46 -4q-5 -5 -5 -47v-9q0 -18 -1 -25.5t-6 -16.5t-17 -11.5t-34 -2.5t-34 2.5t-17 11.5t-6 16t-1 26v9q0 44 -4 47q-5 4 -47 4h-68h-9q-18 0 -25.5 1t-16.5 6t-11.5 17t-2.5 34t2.5 34t11.5 17t16 6t26 1h9h68q42 0 47 5q4 4 4 46v9q0 18 1 25.5 t6 16.5t17 11.5t34 2.5t34 -2.5t17 -11.5t6 -16t1 -26v-9q0 -40 5 -46q4 -5 46 -5h68h9q18 0 25.5 -1t16.5 -6t11.5 -17t2.5 -34t-2.5 -34t-11.5 -17t-16 -6t-26 -1h-9zM492 0h-354h-9q-18 0 -25.5 1t-16.5 6t-11.5 17t-2.5 34t2.5 34t11.5 17t16 6t26 1h9h354h9 q18 0 25.5 -1t16.5 -6t11.5 -17t2.5 -34t-2.5 -34t-11.5 -17t-16 -6t-26 -1h-9z" />
<glyph unicode="&#xb2;" horiz-adv-x="378" d="M359 359q29 0 29 -45q0 -38 -22 -72.5t-50 -34.5q-12 0 -17.5 4.5t-7 10t-12 10t-30.5 4.5h-212q-37 0 -37 15q0 7 7.5 16t39.5 36q112 98 112 147q0 34 -37 34q-20 0 -42 -17.5t-35 -17.5q-15 0 -28.5 11t-13.5 24q0 32 62.5 68.5t139.5 36.5q49 0 82.5 -11t48 -28 t19.5 -30t5 -25q0 -26 -17 -52.5t-37.5 -43t-37.5 -32t-17 -23.5q0 -10 9 -15.5t20 -5.5q26 0 49 18t30 18z" />
<glyph unicode="&#xb3;" horiz-adv-x="378" d="M386 325q0 -55 -59.5 -104t-188.5 -49q-17 0 -37.5 2t-47.5 6.5t-44.5 15t-17.5 25.5q0 14 11 23.5t26 9.5q5 0 31.5 -5.5t49.5 -5.5q46 0 66.5 18t20.5 39q0 25 -20.5 38t-48.5 13q-19 0 -31.5 -3t-15.5 -3q-11 0 -19 18t-8 29q0 8 13.5 15t30 12.5t30 17.5t13.5 30 t-15.5 30.5t-35.5 12.5q-19 0 -41 -10.5t-25 -10.5q-9 0 -16 12t-7 22q0 22 48 44t119 22q23 0 47.5 -3.5t51 -11.5t43.5 -24.5t17 -39.5q0 -22 -12 -38t-24.5 -24.5t-12.5 -13.5t8 -8.5t20 -5.5t26.5 -8.5t26.5 -15.5t20 -27.5t8 -43.5z" />
<glyph unicode="&#xb4;" horiz-adv-x="408" d="M124 561q-54 0 -54 37q0 23 35 47t35 36q0 4 -4 10.5t-4 12.5q0 16 30 23t54 7q38 0 80 -13t42 -43q0 -10 -15 -29t-40.5 -39t-68 -34.5t-90.5 -14.5z" />
<glyph unicode="&#xb5;" horiz-adv-x="712" d="M647 357v-201q0 -20 8.5 -31t19 -13.5t19 -11t8.5 -24.5q0 -24 -28 -42t-68.5 -27t-75.5 -13.5t-60 -4.5q-26 0 -37 9.5t-10 20.5t-2.5 20.5t-16.5 9.5q-7 0 -44 -24.5t-52 -25.5q2 -11 2 -35q0 -62 -30 -105.5t-89 -43.5t-90 46.5t-31 109.5q0 27 4.5 64t4.5 54v200 q0 43 -7 68t-17.5 33t-20.5 12.5t-17 12.5t-7 26q0 22 37.5 37t91.5 20.5t84.5 7.5t46.5 2q20 0 25.5 -8.5t5.5 -29.5v-254q0 -102 57 -102q15 0 26 4.5t17.5 15.5t11 20t6 27t2 25.5t0 27t-0.5 22.5q0 82 -4 108q-4 25 -30.5 39.5t-26.5 35.5q0 27 55.5 44t103 21t80.5 4 q51 0 51 -56q0 -16 -1 -47.5t-1 -47.5z" />
<glyph unicode="&#xb6;" d="M285 384q10 0 15 4.5t5.5 9.5t0.5 15v149v21q0 5 -2 13.5t-6 11t-11 2.5q-40 0 -66.5 -34t-26.5 -75q0 -48 28 -82.5t63 -34.5zM381 560v-700q0 -29 -5.5 -37t-32.5 -8q-26 0 -31.5 8t-5.5 37v380v21v17q0 4 -1.5 10.5t-6 8t-11.5 3t-19 1.5q-8 0 -24.5 -0.5t-24.5 -0.5 q-107 0 -163.5 55.5t-56.5 135.5q0 93 62.5 152t155.5 59q37 0 109 -7.5t109 -7.5q25 0 73 3.5t73 3.5q49 0 49 -38q0 -21 -16 -32.5t-35.5 -16t-35.5 -17.5t-16 -35v-695q0 -29 -5.5 -37t-32.5 -8q-26 0 -31.5 8t-5.5 37v700q0 21 -1.5 28.5t-9 12t-25.5 4.5q-25 0 -30 -8 t-5 -37z" />
<glyph unicode="&#xb7;" horiz-adv-x="315" d="M278 259q0 -50 -35.5 -85.5t-85.5 -35.5t-85.5 35.5t-35.5 85.5t35.5 85.5t85.5 35.5t85.5 -35.5t35.5 -85.5z" />
<glyph unicode="&#xb8;" horiz-adv-x="338" d="M165 0l63 -61l10 -10q9 -8 12 -11.5t8.5 -10.5t7.5 -14t2 -14q0 -21 -20 -36t-43 -20t-43 -5q-48 0 -70 17t-22 34q0 19 17 27t33.5 12t16.5 12q0 5 -7 17l-43 63h78z" />
<glyph unicode="&#xb9;" horiz-adv-x="378" d="M112 386v72q0 22 -6 30t-28 8q-39 0 -45 5q-5 5 -5 14q0 33 85 53.5t157 20.5q54 0 54 -27q0 -11 -8 -16t-17 -6.5t-17 -14t-8 -36.5v-64q0 -72 6 -102q4 -18 18 -25t28.5 -6.5t26.5 -4t12 -18.5q0 -12 -8 -19.5t-48.5 -15t-113.5 -7.5q-87 0 -134.5 13t-47.5 32 q0 10 9 17t21 7q5 0 16 -2t17 -2q19 0 27.5 17t8.5 77z" />
<glyph unicode="&#xba;" horiz-adv-x="410" d="M186 409q-69 0 -113.5 39.5t-44.5 106.5q0 72 56.5 116t130.5 44q76 0 121 -48t45 -101q0 -72 -60 -114.5t-135 -42.5zM241 516q0 33 -12 78t-36 45q-25 0 -25 -30q0 -44 22 -101q9 -23 27 -23q24 0 24 31z" />
<glyph unicode="&#xbb;" horiz-adv-x="561" d="M193 113q-89 -96 -130 -96q-18 0 -33.5 13t-15.5 31q0 20 47.5 88t47.5 95t-47.5 95t-47.5 88q0 18 15.5 31t33.5 13q41 0 130 -96l9 -10l12 -11l10 -12q9 -9 12 -14l11 -13q7 -9 11 -15l8 -14q5 -8 7 -14t4 -13.5t2 -14.5q0 -21 -18.5 -50t-28.5 -40zM461 113 q-89 -96 -130 -96q-18 0 -33.5 13t-15.5 31q0 20 47.5 88t47.5 95t-47.5 95t-47.5 88q0 18 15.5 31t33.5 13q41 0 130 -96l9 -10l12 -11l10 -12q9 -9 12 -14l11 -13q7 -9 11 -15l8 -14q5 -8 7 -14t4 -13.5t2 -14.5q0 -21 -18.5 -50t-28.5 -40z" />
<glyph unicode="&#xbc;" horiz-adv-x="946" d="M112 383v72q0 22 -6 30t-28 8q-39 0 -45 5q-5 5 -5 14q0 33 85 53.5t157 20.5q54 0 54 -27q0 -11 -8 -16t-17 -6.5t-17 -14t-8 -36.5v-64q0 -72 6 -102q4 -18 18 -25t28.5 -6.5t26.5 -4t12 -18.5q0 -12 -8 -19.5t-48.5 -15t-113.5 -7.5q-87 0 -134.5 13t-47.5 32 q0 10 9 17t21 7q5 0 16 -2t17 -2q19 0 27.5 17t8.5 77zM889 337v-199v-4q0 -9 0.5 -12t5 -5.5t13.5 -2.5q17 0 21 -3.5t4 -20.5v-48q0 -9 -0.5 -13t-4.5 -8t-13 -5q-13 -1 -15.5 -5t-2.5 -22v-8q0 -4 0.5 -12t0 -10.5t-1.5 -7t-4 -5.5t-8.5 -2.5t-13.5 -1.5h-99h-11 q-3 0 -8 1.5t-6.5 5t-1.5 9.5v20q0 29 -5 34q-6 5 -27 5h-114q-28 0 -39 7.5t-11 32.5q0 33 11 53t55 69l150 160q45 38 94 38q20 0 25.5 -9.5t5.5 -30.5zM683 106h20q34 0 40 4.5t6 33.5q0 8 0.5 25t0.5 25q0 33 -17 33q-13 0 -29 -18l-41 -47q-27 -30 -27 -43t47 -13z M625 404l-189 -323l-28 -48l-20 -37.5t-14.5 -26.5t-12 -19t-10 -11t-10.5 -6.5t-13 -1.5q-19 0 -39 5.5t-20 19.5q0 8 3 15.5t14 23.5l24 37q14 20 42 66l62 103l234 405q10 18 15.5 25.5t17 13t28.5 5.5q47 0 47 -23q0 -13 -6 -25.5t-18 -28.5t-42 -63z" />
<glyph unicode="&#xbd;" horiz-adv-x="946" d="M112 383v72q0 22 -6 30t-28 8q-39 0 -45 5q-5 5 -5 14q0 33 85 53.5t157 20.5q54 0 54 -27q0 -11 -8 -16t-17 -6.5t-17 -14t-8 -36.5v-64q0 -72 6 -102q4 -18 18 -25t28.5 -6.5t26.5 -4t12 -18.5q0 -12 -8 -19.5t-48.5 -15t-113.5 -7.5q-87 0 -134.5 13t-47.5 32 q0 10 9 17t21 7q5 0 16 -2t17 -2q19 0 27.5 17t8.5 77zM794 0h-214q-38 0 -38 16q0 7 6 14t41 38q112 98 112 146q0 16 -9.5 25t-26.5 9q-21 0 -42.5 -17t-35.5 -17q-15 0 -28.5 10.5t-13.5 23.5q0 38 69 71.5t133 33.5q77 0 116.5 -27t39.5 -67q0 -34 -27.5 -66t-55 -53.5 t-27.5 -30.5q0 -10 9 -15.5t20 -5.5q26 0 49 18t30 18q30 0 30 -45q0 -47 -25 -77.5t-48 -30.5q-10 0 -14.5 3t-6.5 7.5t-5 8.5t-12.5 7t-25.5 3zM585 404l-189 -323l-28 -48l-20 -37.5t-14.5 -26.5t-12 -19t-10 -11t-10.5 -6.5t-13 -1.5q-19 0 -39 5.5t-20 19.5q0 8 3 15.5 t14 23.5l24 37q14 20 42 66l62 103l234 405q10 18 15.5 25.5t17 13t28.5 5.5q47 0 47 -23q0 -13 -6 -25.5t-18 -28.5t-42 -63z" />
<glyph unicode="&#xbe;" horiz-adv-x="946" d="M897 337v-199v-4q0 -9 0.5 -12t5 -5.5t13.5 -2.5q17 0 21 -3.5t4 -20.5v-48q0 -9 -0.5 -13t-4.5 -8t-13 -5q-13 -1 -15.5 -5t-2.5 -22v-8q0 -4 0.5 -12t0 -10.5t-1.5 -7t-4 -5.5t-8.5 -2.5t-13.5 -1.5h-99h-11q-3 0 -8 1.5t-6.5 5t-1.5 9.5v20q0 29 -5 34q-6 5 -27 5 h-114q-28 0 -39 7.5t-11 32.5q0 33 11 53t55 69l150 160q45 38 94 38q20 0 25.5 -9.5t5.5 -30.5zM691 106h20q34 0 40 4.5t6 33.5q0 8 0.5 25t0.5 25q0 33 -17 33q-13 0 -29 -18l-41 -47q-27 -30 -27 -43t47 -13zM181 586q23 0 47.5 -3.5t50.5 -11.5t43 -24.5t17 -39.5 q0 -22 -12.5 -38t-24.5 -24.5t-12 -13.5q0 -6 17 -11t38 -10.5t38 -27t17 -57.5q0 -63 -63.5 -109.5t-184.5 -46.5q-17 0 -37.5 2t-47.5 6.5t-44.5 15t-17.5 25.5q0 14 10.5 23.5t25.5 9.5q7 0 32.5 -5.5t48.5 -5.5q34 0 60.5 15.5t26.5 41.5q0 25 -20.5 38t-48.5 13 q-14 0 -30 -3t-17 -3q-10 0 -18.5 18t-8.5 29q0 10 22 18t43.5 22t21.5 38q0 16 -15.5 28t-34.5 12t-41 -10.5t-25 -10.5q-10 0 -17 12t-7 22q0 24 55 45t113 21zM650 404l-189 -323l-27 -48q-14 -24 -21 -37.5t-14.5 -26.5t-12 -19t-10 -11t-10.5 -6.5t-13 -1.5 q-19 0 -39 5.5t-20 19.5q0 8 3 15.5t13 23.5l25 37q14 20 43 66l61 103l234 405q10 18 15.5 25.5t17 13t28.5 5.5q47 0 47 -23q0 -13 -6 -25.5t-18 -28.5t-42 -63z" />
<glyph unicode="&#xbf;" horiz-adv-x="506" d="M311 -56q5 50 34.5 78.5t78.5 28.5q32 0 53.5 -20.5t21.5 -52.5q0 -71 -66.5 -130.5t-175.5 -59.5q-54 0 -110 21.5t-96.5 66t-40.5 100.5q0 95 112 137q28 11 44.5 27t22 31t12 28.5t21 21.5t41.5 8q31 0 49 -17.5t18 -48.5q0 -42 -43 -107.5t-43 -108.5q0 -19 8.5 -35 t26.5 -16q13 0 20.5 9t9 16.5t2.5 22.5zM382 406q0 -46 -32.5 -78.5t-78.5 -32.5t-78.5 32.5t-32.5 78.5t32.5 78.5t78.5 32.5t78.5 -32.5t32.5 -78.5z" />
<glyph unicode="&#xc0;" horiz-adv-x="869" d="M503 745q-48 0 -90.5 14.5t-68 34.5t-40.5 39t-15 29q0 30 42 43t80 13q24 0 54 -7t30 -23q0 -6 -4 -12.5t-4 -10.5q0 -12 35 -36t35 -47q0 -37 -54 -37zM339 289h75q40 0 40 13q0 16 -37 81q0 1 -5 9t-7 12t-7 11.5t-9 11t-9.5 6.5t-10.5 3q-6 0 -11.5 -5t-10 -11 t-9 -15.5t-6.5 -16t-5 -14.5l-3 -9q-21 -58 -21 -62t1.5 -6.5t4 -4t5 -2.5t6.5 -1h6h8h5zM141 224l63 137l34 78q11 26 24.5 74t13.5 84q0 121 121 121q31 0 58.5 -13.5t51 -40.5t38 -47.5t33.5 -53.5q14 -24 96.5 -191.5t107.5 -225.5q11 -25 27.5 -37.5t29 -13.5t21.5 -9 t9 -27q0 -17 -9.5 -30t-30.5 -20.5t-36.5 -12t-45 -6t-37.5 -1.5h-33q-128 0 -178.5 10.5t-50.5 52.5q0 16 9.5 25.5t21 12t21 9t9.5 18.5q0 33 -31.5 41t-154.5 8q-46 0 -64.5 -8.5t-18.5 -42.5q0 -13 10 -19.5t22 -8t22 -11t10 -26.5q0 -61 -148 -61q-68 0 -104 9t-44 20 t-8 30q0 20 14 29.5t36 17.5t33 22q18 23 58 107z" />
<glyph unicode="&#xc1;" horiz-adv-x="869" d="M355 745q-54 0 -54 37q0 23 35 47t35 36q0 4 -4 10.5t-4 12.5q0 16 30 23t54 7q38 0 80 -13t42 -43q0 -10 -15 -29t-40.5 -39t-68 -34.5t-90.5 -14.5zM339 289h75q40 0 40 13q0 16 -37 81q0 1 -5 9t-7 12t-7 11.5t-9 11t-9.5 6.5t-10.5 3q-6 0 -11.5 -5t-10 -11t-9 -15.5 t-6.5 -16t-5 -14.5l-3 -9q-21 -58 -21 -62t1.5 -6.5t4 -4t5 -2.5t6.5 -1h6h8h5zM141 224l63 137l34 78q11 26 24.5 74t13.5 84q0 121 121 121q31 0 58.5 -13.5t51 -40.5t38 -47.5t33.5 -53.5q14 -24 96.5 -191.5t107.5 -225.5q11 -25 27.5 -37.5t29 -13.5t21.5 -9t9 -27 q0 -17 -9.5 -30t-30.5 -20.5t-36.5 -12t-45 -6t-37.5 -1.5h-33q-128 0 -178.5 10.5t-50.5 52.5q0 16 9.5 25.5t21 12t21 9t9.5 18.5q0 33 -31.5 41t-154.5 8q-46 0 -64.5 -8.5t-18.5 -42.5q0 -13 10 -19.5t22 -8t22 -11t10 -26.5q0 -61 -148 -61q-68 0 -104 9t-44 20t-8 30 q0 20 14 29.5t36 17.5t33 22q18 23 58 107z" />
<glyph unicode="&#xc2;" horiz-adv-x="869" d="M422 934q32 0 112.5 -57.5t80.5 -90.5q0 -18 -10.5 -30t-28.5 -12q-20 0 -75.5 28.5t-78.5 28.5t-78.5 -28.5t-75.5 -28.5q-18 0 -28.5 12t-10.5 30q0 33 80.5 90.5t112.5 57.5zM339 289h75q40 0 40 13q0 16 -37 81q0 1 -5 9t-7 12t-7 11.5t-9 11t-9.5 6.5t-10.5 3 q-6 0 -11.5 -5t-10 -11t-9 -15.5t-6.5 -16t-5 -14.5l-3 -9q-21 -58 -21 -62t1.5 -6.5t4 -4t5 -2.5t6.5 -1h6h8h5zM141 224l63 137l34 78q11 26 24.5 74t13.5 84q0 121 121 121q31 0 58.5 -13.5t51 -40.5t38 -47.5t33.5 -53.5q14 -24 96.5 -191.5t107.5 -225.5 q11 -25 27.5 -37.5t29 -13.5t21.5 -9t9 -27q0 -17 -9.5 -30t-30.5 -20.5t-36.5 -12t-45 -6t-37.5 -1.5h-33q-128 0 -178.5 10.5t-50.5 52.5q0 16 9.5 25.5t21 12t21 9t9.5 18.5q0 33 -31.5 41t-154.5 8q-46 0 -64.5 -8.5t-18.5 -42.5q0 -13 10 -19.5t22 -8t22 -11t10 -26.5 q0 -61 -148 -61q-68 0 -104 9t-44 20t-8 30q0 20 14 29.5t36 17.5t33 22q18 23 58 107z" />
<glyph unicode="&#xc3;" horiz-adv-x="869" d="M572 912q41 0 63 -11t22 -44q0 -41 -32.5 -71.5t-76.5 -30.5t-122 28.5t-92 28.5q-8 0 -10 -3t-2 -11q0 -43 -48 -43q-41 0 -63.5 11t-22.5 44q0 41 33 71.5t77 30.5q43 0 121.5 -28.5t92.5 -28.5q8 0 10 3t2 11q0 43 48 43zM339 289h75q40 0 40 13q0 16 -37 81q0 1 -5 9 t-7 12t-7 11.5t-9 11t-9.5 6.5t-10.5 3q-6 0 -11.5 -5t-10 -11t-9 -15.5t-6.5 -16t-5 -14.5l-3 -9q-21 -58 -21 -62t1.5 -6.5t4 -4t5 -2.5t6.5 -1h6h8h5zM141 224l63 137l34 78q11 26 24.5 74t13.5 84q0 121 121 121q31 0 58.5 -13.5t51 -40.5t38 -47.5t33.5 -53.5 q14 -24 96.5 -191.5t107.5 -225.5q11 -25 27.5 -37.5t29 -13.5t21.5 -9t9 -27q0 -17 -9.5 -30t-30.5 -20.5t-36.5 -12t-45 -6t-37.5 -1.5h-33q-128 0 -178.5 10.5t-50.5 52.5q0 16 9.5 25.5t21 12t21 9t9.5 18.5q0 33 -31.5 41t-154.5 8q-46 0 -64.5 -8.5t-18.5 -42.5 q0 -13 10 -19.5t22 -8t22 -11t10 -26.5q0 -61 -148 -61q-68 0 -104 9t-44 20t-8 30q0 20 14 29.5t36 17.5t33 22q18 23 58 107z" />
<glyph unicode="&#xc4;" horiz-adv-x="869" d="M413 840q0 -31 -32.5 -51.5t-67.5 -27t-66 -6.5q-36 0 -65.5 16.5t-29.5 49.5t29.5 53t60.5 25t64 5q40 0 73.5 -14.5t33.5 -49.5zM718 840q0 -31 -32.5 -51.5t-67.5 -27t-66 -6.5q-36 0 -65.5 16.5t-29.5 49.5t29.5 53t60.5 25t64 5q40 0 73.5 -14.5t33.5 -49.5z M339 289h75q40 0 40 13q0 16 -37 81q0 1 -5 9t-7 12t-7 11.5t-9 11t-9.5 6.5t-10.5 3q-6 0 -11.5 -5t-10 -11t-9 -15.5t-6.5 -16t-5 -14.5l-3 -9q-21 -58 -21 -62t1.5 -6.5t4 -4t5 -2.5t6.5 -1h6h8h5zM141 224l63 137l34 78q11 26 24.5 74t13.5 84q0 121 121 121 q31 0 58.5 -13.5t51 -40.5t38 -47.5t33.5 -53.5q14 -24 96.5 -191.5t107.5 -225.5q11 -25 27.5 -37.5t29 -13.5t21.5 -9t9 -27q0 -17 -9.5 -30t-30.5 -20.5t-36.5 -12t-45 -6t-37.5 -1.5h-33q-128 0 -178.5 10.5t-50.5 52.5q0 16 9.5 25.5t21 12t21 9t9.5 18.5 q0 33 -31.5 41t-154.5 8q-46 0 -64.5 -8.5t-18.5 -42.5q0 -13 10 -19.5t22 -8t22 -11t10 -26.5q0 -61 -148 -61q-68 0 -104 9t-44 20t-8 30q0 20 14 29.5t36 17.5t33 22q18 23 58 107z" />
<glyph unicode="&#xc5;" horiz-adv-x="869" d="M339 289h75q40 0 40 13q0 16 -37 81q0 1 -5 9t-7 12t-7 11.5t-9 11t-9.5 6.5t-10.5 3q-6 0 -11.5 -5t-10 -11t-9 -15.5t-6.5 -16t-5 -14.5l-3 -9q-21 -58 -21 -62t1.5 -6.5t4 -4t5 -2.5t6.5 -1h6h8h5zM141 224l63 137l34 78q11 26 24.5 74t13.5 84q0 121 121 121 q31 0 58.5 -13.5t51 -40.5t38 -47.5t33.5 -53.5q14 -24 96.5 -191.5t107.5 -225.5q11 -25 27.5 -37.5t29 -13.5t21.5 -9t9 -27q0 -17 -9.5 -30t-30.5 -20.5t-36.5 -12t-45 -6t-37.5 -1.5h-33q-128 0 -178.5 10.5t-50.5 52.5q0 16 9.5 25.5t21 12t21 9t9.5 18.5 q0 33 -31.5 41t-154.5 8q-46 0 -64.5 -8.5t-18.5 -42.5q0 -13 10 -19.5t22 -8t22 -11t10 -26.5q0 -61 -148 -61q-68 0 -104 9t-44 20t-8 30q0 20 14 29.5t36 17.5t33 22q18 23 58 107zM575 848q0 -39 -26 -64t-58 -33t-69 -8q-65 0 -109 24t-44 81t44 81t109 24q37 0 69 -8 t58 -33t26 -64zM472 848q0 24 -13 41t-37 17t-37 -17t-13 -41t13 -41t37 -17t37 17t13 41z" />
<glyph unicode="&#xc6;" horiz-adv-x="1087" d="M460 366v45v8v11v12q0 7 -1.5 11.5t-4 9.5t-6.5 7.5t-9 2.5t-10 -3t-8.5 -6.5t-8.5 -10.5t-7 -11l-6 -10q-4 -8 -4 -9l-37 -66q-21 -39 -21 -53q0 -7 2.5 -12.5t8.5 -8.5l10 -5q4 -3 13.5 -3.5t13.5 -0.5h14h11q30 0 40 15.5t10 76.5zM359 151h-44h-5h-4q-60 0 -60 -31 q0 -11 9.5 -19t21 -13t21 -16t9.5 -26q0 -57 -151 -57q-156 0 -156 63q0 22 15 31.5t36 17.5t29 21l31 50q23 37 29 47.5t25 41.5l25 42l23 37l24 41l21 38l24 43l24 42l25 48q1 3 6.5 12.5t6.5 12t4.5 10.5t4.5 12.5t2 11.5t1 15q0 51 26 63t122 12h283q59 0 97 5t53.5 10 t18.5 5q38 0 59.5 -49t21.5 -93q0 -29 -12.5 -50.5t-39.5 -21.5q-21 0 -32.5 10t-19.5 24t-21 28t-46 24t-86 10q-63 0 -81 -12.5t-19 -61.5v-61q0 -43 9 -51.5t55 -8.5q25 0 36 17.5t11 38t9.5 38t33.5 17.5q62 0 62 -152q0 -21 -2.5 -43.5t-8.5 -51.5t-20.5 -47.5 t-35.5 -18.5q-20 0 -27.5 16.5t-8 36t-16 36t-49.5 16.5q-15 0 -24 -5.5t-12.5 -18.5t-4 -21t-0.5 -25q0 -38 0.5 -59t6 -38.5t9 -24.5t19 -12t26.5 -5h40h14q48 0 82 10.5t50 26t28.5 34t18.5 34t18.5 26t31.5 10.5q22 0 35 -20t13 -44q0 -53 -32.5 -121.5t-61.5 -68.5 q-2 0 -44 6q-55 5 -84 5h-263q-16 0 -44 -0.5t-39 -0.5q-48 -2 -63 -2q-16 0 -25.5 1t-21.5 4.5t-18 13t-6 24.5q0 18 10.5 29.5t23.5 15.5t23.5 12.5t10.5 20.5q0 8 -3 14t-10 9.5t-12.5 5.5t-17 3t-15.5 1h-16h-12z" />
<glyph unicode="&#xc7;" horiz-adv-x="756" d="M24 353q0 99 56.5 183.5t146 131.5t187.5 47q43 0 83.5 -12.5t67.5 -24.5t36 -12q12 0 24.5 3.5t20.5 3.5q35 0 65.5 -48t30.5 -126q0 -45 -25 -75t-68 -30q-28 0 -48.5 18t-35.5 44t-33.5 52.5t-53.5 44.5t-84 18q-53 0 -81 -39.5t-28 -87.5q0 -116 59 -195t160 -79 q43 0 76.5 11t48.5 23l29 24q14 11 23 11q20 0 31.5 -18.5t11.5 -40.5q0 -38 -30.5 -87t-65.5 -49q-12 0 -43 -14.5t-78 -29t-98 -14.5l49 -47q2 -2 10.5 -10t11.5 -11.5t8.5 -10.5t7.5 -14t2 -14q0 -21 -20 -36t-43 -20t-43 -5q-48 0 -70 17t-22 34q0 19 17 27t33.5 12 t16.5 12q0 5 -7 17l-40 59q-128 29 -212 129t-84 228z" />
<glyph unicode="&#xc8;" horiz-adv-x="726" d="M443 745q-48 0 -90.5 14.5t-68 34.5t-40.5 39t-15 29q0 30 42 43t80 13q24 0 54 -7t30 -23q0 -6 -4 -12.5t-4 -10.5q0 -12 35 -36t35 -47q0 -37 -54 -37zM139 701h288q59 0 97 5t53.5 10t18.5 5q38 0 59.5 -49t21.5 -93q0 -29 -12.5 -50.5t-39.5 -21.5q-21 0 -32.5 10 t-19.5 24t-21 28t-46 24t-86 10q-26 0 -42.5 -1.5t-28.5 -6t-17 -12t-9 -19.5t-3 -28q1 -9 0.5 -19t-0.5 -21v-28q0 -43 9 -51.5t55 -8.5q25 0 36 17.5t11 38t9.5 38t33.5 17.5q62 0 62 -152q0 -21 -2.5 -43.5t-8.5 -51.5t-20.5 -47.5t-35.5 -18.5q-20 0 -27.5 16.5t-8 36 t-16 36t-49.5 16.5q-15 0 -24 -5.5t-12.5 -18.5t-4 -21t-0.5 -25q0 -38 0.5 -59t6 -38.5t9 -24.5t19 -12t26.5 -5h40h14q48 0 82 10.5t50 26t28.5 34t18.5 34t18.5 26t31.5 10.5q22 0 35 -20t13 -44q0 -53 -32.5 -121.5t-61.5 -68.5q-2 0 -44 6q-55 5 -84 5h-411 q-23 0 -38 4.5t-20.5 12.5t-7 13.5t-1.5 12.5q0 18 11 27t24 12.5t25.5 22.5t14.5 55q10 150 10 178q0 35 -7 167q-2 42 -11.5 66.5t-21 31t-23 9.5t-19.5 11t-8 27q0 13 4.5 22t13.5 14.5t17.5 9t23.5 4.5l23 2q8 0 23.5 -0.5t19.5 -0.5z" />
<glyph unicode="&#xc9;" horiz-adv-x="726" d="M283 745q-54 0 -54 37q0 23 35 47t35 36q0 4 -4 10.5t-4 12.5q0 16 30 23t54 7q38 0 80 -13t42 -43q0 -10 -15 -29t-40.5 -39t-68 -34.5t-90.5 -14.5zM139 701h288q59 0 97 5t53.5 10t18.5 5q38 0 59.5 -49t21.5 -93q0 -29 -12.5 -50.5t-39.5 -21.5q-21 0 -32.5 10 t-19.5 24t-21 28t-46 24t-86 10q-26 0 -42.5 -1.5t-28.5 -6t-17 -12t-9 -19.5t-3 -28q1 -9 0.5 -19t-0.5 -21v-28q0 -43 9 -51.5t55 -8.5q25 0 36 17.5t11 38t9.5 38t33.5 17.5q62 0 62 -152q0 -21 -2.5 -43.5t-8.5 -51.5t-20.5 -47.5t-35.5 -18.5q-20 0 -27.5 16.5t-8 36 t-16 36t-49.5 16.5q-15 0 -24 -5.5t-12.5 -18.5t-4 -21t-0.5 -25q0 -38 0.5 -59t6 -38.5t9 -24.5t19 -12t26.5 -5h40h14q48 0 82 10.5t50 26t28.5 34t18.5 34t18.5 26t31.5 10.5q22 0 35 -20t13 -44q0 -53 -32.5 -121.5t-61.5 -68.5q-2 0 -44 6q-55 5 -84 5h-411 q-23 0 -38 4.5t-20.5 12.5t-7 13.5t-1.5 12.5q0 18 11 27t24 12.5t25.5 22.5t14.5 55q10 150 10 178q0 35 -7 167q-2 42 -11.5 66.5t-21 31t-23 9.5t-19.5 11t-8 27q0 13 4.5 22t13.5 14.5t17.5 9t23.5 4.5l23 2q8 0 23.5 -0.5t19.5 -0.5z" />
<glyph unicode="&#xca;" horiz-adv-x="726" d="M363 934q32 0 112.5 -57.5t80.5 -90.5q0 -18 -10.5 -30t-28.5 -12q-20 0 -75.5 28.5t-78.5 28.5t-78.5 -28.5t-75.5 -28.5q-18 0 -28.5 12t-10.5 30q0 33 80.5 90.5t112.5 57.5zM139 701h288q59 0 97 5t53.5 10t18.5 5q38 0 59.5 -49t21.5 -93q0 -29 -12.5 -50.5 t-39.5 -21.5q-21 0 -32.5 10t-19.5 24t-21 28t-46 24t-86 10q-26 0 -42.5 -1.5t-28.5 -6t-17 -12t-9 -19.5t-3 -28q1 -9 0.5 -19t-0.5 -21v-28q0 -43 9 -51.5t55 -8.5q25 0 36 17.5t11 38t9.5 38t33.5 17.5q62 0 62 -152q0 -21 -2.5 -43.5t-8.5 -51.5t-20.5 -47.5 t-35.5 -18.5q-20 0 -27.5 16.5t-8 36t-16 36t-49.5 16.5q-15 0 -24 -5.5t-12.5 -18.5t-4 -21t-0.5 -25q0 -38 0.5 -59t6 -38.5t9 -24.5t19 -12t26.5 -5h40h14q48 0 82 10.5t50 26t28.5 34t18.5 34t18.5 26t31.5 10.5q22 0 35 -20t13 -44q0 -53 -32.5 -121.5t-61.5 -68.5 q-2 0 -44 6q-55 5 -84 5h-411q-23 0 -38 4.5t-20.5 12.5t-7 13.5t-1.5 12.5q0 18 11 27t24 12.5t25.5 22.5t14.5 55q10 150 10 178q0 35 -7 167q-2 42 -11.5 66.5t-21 31t-23 9.5t-19.5 11t-8 27q0 13 4.5 22t13.5 14.5t17.5 9t23.5 4.5l23 2q8 0 23.5 -0.5t19.5 -0.5z" />
<glyph unicode="&#xcb;" horiz-adv-x="726" d="M341 840q0 -31 -32.5 -51.5t-67.5 -27t-66 -6.5q-36 0 -65.5 16.5t-29.5 49.5t29.5 53t60.5 25t64 5q40 0 73.5 -14.5t33.5 -49.5zM646 840q0 -31 -32.5 -51.5t-67.5 -27t-66 -6.5q-36 0 -65.5 16.5t-29.5 49.5t29.5 53t60.5 25t64 5q40 0 73.5 -14.5t33.5 -49.5z M139 701h288q59 0 97 5t53.5 10t18.5 5q38 0 59.5 -49t21.5 -93q0 -29 -12.5 -50.5t-39.5 -21.5q-21 0 -32.5 10t-19.5 24t-21 28t-46 24t-86 10q-26 0 -42.5 -1.5t-28.5 -6t-17 -12t-9 -19.5t-3 -28q1 -9 0.5 -19t-0.5 -21v-28q0 -43 9 -51.5t55 -8.5q25 0 36 17.5t11 38 t9.5 38t33.5 17.5q62 0 62 -152q0 -21 -2.5 -43.5t-8.5 -51.5t-20.5 -47.5t-35.5 -18.5q-20 0 -27.5 16.5t-8 36t-16 36t-49.5 16.5q-15 0 -24 -5.5t-12.5 -18.5t-4 -21t-0.5 -25q0 -38 0.5 -59t6 -38.5t9 -24.5t19 -12t26.5 -5h40h14q48 0 82 10.5t50 26t28.5 34t18.5 34 t18.5 26t31.5 10.5q22 0 35 -20t13 -44q0 -53 -32.5 -121.5t-61.5 -68.5q-2 0 -44 6q-55 5 -84 5h-411q-23 0 -38 4.5t-20.5 12.5t-7 13.5t-1.5 12.5q0 18 11 27t24 12.5t25.5 22.5t14.5 55q10 150 10 178q0 35 -7 167q-2 42 -11.5 66.5t-21 31t-23 9.5t-19.5 11t-8 27 q0 13 4.5 22t13.5 14.5t17.5 9t23.5 4.5l23 2q8 0 23.5 -0.5t19.5 -0.5z" />
<glyph unicode="&#xcc;" horiz-adv-x="435" d="M298 745q-48 0 -90.5 14.5t-68 34.5t-40.5 39t-15 29q0 30 42 43t80 13q24 0 54 -7t30 -23q0 -6 -4 -12.5t-4 -10.5q0 -12 35 -36t35 -47q0 -37 -54 -37zM97 301v99q0 143 -21 170q-6 7 -34 27.5t-28 42.5q0 17 14.5 30t40 20.5t49.5 12.5t53.5 6.5t42 2t24.5 0.5 q183 0 183 -70q0 -16 -9.5 -25t-26 -17t-25.5 -18q-20 -23 -20 -182v-99q0 -85 4.5 -125t9 -46.5t18.5 -14.5q4 -2 17.5 -9.5t17.5 -10.5t9 -11.5t5 -19.5q0 -12 -2.5 -20t-15 -19t-35.5 -18.5t-67.5 -12.5t-107.5 -5q-168 0 -168 65q0 14 8.5 23.5t22.5 17.5t19 15 q22 26 22 191z" />
<glyph unicode="&#xcd;" horiz-adv-x="435" d="M138 745q-54 0 -54 37q0 23 35 47t35 36q0 4 -4 10.5t-4 12.5q0 16 30 23t54 7q38 0 80 -13t42 -43q0 -10 -15 -29t-40.5 -39t-68 -34.5t-90.5 -14.5zM97 301v99q0 143 -21 170q-6 7 -34 27.5t-28 42.5q0 17 14.5 30t40 20.5t49.5 12.5t53.5 6.5t42 2t24.5 0.5 q183 0 183 -70q0 -16 -9.5 -25t-26 -17t-25.5 -18q-20 -23 -20 -182v-99q0 -85 4.5 -125t9 -46.5t18.5 -14.5q4 -2 17.5 -9.5t17.5 -10.5t9 -11.5t5 -19.5q0 -12 -2.5 -20t-15 -19t-35.5 -18.5t-67.5 -12.5t-107.5 -5q-168 0 -168 65q0 14 8.5 23.5t22.5 17.5t19 15 q22 26 22 191z" />
<glyph unicode="&#xce;" horiz-adv-x="435" d="M217 934q32 0 112.5 -57.5t80.5 -90.5q0 -18 -10.5 -30t-28.5 -12q-20 0 -75.5 28.5t-78.5 28.5t-78.5 -28.5t-75.5 -28.5q-18 0 -28.5 12t-10.5 30q0 33 80.5 90.5t112.5 57.5zM97 301v99q0 143 -21 170q-6 7 -34 27.5t-28 42.5q0 17 14.5 30t40 20.5t49.5 12.5 t53.5 6.5t42 2t24.5 0.5q183 0 183 -70q0 -16 -9.5 -25t-26 -17t-25.5 -18q-20 -23 -20 -182v-99q0 -85 4.5 -125t9 -46.5t18.5 -14.5q4 -2 17.5 -9.5t17.5 -10.5t9 -11.5t5 -19.5q0 -12 -2.5 -20t-15 -19t-35.5 -18.5t-67.5 -12.5t-107.5 -5q-168 0 -168 65q0 14 8.5 23.5 t22.5 17.5t19 15q22 26 22 191z" />
<glyph unicode="&#xcf;" horiz-adv-x="435" d="M196 840q0 -31 -32.5 -51.5t-67.5 -27t-66 -6.5q-36 0 -65.5 16.5t-29.5 49.5t29.5 53t60.5 25t64 5q40 0 73.5 -14.5t33.5 -49.5zM501 840q0 -31 -32.5 -51.5t-67.5 -27t-66 -6.5q-36 0 -65.5 16.5t-29.5 49.5t29.5 53t60.5 25t64 5q40 0 73.5 -14.5t33.5 -49.5zM97 301 v99q0 143 -21 170q-6 7 -34 27.5t-28 42.5q0 17 14.5 30t40 20.5t49.5 12.5t53.5 6.5t42 2t24.5 0.5q183 0 183 -70q0 -16 -9.5 -25t-26 -17t-25.5 -18q-20 -23 -20 -182v-99q0 -85 4.5 -125t9 -46.5t18.5 -14.5q4 -2 17.5 -9.5t17.5 -10.5t9 -11.5t5 -19.5q0 -12 -2.5 -20 t-15 -19t-35.5 -18.5t-67.5 -12.5t-107.5 -5q-168 0 -168 65q0 14 8.5 23.5t22.5 17.5t19 15q22 26 22 191z" />
<glyph unicode="&#xd0;" horiz-adv-x="843" d="M344 544v-82q0 -32 14 -32h60q16 0 19.5 -9t3.5 -37q0 -13 -0.5 -19t-2.5 -14t-6.5 -11t-12.5 -3h-61q-10 -1 -12 -9t-2 -28v-129q0 -41 11.5 -56.5t50.5 -15.5q148 0 148 229q0 84 -14.5 140.5t-40 83.5t-51.5 37t-59 10q-29 0 -37 -11.5t-8 -43.5zM124 708h326 q100 0 174 -29t115.5 -80t60.5 -111.5t19 -131.5q0 -72 -21.5 -135.5t-64 -114.5t-113.5 -81t-163 -30q-63 0 -110 3q-62 2 -86 2q-29 0 -85 -2q-42 -3 -85 -3q-29 0 -53 14.5t-24 42.5q0 19 8.5 27.5t20.5 12t24.5 10.5t20.5 31.5t8 66.5v106q0 30 -16 30h-64 q-13 0 -15.5 10t-2.5 40q0 19 1 26.5t5 12.5t14 6h64q9 0 14 4.5t6.5 9t1.5 7.5v105q0 24 -11.5 37t-25 16t-25 13.5t-11.5 31.5q0 53 93 53z" />
<glyph unicode="&#xd1;" horiz-adv-x="873" d="M586 912q41 0 63 -11t22 -44q0 -41 -32.5 -71.5t-76.5 -30.5t-122 28.5t-92 28.5q-8 0 -10 -3t-2 -11q0 -43 -48 -43q-41 0 -63.5 11t-22.5 44q0 41 33 71.5t77 30.5q43 0 121.5 -28.5t92.5 -28.5q8 0 10 3t2 11q0 43 48 43zM312 668l237 -208q47 -39 62 -39q26 0 26 58 q0 65 -9 91q-6 17 -23 26.5t-30.5 20.5t-13.5 34q0 22 14.5 36t44 18.5t43 5.5t42.5 1h8q27 0 44.5 -1t44.5 -6t41.5 -19.5t14.5 -37.5q0 -19 -8.5 -30.5t-20 -15t-23.5 -12.5t-18 -24q-13 -36 -13 -136v-259v-10v-32q0 -12 -1.5 -35.5t-5.5 -39t-10.5 -32t-17.5 -25 t-26 -8.5q-23 0 -52 25l-309 277q-40 37 -61 37q-32 0 -32 -86q0 -61 7 -91q5 -21 17 -33.5t23 -16.5t19.5 -13.5t8.5 -25.5q0 -73 -150 -73q-149 0 -149 71q0 18 9.5 28.5t21 15t23 18t14.5 34.5q9 55 9 151q0 145 -11 217q-5 34 -20 52.5t-30 23t-26.5 15t-11.5 30.5 q0 67 168 67h5h7q47 0 65.5 -7t52.5 -37z" />
<glyph unicode="&#xd2;" horiz-adv-x="818" d="M489 745q-48 0 -90.5 14.5t-68 34.5t-40.5 39t-15 29q0 30 42 43t80 13q24 0 54 -7t30 -23q0 -6 -4 -12.5t-4 -10.5q0 -12 35 -36t35 -47q0 -37 -54 -37zM399 -14q-159 0 -267 104t-108 263q0 158 111 260t276 102q79 0 145.5 -26.5t109 -67.5t72 -91.5t42.5 -98 t13 -88.5q0 -104 -56 -187t-145.5 -126.5t-192.5 -43.5zM536 242q0 37 -10.5 89.5t-30.5 106t-54.5 91t-75.5 37.5q-39 0 -61.5 -33t-22.5 -74q0 -35 11.5 -87t31.5 -106.5t53.5 -92.5t71.5 -38q43 0 65 31t22 76z" />
<glyph unicode="&#xd3;" horiz-adv-x="818" d="M329 745q-54 0 -54 37q0 23 35 47t35 36q0 4 -4 10.5t-4 12.5q0 16 30 23t54 7q38 0 80 -13t42 -43q0 -10 -15 -29t-40.5 -39t-68 -34.5t-90.5 -14.5zM399 -14q-159 0 -267 104t-108 263q0 158 111 260t276 102q79 0 145.5 -26.5t109 -67.5t72 -91.5t42.5 -98t13 -88.5 q0 -104 -56 -187t-145.5 -126.5t-192.5 -43.5zM536 242q0 37 -10.5 89.5t-30.5 106t-54.5 91t-75.5 37.5q-39 0 -61.5 -33t-22.5 -74q0 -35 11.5 -87t31.5 -106.5t53.5 -92.5t71.5 -38q43 0 65 31t22 76z" />
<glyph unicode="&#xd4;" horiz-adv-x="818" d="M409 934q32 0 112.5 -57.5t80.5 -90.5q0 -18 -10.5 -30t-28.5 -12q-20 0 -75.5 28.5t-78.5 28.5t-78.5 -28.5t-75.5 -28.5q-18 0 -28.5 12t-10.5 30q0 33 80.5 90.5t112.5 57.5zM399 -14q-159 0 -267 104t-108 263q0 158 111 260t276 102q79 0 145.5 -26.5t109 -67.5 t72 -91.5t42.5 -98t13 -88.5q0 -104 -56 -187t-145.5 -126.5t-192.5 -43.5zM536 242q0 37 -10.5 89.5t-30.5 106t-54.5 91t-75.5 37.5q-39 0 -61.5 -33t-22.5 -74q0 -35 11.5 -87t31.5 -106.5t53.5 -92.5t71.5 -38q43 0 65 31t22 76z" />
<glyph unicode="&#xd5;" horiz-adv-x="818" d="M399 -14q-159 0 -267 104t-108 263q0 158 111 260t276 102q79 0 145.5 -26.5t109 -67.5t72 -91.5t42.5 -98t13 -88.5q0 -104 -56 -187t-145.5 -126.5t-192.5 -43.5zM536 242q0 37 -10.5 89.5t-30.5 106t-54.5 91t-75.5 37.5q-39 0 -61.5 -33t-22.5 -74q0 -35 11.5 -87 t31.5 -106.5t53.5 -92.5t71.5 -38q43 0 65 31t22 76zM559 912q41 0 63 -11t22 -44q0 -41 -32.5 -71.5t-76.5 -30.5q-43 0 -122 28.5t-92 28.5q-8 0 -10 -3t-2 -11q0 -43 -48 -43q-41 0 -63.5 11t-22.5 44q0 41 33 71.5t77 30.5q43 0 121.5 -28.5t92.5 -28.5q8 0 10 3t2 11 q0 43 48 43z" />
<glyph unicode="&#xd6;" horiz-adv-x="818" d="M387 840q0 -31 -32.5 -51.5t-67.5 -27t-66 -6.5q-36 0 -65.5 16.5t-29.5 49.5t29.5 53t60.5 25t64 5q40 0 73.5 -14.5t33.5 -49.5zM692 840q0 -31 -32.5 -51.5t-67.5 -27t-66 -6.5q-36 0 -65.5 16.5t-29.5 49.5t29.5 53t60.5 25t64 5q40 0 73.5 -14.5t33.5 -49.5z M399 -14q-159 0 -267 104t-108 263q0 158 111 260t276 102q79 0 145.5 -26.5t109 -67.5t72 -91.5t42.5 -98t13 -88.5q0 -104 -56 -187t-145.5 -126.5t-192.5 -43.5zM536 242q0 37 -10.5 89.5t-30.5 106t-54.5 91t-75.5 37.5q-39 0 -61.5 -33t-22.5 -74q0 -35 11.5 -87 t31.5 -106.5t53.5 -92.5t71.5 -38q43 0 65 31t22 76z" />
<glyph unicode="&#xd7;" d="M351 374l78 78q32 32 42 32q20 0 46 -27t26 -45q-1 -11 -32 -42l-78 -78q-29 -29 -29 -36t29 -36l78 -78q31 -31 32 -42q0 -18 -26 -45t-46 -27q-10 0 -42 32l-78 78q-29 29 -36 29t-36 -29l-78 -78q-32 -32 -42 -32q-20 0 -46 27t-26 45q1 11 32 42l78 78q29 29 29 36 t-29 36l-78 78q-31 31 -32 42q0 18 26 45t46 27q10 0 42 -32l78 -78q29 -29 36 -29t36 29z" />
<glyph unicode="&#xd8;" horiz-adv-x="818" d="M508 396l-176 -152q22 -48 49 -78.5t68 -30.5q43 0 65 31t22 76q0 56 -28 154zM763 617l-53 -46q83 -109 83 -228q0 -104 -56 -187t-145.5 -126.5t-192.5 -43.5q-70 0 -142.5 25.5t-115.5 70.5l-50 -44q-19 -16 -26 -16q-9 0 -22 13q-13 15 -13 23q0 12 21 28l49 42 q-76 91 -76 218v7q0 158 111 260t276 102q151 0 256 -96l56 50q14 12 24 12q11 0 23 -17q13 -17 13 -22q0 -4 -3 -8.5t-10 -10.5zM306 308l176 153q-17 42 -48.5 73.5t-68.5 31.5q-39 0 -61.5 -33t-22.5 -78q0 -57 25 -147z" />
<glyph unicode="&#xd9;" horiz-adv-x="862" d="M511 745q-48 0 -90.5 14.5t-68 34.5t-40.5 39t-15 29q0 30 42 43t80 13q24 0 54 -7t30 -23q0 -6 -4 -12.5t-4 -10.5q0 -12 35 -36t35 -47q0 -37 -54 -37zM629 279v249q0 36 -13.5 56t-29.5 24.5t-29.5 14.5t-13.5 29q0 60 157 60q148 0 148 -58q0 -18 -11.5 -28.5 t-26 -15t-26 -21.5t-11.5 -48v-270q0 -17 -0.5 -30.5t-7.5 -45t-18.5 -56t-37.5 -55t-61 -50.5t-92 -34t-128 -14q-261 0 -330 171q-21 50 -21 117q0 14 1 28v231q1 21 -8.5 37t-22 24t-23 20.5t-10.5 27.5v2q0 8 1 14t11 17t28.5 18t58.5 13t96 6q113 0 154.5 -18t41.5 -51 q0 -24 -11.5 -33.5t-25.5 -11t-26.5 -21.5t-14.5 -61v-184q0 -195 151 -195q32 0 58 8t41.5 18t26.5 27t15.5 28t7 29t2.5 21v11z" />
<glyph unicode="&#xda;" horiz-adv-x="862" d="M351 745q-54 0 -54 37q0 23 35 47t35 36q0 4 -4 10.5t-4 12.5q0 16 30 23t54 7q38 0 80 -13t42 -43q0 -10 -15 -29t-40.5 -39t-68 -34.5t-90.5 -14.5zM629 279v249q0 36 -13.5 56t-29.5 24.5t-29.5 14.5t-13.5 29q0 60 157 60q148 0 148 -58q0 -18 -11.5 -28.5t-26 -15 t-26 -21.5t-11.5 -48v-270q0 -17 -0.5 -30.5t-7.5 -45t-18.5 -56t-37.5 -55t-61 -50.5t-92 -34t-128 -14q-261 0 -330 171q-21 50 -21 117q0 14 1 28v231q1 21 -8.5 37t-22 24t-23 20.5t-10.5 27.5v2q0 8 1 14t11 17t28.5 18t58.5 13t96 6q113 0 154.5 -18t41.5 -51 q0 -24 -11.5 -33.5t-25.5 -11t-26.5 -21.5t-14.5 -61v-184q0 -195 151 -195q32 0 58 8t41.5 18t26.5 27t15.5 28t7 29t2.5 21v11z" />
<glyph unicode="&#xdb;" horiz-adv-x="862" d="M431 934q32 0 112.5 -57.5t80.5 -90.5q0 -18 -10.5 -30t-28.5 -12q-20 0 -75.5 28.5t-78.5 28.5t-78.5 -28.5t-75.5 -28.5q-18 0 -28.5 12t-10.5 30q0 33 80.5 90.5t112.5 57.5zM629 279v249q0 36 -13.5 56t-29.5 24.5t-29.5 14.5t-13.5 29q0 60 157 60q148 0 148 -58 q0 -18 -11.5 -28.5t-26 -15t-26 -21.5t-11.5 -48v-270q0 -17 -0.5 -30.5t-7.5 -45t-18.5 -56t-37.5 -55t-61 -50.5t-92 -34t-128 -14q-261 0 -330 171q-21 50 -21 117q0 14 1 28v231q1 21 -8.5 37t-22 24t-23 20.5t-10.5 27.5v2q0 8 1 14t11 17t28.5 18t58.5 13t96 6 q113 0 154.5 -18t41.5 -51q0 -24 -11.5 -33.5t-25.5 -11t-26.5 -21.5t-14.5 -61v-184q0 -195 151 -195q32 0 58 8t41.5 18t26.5 27t15.5 28t7 29t2.5 21v11z" />
<glyph unicode="&#xdc;" horiz-adv-x="862" d="M409 840q0 -31 -32.5 -51.5t-67.5 -27t-66 -6.5q-36 0 -65.5 16.5t-29.5 49.5t29.5 53t60.5 25t64 5q40 0 73.5 -14.5t33.5 -49.5zM714 840q0 -31 -32.5 -51.5t-67.5 -27t-66 -6.5q-36 0 -65.5 16.5t-29.5 49.5t29.5 53t60.5 25t64 5q40 0 73.5 -14.5t33.5 -49.5z M629 279v249q0 36 -13.5 56t-29.5 24.5t-29.5 14.5t-13.5 29q0 60 157 60q148 0 148 -58q0 -18 -11.5 -28.5t-26 -15t-26 -21.5t-11.5 -48v-270q0 -17 -0.5 -30.5t-7.5 -45t-18.5 -56t-37.5 -55t-61 -50.5t-92 -34t-128 -14q-261 0 -330 171q-21 50 -21 117q0 14 1 28v231 q1 21 -8.5 37t-22 24t-23 20.5t-10.5 27.5v2q0 8 1 14t11 17t28.5 18t58.5 13t96 6q113 0 154.5 -18t41.5 -51q0 -24 -11.5 -33.5t-25.5 -11t-26.5 -21.5t-14.5 -61v-184q0 -195 151 -195q32 0 58 8t41.5 18t26.5 27t15.5 28t7 29t2.5 21v11z" />
<glyph unicode="&#xdd;" horiz-adv-x="819" d="M330 745q-54 0 -54 37q0 23 35 47t35 36q0 4 -4 10.5t-4 12.5q0 16 30 23t54 7q38 0 80 -13t42 -43q0 -10 -15 -29t-40.5 -39t-68 -34.5t-90.5 -14.5zM697 572l-123 -135q-31 -39 -39 -68.5t-8 -86.5q0 -121 14 -151q5 -11 22.5 -19.5t31 -19.5t13.5 -31q0 -72 -207 -72 q-222 0 -222 72q0 23 14.5 33t34 18t26.5 24q16 37 16 166q0 42 -8.5 64t-35.5 57l-113 131q-20 23 -50 36t-47 23t-17 31q0 11 1 16.5t12 17t32.5 17.5t68 11.5t112.5 5.5q59 0 101 -4.5t62 -10t30.5 -15.5t11.5 -15.5t1 -15.5q0 -14 -14 -30.5t-14 -26.5q0 -18 23.5 -51.5 t41.5 -33.5q19 0 43.5 29t24.5 47q0 13 -14.5 30.5t-14.5 37.5q0 59 154 59q92 0 125 -12.5t33 -46.5q0 -22 -12.5 -32t-29.5 -12t-40.5 -10.5t-39.5 -26.5z" />
<glyph unicode="&#xde;" horiz-adv-x="719" d="M107 156v383q0 29 -11.5 45.5t-25 20t-25 13.5t-11.5 28q0 66 190 66q189 0 189 -67q0 -15 -12 -26t-26.5 -17t-26.5 -19t-12 -32q0 -21 28 -21q8 0 35 2t43 2q111 0 188 -42.5t77 -126.5q0 -85 -76.5 -130.5t-188.5 -45.5q-15 0 -45 2t-45 2q-16 0 -16 -33 q0 -26 12 -41.5t26.5 -20.5t26.5 -15t12 -26q0 -68 -189 -68q-190 0 -190 66q0 18 11.5 28t25 13.5t25 18t11.5 41.5zM491 360q0 36 -23 62t-64 26q-36 0 -51 -8t-15 -28v-106q0 -31 62 -31q43 0 67 26.5t24 58.5z" />
<glyph unicode="&#xdf;" horiz-adv-x="678" d="M73 164v227q0 78 25.5 137.5t70 93t98 50t115.5 16.5q50 0 85.5 -14.5t52 -37t23 -41.5t6.5 -35q0 -30 -15.5 -54t-15.5 -30q0 -17 23 -53t50 -74.5t50 -93.5t23 -106q0 -73 -47.5 -116.5t-121.5 -43.5q-52 0 -88.5 30t-36.5 59q0 8 9.5 14t20.5 10.5t20.5 17.5t9.5 34 q0 39 -52.5 121.5t-52.5 118.5q0 34 15.5 60t33.5 39t33.5 28t15.5 28q0 36 -44 36q-13 0 -25 -5t-26.5 -19.5t-24.5 -37t-16 -62.5q-5 -34 -5 -77v-14q2 -97 7 -178q2 -42 11.5 -66t19 -29t17 -13t7.5 -23q0 -72 -189 -72q-145 0 -145 63q0 14 10 25.5t21.5 18.5t21.5 24.5 t10 43.5z" />
<glyph unicode="&#xe0;" horiz-adv-x="596" d="M279 215q-25 0 -41 -19.5t-16 -44.5q0 -21 11.5 -37.5t31.5 -16.5q41 0 41 71q0 16 -0.5 23t-7 15.5t-19.5 8.5zM522 339v-100q0 -41 4.5 -67t11 -34t14.5 -11.5t14.5 -2t11 -3t4.5 -16.5q0 -43 -48 -81t-103 -38q-34 0 -55 13t-31.5 25.5t-19.5 12.5q-5 0 -11.5 -3.5 t-17 -10.5t-18.5 -11q-44 -26 -98 -26q-68 0 -117 36.5t-49 106.5q0 62 61.5 110.5t182.5 48.5q16 0 20.5 0.5t12.5 3t10 10t2 20.5q0 102 -47 102q-20 0 -37.5 -17t-29.5 -37t-35 -37t-53 -17q-24 0 -40 15.5t-16 39.5q0 58 90.5 99t173.5 41q21 0 44.5 -3t55 -14.5 t55.5 -29t41 -50t17 -75.5zM378 561q-48 0 -90.5 14.5t-68 34.5t-40.5 39t-15 29q0 30 42 43t80 13q24 0 54 -7t30 -23q0 -6 -4 -12.5t-4 -10.5q0 -12 35 -36t35 -47q0 -37 -54 -37z" />
<glyph unicode="&#xe1;" horiz-adv-x="596" d="M218 561q-54 0 -54 37q0 23 35 47t35 36q0 4 -4 10.5t-4 12.5q0 16 30 23t54 7q38 0 80 -13t42 -43q0 -10 -15 -29t-40.5 -39t-68 -34.5t-90.5 -14.5zM279 215q-25 0 -41 -19.5t-16 -44.5q0 -21 11.5 -37.5t31.5 -16.5q41 0 41 71q0 16 -0.5 23t-7 15.5t-19.5 8.5z M522 339v-100q0 -41 4.5 -67t11 -34t14.5 -11.5t14.5 -2t11 -3t4.5 -16.5q0 -43 -48 -81t-103 -38q-34 0 -55 13t-31.5 25.5t-19.5 12.5q-5 0 -11.5 -3.5t-17 -10.5t-18.5 -11q-44 -26 -98 -26q-68 0 -117 36.5t-49 106.5q0 62 61.5 110.5t182.5 48.5q16 0 20.5 0.5t12.5 3 t10 10t2 20.5q0 102 -47 102q-20 0 -37.5 -17t-29.5 -37t-35 -37t-53 -17q-24 0 -40 15.5t-16 39.5q0 58 90.5 99t173.5 41q21 0 44.5 -3t55 -14.5t55.5 -29t41 -50t17 -75.5z" />
<glyph unicode="&#xe2;" horiz-adv-x="596" d="M298 750q32 0 112.5 -57.5t80.5 -90.5q0 -18 -10.5 -30t-28.5 -12q-20 0 -75.5 28.5t-78.5 28.5t-78.5 -28.5t-75.5 -28.5q-18 0 -28.5 12t-10.5 30q0 33 80.5 90.5t112.5 57.5zM279 215q-25 0 -41 -19.5t-16 -44.5q0 -21 11.5 -37.5t31.5 -16.5q41 0 41 71q0 16 -0.5 23 t-7 15.5t-19.5 8.5zM522 339v-100q0 -41 4.5 -67t11 -34t14.5 -11.5t14.5 -2t11 -3t4.5 -16.5q0 -43 -48 -81t-103 -38q-34 0 -55 13t-31.5 25.5t-19.5 12.5q-5 0 -11.5 -3.5t-17 -10.5t-18.5 -11q-44 -26 -98 -26q-68 0 -117 36.5t-49 106.5q0 62 61.5 110.5t182.5 48.5 q16 0 20.5 0.5t12.5 3t10 10t2 20.5q0 102 -47 102q-20 0 -37.5 -17t-29.5 -37t-35 -37t-53 -17q-24 0 -40 15.5t-16 39.5q0 58 90.5 99t173.5 41q21 0 44.5 -3t55 -14.5t55.5 -29t41 -50t17 -75.5z" />
<glyph unicode="&#xe3;" horiz-adv-x="596" d="M448 728q41 0 63 -11t22 -44q0 -41 -32.5 -71.5t-76.5 -30.5t-122 28.5t-92 28.5q-8 0 -10 -3t-2 -11q0 -43 -48 -43q-41 0 -63.5 11t-22.5 44q0 41 33 71.5t77 30.5q43 0 121.5 -28.5t92.5 -28.5q8 0 10 3t2 11q0 43 48 43zM279 215q-25 0 -41 -19.5t-16 -44.5 q0 -21 11.5 -37.5t31.5 -16.5q41 0 41 71q0 16 -0.5 23t-7 15.5t-19.5 8.5zM522 339v-100q0 -41 4.5 -67t11 -34t14.5 -11.5t14.5 -2t11 -3t4.5 -16.5q0 -43 -48 -81t-103 -38q-34 0 -55 13t-31.5 25.5t-19.5 12.5q-5 0 -11.5 -3.5t-17 -10.5t-18.5 -11q-44 -26 -98 -26 q-68 0 -117 36.5t-49 106.5q0 62 61.5 110.5t182.5 48.5q16 0 20.5 0.5t12.5 3t10 10t2 20.5q0 102 -47 102q-20 0 -37.5 -17t-29.5 -37t-35 -37t-53 -17q-24 0 -40 15.5t-16 39.5q0 58 90.5 99t173.5 41q21 0 44.5 -3t55 -14.5t55.5 -29t41 -50t17 -75.5z" />
<glyph unicode="&#xe4;" horiz-adv-x="596" d="M276 656q0 -31 -32.5 -51.5t-67.5 -27t-66 -6.5q-36 0 -65.5 16.5t-29.5 49.5t29.5 53t60.5 25t64 5q40 0 73.5 -14.5t33.5 -49.5zM581 656q0 -31 -32.5 -51.5t-67.5 -27t-66 -6.5q-36 0 -65.5 16.5t-29.5 49.5t29.5 53t60.5 25t64 5q40 0 73.5 -14.5t33.5 -49.5z M279 215q-25 0 -41 -19.5t-16 -44.5q0 -21 11.5 -37.5t31.5 -16.5q41 0 41 71q0 16 -0.5 23t-7 15.5t-19.5 8.5zM522 339v-100q0 -41 4.5 -67t11 -34t14.5 -11.5t14.5 -2t11 -3t4.5 -16.5q0 -43 -48 -81t-103 -38q-34 0 -55 13t-31.5 25.5t-19.5 12.5q-5 0 -11.5 -3.5 t-17 -10.5t-18.5 -11q-44 -26 -98 -26q-68 0 -117 36.5t-49 106.5q0 62 61.5 110.5t182.5 48.5q16 0 20.5 0.5t12.5 3t10 10t2 20.5q0 102 -47 102q-20 0 -37.5 -17t-29.5 -37t-35 -37t-53 -17q-24 0 -40 15.5t-16 39.5q0 58 90.5 99t173.5 41q21 0 44.5 -3t55 -14.5 t55.5 -29t41 -50t17 -75.5z" />
<glyph unicode="&#xe5;" horiz-adv-x="596" d="M279 215q-25 0 -41 -19.5t-16 -44.5q0 -21 11.5 -37.5t31.5 -16.5q41 0 41 71q0 16 -0.5 23t-7 15.5t-19.5 8.5zM522 339v-100q0 -41 4.5 -67t11 -34t14.5 -11.5t14.5 -2t11 -3t4.5 -16.5q0 -43 -48 -81t-103 -38q-34 0 -55 13t-31.5 25.5t-19.5 12.5q-5 0 -11.5 -3.5 t-17 -10.5t-18.5 -11q-44 -26 -98 -26q-68 0 -117 36.5t-49 106.5q0 62 61.5 110.5t182.5 48.5q16 0 20.5 0.5t12.5 3t10 10t2 20.5q0 102 -47 102q-20 0 -37.5 -17t-29.5 -37t-35 -37t-53 -17q-24 0 -40 15.5t-16 39.5q0 58 90.5 99t173.5 41q21 0 44.5 -3t55 -14.5 t55.5 -29t41 -50t17 -75.5zM439 664q0 -39 -26 -64t-58 -33t-69 -8q-65 0 -109 24t-44 81t44 81t109 24q37 0 69 -8t58 -33t26 -64zM336 664q0 24 -13 41t-37 17t-37 -17t-13 -41t13 -41t37 -17t37 17t13 41z" />
<glyph unicode="&#xe6;" horiz-adv-x="840" d="M575 326h13h14q4 0 12 1.5t11 4.5t6 9t3 15q0 28 -16 46t-43 18q-24 0 -42 -20.5t-18 -45.5q0 -10 3 -16.5t11 -9t13 -3t17.5 0t15.5 0.5zM279 215q-25 0 -41 -19.5t-16 -44.5q0 -21 11.5 -37.5t31.5 -16.5q41 0 41 71q0 16 -0.5 23t-7 15.5t-19.5 8.5zM764 230h-217h-5 h-7q-2 0 -5.5 -0.5t-5 -2t-3 -4.5t-1.5 -7q0 -36 37 -64t75 -28q44 0 86.5 22.5t46.5 22.5q15 0 27 -17t12 -33q0 -54 -78 -93.5t-153 -39.5q-32 0 -61.5 6.5t-49.5 15t-35 17.5t-23.5 15.5t-10.5 6.5l-15 -7l-38 -15q-23 -9 -50 -17.5t-57 -15t-53 -6.5q-68 0 -117 36.5 t-49 106.5q0 62 61.5 110.5t182.5 48.5q16 0 20.5 0.5t12.5 3t10 10t2 20.5q0 102 -47 102q-20 0 -37.5 -17t-29.5 -37t-35 -37t-53 -17q-24 0 -40 15.5t-16 39.5q0 58 90.5 99t173.5 41q20 0 40.5 -3t35.5 -6.5t27 -7.5t19 -7l7 -3l20 7q19 7 53 13.5t70 6.5 q60 0 109.5 -21.5t77.5 -54t43 -66.5t15 -64q0 -45 -16.5 -60t-45.5 -15z" />
<glyph unicode="&#xe7;" horiz-adv-x="553" d="M17 250q0 109 84 185t209 76q105 0 167 -47.5t62 -105.5q0 -42 -28 -70.5t-70 -28.5q-36 0 -55.5 19.5t-24 42.5t-18 42.5t-39.5 19.5q-31 0 -49.5 -26t-18.5 -59q0 -58 38.5 -103.5t95.5 -45.5q37 0 68.5 13t36.5 13q19 0 32 -17.5t13 -36.5q0 -47 -63 -90t-158 -44 l49 -48q2 -2 10.5 -10t11.5 -11.5t8.5 -10.5t7.5 -14t2 -14q0 -21 -20 -36t-43 -20t-43 -5q-48 0 -70 17t-22 34q0 19 17 27t33.5 12t16.5 12q0 5 -7 17l-42 62q-85 24 -138 92t-53 159z" />
<glyph unicode="&#xe8;" horiz-adv-x="557" d="M481 230h-217h-6h-6q-2 0 -5.5 -0.5t-5 -2t-3 -4.5t-1.5 -7q0 -36 37 -64t75 -28q44 0 86.5 22.5t46.5 22.5q15 0 27 -17t12 -33q0 -54 -78 -93.5t-153 -39.5q-128 0 -200.5 77t-72.5 182q0 113 83 189.5t198 76.5q60 0 109.5 -21.5t77.5 -54t43 -66.5t15 -64 q0 -45 -16.5 -60t-45.5 -15zM292 326h13h15q3 0 11 1.5t11 4.5t6 9t3 15q0 28 -16 46t-43 18q-24 0 -42 -20.5t-18 -45.5q0 -10 3 -16.5t11 -9t13 -2.5q2 -1 6.5 -1t10.5 1h16zM359 561q-48 0 -90.5 14.5t-68 34.5t-40.5 39t-15 29q0 30 42 43t80 13q24 0 54 -7t30 -23 q0 -6 -4 -12.5t-4 -10.5q0 -12 35 -36t35 -47q0 -37 -54 -37z" />
<glyph unicode="&#xe9;" horiz-adv-x="557" d="M199 561q-54 0 -54 37q0 23 35 47t35 36q0 4 -4 10.5t-4 12.5q0 16 30 23t54 7q38 0 80 -13t42 -43q0 -10 -15 -29t-40.5 -39t-68 -34.5t-90.5 -14.5zM481 230h-217h-6h-6q-2 0 -5.5 -0.5t-5 -2t-3 -4.5t-1.5 -7q0 -36 37 -64t75 -28q44 0 86.5 22.5t46.5 22.5 q15 0 27 -17t12 -33q0 -54 -78 -93.5t-153 -39.5q-128 0 -200.5 77t-72.5 182q0 113 83 189.5t198 76.5q60 0 109.5 -21.5t77.5 -54t43 -66.5t15 -64q0 -45 -16.5 -60t-45.5 -15zM292 326h13h15q3 0 11 1.5t11 4.5t6 9t3 15q0 28 -16 46t-43 18q-24 0 -42 -20.5t-18 -45.5 q0 -10 3 -16.5t11 -9t13 -2.5q2 -1 6.5 -1t10.5 1h16z" />
<glyph unicode="&#xea;" horiz-adv-x="557" d="M278 750q32 0 112.5 -57.5t80.5 -90.5q0 -18 -10.5 -30t-28.5 -12q-20 0 -75.5 28.5t-78.5 28.5t-78.5 -28.5t-75.5 -28.5q-18 0 -28.5 12t-10.5 30q0 33 80.5 90.5t112.5 57.5zM481 230h-217h-6h-6q-2 0 -5.5 -0.5t-5 -2t-3 -4.5t-1.5 -7q0 -36 37 -64t75 -28 q44 0 86.5 22.5t46.5 22.5q15 0 27 -17t12 -33q0 -54 -78 -93.5t-153 -39.5q-128 0 -200.5 77t-72.5 182q0 113 83 189.5t198 76.5q60 0 109.5 -21.5t77.5 -54t43 -66.5t15 -64q0 -45 -16.5 -60t-45.5 -15zM292 326h13h15q3 0 11 1.5t11 4.5t6 9t3 15q0 28 -16 46t-43 18 q-24 0 -42 -20.5t-18 -45.5q0 -10 3 -16.5t11 -9t13 -2.5q2 -1 6.5 -1t10.5 1h16z" />
<glyph unicode="&#xeb;" horiz-adv-x="557" d="M257 656q0 -31 -32.5 -51.5t-67.5 -27t-66 -6.5q-36 0 -65.5 16.5t-29.5 49.5t29.5 53t60.5 25t64 5q40 0 73.5 -14.5t33.5 -49.5zM562 656q0 -31 -32.5 -51.5t-67.5 -27t-66 -6.5q-36 0 -65.5 16.5t-29.5 49.5t29.5 53t60.5 25t64 5q40 0 73.5 -14.5t33.5 -49.5z M481 230h-217h-6h-6q-2 0 -5.5 -0.5t-5 -2t-3 -4.5t-1.5 -7q0 -36 37 -64t75 -28q44 0 86.5 22.5t46.5 22.5q15 0 27 -17t12 -33q0 -54 -78 -93.5t-153 -39.5q-128 0 -200.5 77t-72.5 182q0 113 83 189.5t198 76.5q60 0 109.5 -21.5t77.5 -54t43 -66.5t15 -64 q0 -45 -16.5 -60t-45.5 -15zM292 326h13h15q3 0 11 1.5t11 4.5t6 9t3 15q0 28 -16 46t-43 18q-24 0 -42 -20.5t-18 -45.5q0 -10 3 -16.5t11 -9t13 -2.5q2 -1 6.5 -1t10.5 1h16z" />
<glyph unicode="&#xec;" horiz-adv-x="375" d="M268 561q-48 0 -90.5 14.5t-68 34.5t-40.5 39t-15 29q0 30 42 43t80 13q24 0 54 -7t30 -23q0 -6 -4 -12.5t-4 -10.5q0 -12 35 -36t35 -47q0 -37 -54 -37zM305 464v-279q0 -40 9 -62t20.5 -26.5t20.5 -13.5t9 -26q0 -68 -172 -68q-49 0 -84.5 4.5t-53 10.5t-27.5 15.5 t-12 16.5t-2 16q0 20 24 38t29 31q10 26 11 108v18q0 67 -7 91q-3 11 -13 19t-20.5 12t-18.5 13.5t-8 24.5q0 32 66.5 57t124.5 34.5t73 9.5q20 0 25.5 -11.5t5.5 -32.5z" />
<glyph unicode="&#xed;" horiz-adv-x="375" d="M108 561q-54 0 -54 37q0 23 35 47t35 36q0 4 -4 10.5t-4 12.5q0 16 30 23t54 7q38 0 80 -13t42 -43q0 -10 -15 -29t-40.5 -39t-68 -34.5t-90.5 -14.5zM305 464v-279q0 -40 9 -62t20.5 -26.5t20.5 -13.5t9 -26q0 -68 -172 -68q-49 0 -84.5 4.5t-53 10.5t-27.5 15.5 t-12 16.5t-2 16q0 20 24 38t29 31q10 26 11 108v18q0 67 -7 91q-3 11 -13 19t-20.5 12t-18.5 13.5t-8 24.5q0 32 66.5 57t124.5 34.5t73 9.5q20 0 25.5 -11.5t5.5 -32.5z" />
<glyph unicode="&#xee;" horiz-adv-x="375" d="M187 750q32 0 112.5 -57.5t80.5 -90.5q0 -18 -10.5 -30t-28.5 -12q-20 0 -75.5 28.5t-78.5 28.5t-78.5 -28.5t-75.5 -28.5q-18 0 -28.5 12t-10.5 30q0 33 80.5 90.5t112.5 57.5zM305 464v-279q0 -40 9 -62t20.5 -26.5t20.5 -13.5t9 -26q0 -68 -172 -68q-49 0 -84.5 4.5 t-53 10.5t-27.5 15.5t-12 16.5t-2 16q0 20 24 38t29 31q10 26 11 108v18q0 67 -7 91q-3 11 -13 19t-20.5 12t-18.5 13.5t-8 24.5q0 32 66.5 57t124.5 34.5t73 9.5q20 0 25.5 -11.5t5.5 -32.5z" />
<glyph unicode="&#xef;" horiz-adv-x="375" d="M166 656q0 -31 -32.5 -51.5t-67.5 -27t-66 -6.5q-36 0 -65.5 16.5t-29.5 49.5t29.5 53t60.5 25t64 5q40 0 73.5 -14.5t33.5 -49.5zM471 656q0 -31 -32.5 -51.5t-67.5 -27t-66 -6.5q-36 0 -65.5 16.5t-29.5 49.5t29.5 53t60.5 25t64 5q40 0 73.5 -14.5t33.5 -49.5z M305 464v-279q0 -40 9 -62t20.5 -26.5t20.5 -13.5t9 -26q0 -68 -172 -68q-49 0 -84.5 4.5t-53 10.5t-27.5 15.5t-12 16.5t-2 16q0 20 24 38t29 31q10 26 11 108v18q0 67 -7 91q-3 11 -13 19t-20.5 12t-18.5 13.5t-8 24.5q0 32 66.5 57t124.5 34.5t73 9.5q20 0 25.5 -11.5 t5.5 -32.5z" />
<glyph unicode="&#xf0;" horiz-adv-x="633" d="M393 210q-1 66 -29 125q-28 58 -66 58h-1q-27 0 -41.5 -29.5t-14.5 -77.5q0 -61 32 -117.5t66 -56.5q31 0 43 24q11 23 11 67v7zM162 658q0 19 56.5 42.5t77.5 23.5q6 0 14 -3t13 -6.5t15 -9.5l12 -8q13 -8 22 -8q12 2 38 15q11 5 26.5 14t26 14.5t15.5 5.5q20 0 34 -14 q12 -12 12 -23q0 -6 -41.5 -25.5t-41.5 -31.5q0 -17 31 -44q76 -64 113.5 -144.5t37.5 -144.5q0 -72 -20.5 -129.5t-53 -93.5t-77 -59.5t-89 -33t-92.5 -9.5q-113 0 -193 69.5t-80 175.5q0 90 21 138.5t70 81.5q54 36 125 36q10 0 30.5 -6t23.5 -6q11 0 11 24q0 19 -21 39 t-35 20q-6 0 -21 -6.5t-35 -17t-23 -11.5q-2 -1 -9.5 -4.5t-13.5 -5.5t-9 -2q-18 0 -30 13q-16 18 -16 25q0 4 15 13t42 21t28 13q24 11 24 18t-16.5 20.5t-16.5 23.5z" />
<glyph unicode="&#xf1;" horiz-adv-x="705" d="M502 728q41 0 63 -11t22 -44q0 -41 -32.5 -71.5t-76.5 -30.5t-122 28.5t-92 28.5q-8 0 -10 -3t-2 -11q0 -43 -48 -43q-41 0 -63.5 11t-22.5 44q0 41 33 71.5t77 30.5q43 0 121.5 -28.5t92.5 -28.5q8 0 10 3t2 11q0 43 48 43zM298 244v-77q0 -42 8.5 -63t17 -31t8.5 -24 q0 -60 -174 -60q-142 0 -142 60q0 16 7.5 23t16 9.5t16.5 20t9 50.5l4 150q1 25 -8 40t-20.5 19.5t-21 15.5t-9.5 28q0 34 108.5 68.5t141.5 34.5q16 0 26 -11.5t10 -27.5q0 -3 -0.5 -9t-0.5 -9q0 -26 20 -26q7 0 13 5t16 18l16 19q41 41 107 41q43 0 74.5 -11t50.5 -33.5 t30.5 -46.5t16 -61.5t6 -65t2 -70.5t2.5 -67q2 -27 9.5 -43.5t15.5 -22t14.5 -15t6.5 -23.5q0 -9 -1 -13.5t-10 -15t-26.5 -16t-55.5 -10.5t-91 -5q-132 0 -132 54q0 15 17.5 31.5t20.5 52.5q1 8 3.5 34.5t3 43t0.5 42.5q1 3 1 6q0 22 -4 37q-4 17 -11 34t-21 25.5t-33 8.5 q-10 0 -18.5 -2t-14.5 -8l-11 -9q-4 -4 -6.5 -14t-4.5 -14.5t-2.5 -17.5t-0.5 -16v-17v-16z" />
<glyph unicode="&#xf2;" horiz-adv-x="633" d="M292 -14q-116 0 -195 65.5t-79 179.5q0 128 95.5 204t226.5 76q124 0 199.5 -80t75.5 -181q0 -78 -50.5 -140t-123.5 -93t-149 -31zM385 174q0 21 -4.5 54t-13.5 72t-27.5 66t-42.5 27t-37 -19q-12 -16 -12 -35v-6q2 -31 6.5 -62t14 -69.5t28 -63.5t42.5 -26h3 q24 0 33 16q10 17 10 46zM397 561q-48 0 -90.5 14.5t-68 34.5t-40.5 39t-15 29q0 30 42 43t80 13q24 0 54 -7t30 -23q0 -6 -4 -12.5t-4 -10.5q0 -12 35 -36t35 -47q0 -37 -54 -37z" />
<glyph unicode="&#xf3;" horiz-adv-x="633" d="M237 561q-54 0 -54 37q0 23 35 47t35 36q0 4 -4 10.5t-4 12.5q0 16 30 23t54 7q38 0 80 -13t42 -43q0 -10 -15 -29t-40.5 -39t-68 -34.5t-90.5 -14.5zM292 -14q-116 0 -195 65.5t-79 179.5q0 128 95.5 204t226.5 76q124 0 199.5 -80t75.5 -181q0 -78 -50.5 -140 t-123.5 -93t-149 -31zM385 174q0 21 -4.5 54t-13.5 72t-27.5 66t-42.5 27t-37 -19q-12 -16 -12 -35v-6q2 -31 6.5 -62t14 -69.5t28 -63.5t42.5 -26h3q24 0 33 16q10 17 10 46z" />
<glyph unicode="&#xf4;" horiz-adv-x="633" d="M316 750q32 0 112.5 -57.5t80.5 -90.5q0 -18 -10.5 -30t-28.5 -12q-20 0 -75.5 28.5t-78.5 28.5t-78.5 -28.5t-75.5 -28.5q-18 0 -28.5 12t-10.5 30q0 33 80.5 90.5t112.5 57.5zM292 -14q-116 0 -195 65.5t-79 179.5q0 128 95.5 204t226.5 76q124 0 199.5 -80t75.5 -181 q0 -78 -50.5 -140t-123.5 -93t-149 -31zM385 174q0 21 -4.5 54t-13.5 72t-27.5 66t-42.5 27t-37 -19q-12 -16 -12 -35v-6q2 -31 6.5 -62t14 -69.5t28 -63.5t42.5 -26h3q24 0 33 16q10 17 10 46z" />
<glyph unicode="&#xf5;" horiz-adv-x="633" d="M466 728q41 0 63 -11t22 -44q0 -41 -32.5 -71.5t-76.5 -30.5t-122 28.5t-92 28.5q-8 0 -10 -3t-2 -11q0 -43 -48 -43q-41 0 -63.5 11t-22.5 44q0 41 33 71.5t77 30.5q43 0 121.5 -28.5t92.5 -28.5q8 0 10 3t2 11q0 43 48 43zM292 -14q-116 0 -195 65.5t-79 179.5 q0 128 95.5 204t226.5 76q124 0 199.5 -80t75.5 -181q0 -78 -50.5 -140t-123.5 -93t-149 -31zM385 174q0 21 -4.5 54t-13.5 72t-27.5 66t-42.5 27t-37 -19q-12 -16 -12 -35v-6q2 -31 6.5 -62t14 -69.5t28 -63.5t42.5 -26h3q24 0 33 16q10 17 10 46z" />
<glyph unicode="&#xf6;" horiz-adv-x="633" d="M295 656q0 -31 -32.5 -51.5t-67.5 -27t-66 -6.5q-36 0 -65.5 16.5t-29.5 49.5t29.5 53t60.5 25t64 5q40 0 73.5 -14.5t33.5 -49.5zM600 656q0 -31 -32.5 -51.5t-67.5 -27t-66 -6.5q-36 0 -65.5 16.5t-29.5 49.5t29.5 53t60.5 25t64 5q40 0 73.5 -14.5t33.5 -49.5z M292 -14q-116 0 -195 65.5t-79 179.5q0 128 95.5 204t226.5 76q124 0 199.5 -80t75.5 -181q0 -78 -50.5 -140t-123.5 -93t-149 -31zM385 174q0 21 -4.5 54t-13.5 72t-27.5 66t-42.5 27t-37 -19q-12 -16 -12 -35v-6q2 -31 6.5 -62t14 -69.5t28 -63.5t42.5 -26h3q24 0 33 16 q10 17 10 46z" />
<glyph unicode="&#xf7;" d="M492 198h-354h-9q-18 0 -25.5 1t-16.5 6t-11.5 17t-2.5 34t2.5 34t11.5 17t16 6t26 1h9h354h9q18 0 25.5 -1t16.5 -6t11.5 -17t2.5 -34t-2.5 -34t-11.5 -17t-16 -6t-26 -1h-9zM315 164q31 0 53 -22t22 -53t-22 -53t-53 -22t-53 22t-22 53t22 53t53 22zM315 498 q31 0 53 -22t22 -53t-22 -53t-53 -22t-53 22t-22 53t22 53t53 22z" />
<glyph unicode="&#xf8;" horiz-adv-x="633" d="M525 443l22 16q1 1 7 6l12 9q6 4 12.5 7.5t10.5 3.5q12 0 22 -12t10 -24q0 -7 -5.5 -13.5t-16 -14t-11.5 -8.5l-21 -15q48 -69 48 -148q0 -78 -50.5 -140t-123.5 -93t-149 -31q-121 0 -198 66l-21 -15q-32 -25 -41 -25q-12 0 -22 12t-10 23q0 5 2 9t6 8t7 6l9 6q5 3 6 4 l25 19q-37 54 -37 132q0 128 95.5 204t226.5 76q118 0 185 -68zM374 257l-98 -73q23 -72 63 -72q46 0 46 62q0 32 -11 83zM260 248l98 72l-10 26q-2 7 -10 21.5t-18 20t-23 5.5q-23 0 -36 -18t-13 -42q0 -35 12 -85z" />
<glyph unicode="&#xf9;" horiz-adv-x="712" d="M301 470v-254q0 -102 57 -102q15 0 26 4.5t17.5 15.5t11 20t6 27t2 25.5t0 27t-0.5 22.5q0 82 -4 108q-4 25 -30.5 39.5t-26.5 35.5q0 27 55.5 44t103 21t80.5 4q51 0 51 -56q0 -16 -1 -47.5t-1 -47.5v-201q0 -20 8.5 -31t19 -13.5t19 -11t8.5 -24.5q0 -24 -28 -42 t-68.5 -27t-75.5 -13.5t-60 -4.5q-26 0 -37 9.5t-10 20.5t-2.5 20.5t-16.5 9.5q-5 0 -11.5 -3.5t-19 -12.5t-20.5 -14q-48 -30 -100 -30q-37 0 -65.5 7.5t-46.5 21.5t-31 33t-18.5 42t-9 49.5t-3.5 55.5v58v33q0 43 -7 68t-17.5 33t-20.5 12.5t-17 12.5t-7 26q0 22 37.5 37 t91.5 20.5t84.5 7.5t46.5 2q20 0 25.5 -8.5t5.5 -29.5zM436 561q-48 0 -90.5 14.5t-68 34.5t-40.5 39t-15 29q0 30 42 43t80 13q24 0 54 -7t30 -23q0 -6 -4 -12.5t-4 -10.5q0 -12 35 -36t35 -47q0 -37 -54 -37z" />
<glyph unicode="&#xfa;" horiz-adv-x="712" d="M276 561q-54 0 -54 37q0 23 35 47t35 36q0 4 -4 10.5t-4 12.5q0 16 30 23t54 7q38 0 80 -13t42 -43q0 -10 -15 -29t-40.5 -39t-68 -34.5t-90.5 -14.5zM301 470v-254q0 -102 57 -102q15 0 26 4.5t17.5 15.5t11 20t6 27t2 25.5t0 27t-0.5 22.5q0 82 -4 108 q-4 25 -30.5 39.5t-26.5 35.5q0 27 55.5 44t103 21t80.5 4q51 0 51 -56q0 -16 -1 -47.5t-1 -47.5v-201q0 -20 8.5 -31t19 -13.5t19 -11t8.5 -24.5q0 -24 -28 -42t-68.5 -27t-75.5 -13.5t-60 -4.5q-26 0 -37 9.5t-10 20.5t-2.5 20.5t-16.5 9.5q-5 0 -11.5 -3.5t-19 -12.5 t-20.5 -14q-48 -30 -100 -30q-37 0 -65.5 7.5t-46.5 21.5t-31 33t-18.5 42t-9 49.5t-3.5 55.5v58v33q0 43 -7 68t-17.5 33t-20.5 12.5t-17 12.5t-7 26q0 22 37.5 37t91.5 20.5t84.5 7.5t46.5 2q20 0 25.5 -8.5t5.5 -29.5z" />
<glyph unicode="&#xfb;" horiz-adv-x="712" d="M356 750q32 0 112.5 -57.5t80.5 -90.5q0 -18 -10.5 -30t-28.5 -12q-20 0 -75.5 28.5t-78.5 28.5t-78.5 -28.5t-75.5 -28.5q-18 0 -28.5 12t-10.5 30q0 33 80.5 90.5t112.5 57.5zM301 470v-254q0 -102 57 -102q15 0 26 4.5t17.5 15.5t11 20t6 27t2 25.5t0 27t-0.5 22.5 q0 82 -4 108q-4 25 -30.5 39.5t-26.5 35.5q0 27 55.5 44t103 21t80.5 4q51 0 51 -56q0 -16 -1 -47.5t-1 -47.5v-201q0 -20 8.5 -31t19 -13.5t19 -11t8.5 -24.5q0 -24 -28 -42t-68.5 -27t-75.5 -13.5t-60 -4.5q-26 0 -37 9.5t-10 20.5t-2.5 20.5t-16.5 9.5q-5 0 -11.5 -3.5 t-19 -12.5t-20.5 -14q-48 -30 -100 -30q-37 0 -65.5 7.5t-46.5 21.5t-31 33t-18.5 42t-9 49.5t-3.5 55.5v58v33q0 43 -7 68t-17.5 33t-20.5 12.5t-17 12.5t-7 26q0 22 37.5 37t91.5 20.5t84.5 7.5t46.5 2q20 0 25.5 -8.5t5.5 -29.5z" />
<glyph unicode="&#xfc;" horiz-adv-x="712" d="M334 656q0 -31 -32.5 -51.5t-67.5 -27t-66 -6.5q-36 0 -65.5 16.5t-29.5 49.5t29.5 53t60.5 25t64 5q40 0 73.5 -14.5t33.5 -49.5zM639 656q0 -31 -32.5 -51.5t-67.5 -27t-66 -6.5q-36 0 -65.5 16.5t-29.5 49.5t29.5 53t60.5 25t64 5q40 0 73.5 -14.5t33.5 -49.5z M301 470v-254q0 -102 57 -102q15 0 26 4.5t17.5 15.5t11 20t6 27t2 25.5t0 27t-0.5 22.5q0 82 -4 108q-4 25 -30.5 39.5t-26.5 35.5q0 27 55.5 44t103 21t80.5 4q51 0 51 -56q0 -16 -1 -47.5t-1 -47.5v-201q0 -20 8.5 -31t19 -13.5t19 -11t8.5 -24.5q0 -24 -28 -42 t-68.5 -27t-75.5 -13.5t-60 -4.5q-26 0 -37 9.5t-10 20.5t-2.5 20.5t-16.5 9.5q-5 0 -11.5 -3.5t-19 -12.5t-20.5 -14q-48 -30 -100 -30q-37 0 -65.5 7.5t-46.5 21.5t-31 33t-18.5 42t-9 49.5t-3.5 55.5v58v33q0 43 -7 68t-17.5 33t-20.5 12.5t-17 12.5t-7 26q0 22 37.5 37 t91.5 20.5t84.5 7.5t46.5 2q20 0 25.5 -8.5t5.5 -29.5z" />
<glyph unicode="&#xfd;" horiz-adv-x="651" d="M246 561q-54 0 -54 37q0 23 35 47t35 36q0 4 -4 10.5t-4 12.5q0 16 30 23t54 7q38 0 80 -13t42 -43q0 -10 -15 -29t-40.5 -39t-68 -34.5t-90.5 -14.5zM504 247l-59 -163q-17 -46 -32 -79t-39.5 -70t-51.5 -60t-66.5 -38.5t-86.5 -15.5q-61 0 -109 31t-48 89q0 38 25.5 65 t63.5 27q32 0 50.5 -16.5t23.5 -36.5t13 -36.5t21 -16.5q19 0 29 15t10 34q0 24 -32 91l-140 293q-8 16 -27.5 25.5t-34 19t-14.5 29.5q0 11 3.5 19.5t17 19.5t36.5 18t67.5 12t104.5 5q128 0 128 -61q0 -14 -11.5 -30.5t-11.5 -28.5q0 -27 24 -67.5t37 -40.5q20 0 35.5 35 t15.5 58q0 24 -16 42t-16 34q0 19 14.5 31.5t37.5 18t41.5 7.5t36.5 2q107 0 107 -51q0 -20 -10 -31t-24 -15t-32 -15.5t-29 -30.5q-22 -36 -52 -118z" />
<glyph unicode="&#xfe;" horiz-adv-x="699" d="M86 143v358q0 19 -12 30t-26 14.5t-26 14.5t-12 30q0 45 100.5 78t177.5 33q13 0 19 -7t6.5 -13.5t-0.5 -21.5l-6 -193q0 -16 7 -16q2 0 8 4t17 12t22 15q52 30 105 30q104 0 158 -73t54 -178q0 -106 -66 -190q-67 -84 -171 -84q-21 0 -44.5 6t-39.5 12.5t-19 6.5 q-16 0 -16 -32q0 -26 9.5 -41t21.5 -19.5t21.5 -14.5t9.5 -26q0 -26 -26 -41t-51.5 -18.5t-52.5 -3.5q-98 0 -168.5 30.5t-70.5 69.5q0 15 7 24t16 12t19.5 10.5t16.5 20.5q12 25 12 161zM315 302v-132q0 -26 16 -37.5t34 -11.5q70 0 70 115q0 127 -73 127q-47 0 -47 -61z " />
<glyph unicode="&#xff;" horiz-adv-x="651" d="M304 656q0 -31 -32.5 -51.5t-67.5 -27t-66 -6.5q-36 0 -65.5 16.5t-29.5 49.5t29.5 53t60.5 25t64 5q40 0 73.5 -14.5t33.5 -49.5zM609 656q0 -31 -32.5 -51.5t-67.5 -27t-66 -6.5q-36 0 -65.5 16.5t-29.5 49.5t29.5 53t60.5 25t64 5q40 0 73.5 -14.5t33.5 -49.5z M504 247l-59 -163q-17 -46 -32 -79t-39.5 -70t-51.5 -60t-66.5 -38.5t-86.5 -15.5q-61 0 -109 31t-48 89q0 38 25.5 65t63.5 27q32 0 50.5 -16.5t23.5 -36.5t13 -36.5t21 -16.5q19 0 29 15t10 34q0 24 -32 91l-140 293q-8 16 -27.5 25.5t-34 19t-14.5 29.5q0 11 3.5 19.5 t17 19.5t36.5 18t67.5 12t104.5 5q128 0 128 -61q0 -14 -11.5 -30.5t-11.5 -28.5q0 -27 24 -67.5t37 -40.5q20 0 35.5 35t15.5 58q0 24 -16 42t-16 34q0 19 14.5 31.5t37.5 18t41.5 7.5t36.5 2q107 0 107 -51q0 -20 -10 -31t-24 -15t-32 -15.5t-29 -30.5q-22 -36 -52 -118z " />
<glyph unicode="&#x152;" horiz-adv-x="1138" d="M936 0h-346q-20 0 -107 -5q-72 -6 -93 -6q-87 0 -159 34.5t-116 89t-67.5 118.5t-23.5 128q0 151 108 252t260 101q14 0 87 -5q58 -6 87 -6h295q59 0 97 5t53.5 10t18.5 5q38 0 59.5 -49t21.5 -93q0 -29 -12.5 -50.5t-39.5 -21.5q-21 0 -32.5 10t-19 24t-19.5 28 t-43.5 24t-81.5 10q-63 0 -81 -12.5t-19 -61.5v-61q0 -43 8.5 -51.5t52.5 -8.5q25 0 36 17.5t11 38t9.5 38t33.5 17.5q62 0 62 -152q0 -21 -2.5 -43.5t-8.5 -51.5t-20.5 -47.5t-35.5 -18.5q-20 0 -27.5 16.5t-8 36t-16 36t-49.5 16.5q-15 0 -24 -5.5t-12.5 -18.5t-4 -21 t-0.5 -25q0 -38 0.5 -59t6 -38.5t9 -24.5t19 -12t26.5 -5h40h14q44 0 73.5 14t42.5 33.5t23 39t25 33.5t38 14q24 0 35.5 -17.5t11.5 -42.5q0 -62 -38 -126t-69 -64q-3 0 -31 7q-21 7 -57 7zM356 567q-43 0 -64 -32.5t-21 -77.5q0 -37 11 -89t31 -105.5t54 -91t73 -37.5 q41 0 63.5 32t22.5 74q0 37 -10.5 89.5t-30.5 107t-54 92.5t-75 38z" />
<glyph unicode="&#x153;" horiz-adv-x="929" d="M663 326h13h14q4 0 12 1.5t11 4.5t6 9t3 15q0 28 -16 46t-43 18q-24 0 -42 -20.5t-18 -45.5q0 -10 3 -16.5t11 -9t13 -3t17.5 0t15.5 0.5zM385 174q0 76 -30 158q-7 18 -12 29t-17.5 21.5t-28.5 10.5q-23 0 -36 -18t-13 -42q0 -59 28 -148q17 -49 31 -61q13 -12 32 -12 q46 0 46 62zM852 230h-217h-5h-7q-2 0 -5.5 -0.5t-5 -2t-3 -4.5t-1.5 -7q0 -36 37 -64t75 -28q44 0 86.5 22.5t46.5 22.5q15 0 27 -17t12 -33q0 -54 -78 -93.5t-153 -39.5q-40 0 -75 8.5t-53.5 18t-32 18t-16.5 8.5t-25.5 -13.5t-66.5 -26.5t-100 -13q-116 0 -195 65.5 t-79 179.5q0 128 95.5 204t226.5 76q47 0 85 -11.5t57 -23t20 -11.5t9 4.5t23 11.5t34 14t46 11.5t55 4.5q60 0 109.5 -21.5t77.5 -54t43 -66.5t15 -64q0 -45 -16.5 -60t-45.5 -15z" />
<glyph unicode="&#x178;" horiz-adv-x="819" d="M388 840q0 -31 -32.5 -51.5t-67.5 -27t-66 -6.5q-36 0 -65.5 16.5t-29.5 49.5t29.5 53t60.5 25t64 5q40 0 73.5 -14.5t33.5 -49.5zM693 840q0 -31 -32.5 -51.5t-67.5 -27t-66 -6.5q-36 0 -65.5 16.5t-29.5 49.5t29.5 53t60.5 25t64 5q40 0 73.5 -14.5t33.5 -49.5z M697 572l-123 -135q-31 -39 -39 -68.5t-8 -86.5q0 -121 14 -151q5 -11 22.5 -19.5t31 -19.5t13.5 -31q0 -72 -207 -72q-222 0 -222 72q0 23 14.5 33t34 18t26.5 24q16 37 16 166q0 42 -8.5 64t-35.5 57l-113 131q-20 23 -50 36t-47 23t-17 31q0 11 1 16.5t12 17t32.5 17.5 t68 11.5t112.5 5.5q59 0 101 -4.5t62 -10t30.5 -15.5t11.5 -15.5t1 -15.5q0 -14 -14 -30.5t-14 -26.5q0 -18 23.5 -51.5t41.5 -33.5q19 0 43.5 29t24.5 47q0 13 -14.5 30.5t-14.5 37.5q0 59 154 59q92 0 125 -12.5t33 -46.5q0 -22 -12.5 -32t-29.5 -12t-40.5 -10.5 t-39.5 -26.5z" />
<glyph unicode="&#x2c6;" horiz-adv-x="527" d="M263 750q32 0 112.5 -57.5t80.5 -90.5q0 -18 -10.5 -30t-28.5 -12q-20 0 -75.5 28.5t-78.5 28.5t-78.5 -28.5t-75.5 -28.5q-18 0 -28.5 12t-10.5 30q0 33 80.5 90.5t112.5 57.5z" />
<glyph unicode="&#x2dc;" horiz-adv-x="609" d="M454 728q41 0 63 -11t22 -44q0 -41 -32.5 -71.5t-76.5 -30.5t-122 28.5t-92 28.5q-8 0 -10 -3t-2 -11q0 -43 -48 -43q-41 0 -63.5 11t-22.5 44q0 41 33 71.5t77 30.5q43 0 121.5 -28.5t92.5 -28.5q8 0 10 3t2 11q0 43 48 43z" />
<glyph unicode="&#x2000;" horiz-adv-x="476" />
<glyph unicode="&#x2001;" horiz-adv-x="953" />
<glyph unicode="&#x2002;" horiz-adv-x="476" />
<glyph unicode="&#x2003;" horiz-adv-x="953" />
<glyph unicode="&#x2004;" horiz-adv-x="317" />
<glyph unicode="&#x2005;" horiz-adv-x="238" />
<glyph unicode="&#x2006;" horiz-adv-x="158" />
<glyph unicode="&#x2007;" horiz-adv-x="158" />
<glyph unicode="&#x2008;" horiz-adv-x="119" />
<glyph unicode="&#x2009;" horiz-adv-x="190" />
<glyph unicode="&#x200a;" horiz-adv-x="52" />
<glyph unicode="&#x2010;" horiz-adv-x="299" d="M259 204q-10 -20 -21.5 -28t-32.5 -8q-12 0 -36.5 4t-36.5 4q-30 0 -51 -0.5t-29.5 -1.5t-14 -1.5t-7.5 -0.5q-12 0 -21 8.5t-9 21.5q0 17 15.5 61.5t24.5 62.5q10 20 21.5 28t32.5 8q12 0 36.5 -4t36.5 -4q30 0 51 0.5t29.5 1.5t14 1.5t7.5 0.5q12 0 21 -8.5t9 -21.5 q0 -17 -15.5 -61.5t-24.5 -62.5z" />
<glyph unicode="&#x2011;" horiz-adv-x="299" d="M259 204q-10 -20 -21.5 -28t-32.5 -8q-12 0 -36.5 4t-36.5 4q-30 0 -51 -0.5t-29.5 -1.5t-14 -1.5t-7.5 -0.5q-12 0 -21 8.5t-9 21.5q0 17 15.5 61.5t24.5 62.5q10 20 21.5 28t32.5 8q12 0 36.5 -4t36.5 -4q30 0 51 0.5t29.5 1.5t14 1.5t7.5 0.5q12 0 21 -8.5t9 -21.5 q0 -17 -15.5 -61.5t-24.5 -62.5z" />
<glyph unicode="&#x2013;" horiz-adv-x="500" d="M203 354h187q30 0 51 0.5t29.5 1.5t14 1.5t7.5 0.5q12 0 21 -8.5t9 -21.5q0 -17 -15.5 -61.5t-24.5 -62.5q-10 -20 -21.5 -28t-32.5 -8l-42 4q-42 4 -89 4h-187q-30 0 -51 -0.5t-29.5 -1.5t-14 -1.5t-7.5 -0.5q-12 0 -21 8.5t-9 21.5q0 17 15.5 61.5t24.5 62.5 q10 20 21.5 28t32.5 8l42 -4q42 -4 89 -4z" />
<glyph unicode="&#x2014;" horiz-adv-x="1000" d="M203 354h687q30 0 51 0.5t29.5 1.5t14 1.5t7.5 0.5q12 0 21 -8.5t9 -21.5q0 -17 -15.5 -61.5t-24.5 -62.5q-10 -20 -21.5 -28t-32.5 -8l-42 4q-42 4 -89 4h-687q-30 0 -51 -0.5t-29.5 -1.5t-14 -1.5t-7.5 -0.5q-12 0 -21 8.5t-9 21.5q0 17 15.5 61.5t24.5 62.5 q10 20 21.5 28t32.5 8l42 -4q42 -4 89 -4z" />
<glyph unicode="&#x2018;" horiz-adv-x="315" d="M270 682q0 -8 -17 -25t-34.5 -42.5t-17.5 -52.5q0 -12 12 -24t26.5 -22.5t26.5 -33.5t12 -54q0 -50 -32.5 -83.5t-82.5 -33.5q-52 0 -85.5 39.5t-33.5 92.5q0 86 63 179t115 93q15 0 31.5 -9.5t16.5 -23.5z" />
<glyph unicode="&#x2019;" horiz-adv-x="315" d="M45 344q0 8 17.5 25t34.5 42.5t17 52.5q0 12 -12 24t-26.5 22.5t-26.5 33.5t-12 54q0 50 32.5 83.5t82.5 33.5q52 0 85.5 -39.5t33.5 -92.5q0 -86 -63 -179t-115 -93q-15 0 -31.5 9.5t-16.5 23.5z" />
<glyph unicode="&#x201a;" horiz-adv-x="315" d="M45 -152q0 8 17.5 25t34.5 42.5t17 52.5q0 12 -12 24t-26.5 22.5t-26.5 33.5t-12 54q0 50 32.5 83.5t82.5 33.5q52 0 85.5 -39.5t33.5 -92.5q0 -86 -63 -179t-115 -93q-15 0 -31.5 9.5t-16.5 23.5z" />
<glyph unicode="&#x201c;" horiz-adv-x="587" d="M542 682q0 -8 -17 -25t-34.5 -42.5t-17.5 -52.5q0 -12 12 -24t26.5 -22.5t26.5 -33.5t12 -54q0 -50 -32.5 -83.5t-82.5 -33.5q-52 0 -85.5 39.5t-33.5 92.5q0 86 63 179t115 93q15 0 31.5 -9.5t16.5 -23.5zM270 682q0 -8 -17 -25t-34.5 -42.5t-17.5 -52.5q0 -12 12 -24 t26.5 -22.5t26.5 -33.5t12 -54q0 -50 -32.5 -83.5t-82.5 -33.5q-52 0 -85.5 39.5t-33.5 92.5q0 86 63 179t115 93q15 0 31.5 -9.5t16.5 -23.5z" />
<glyph unicode="&#x201d;" horiz-adv-x="587" d="M45 344q0 8 17.5 25t34.5 42.5t17 52.5q0 12 -12 24t-26.5 22.5t-26.5 33.5t-12 54q0 50 32.5 83.5t82.5 33.5q52 0 85.5 -39.5t33.5 -92.5q0 -86 -63 -179t-115 -93q-15 0 -31.5 9.5t-16.5 23.5zM317 344q0 8 17.5 25t34.5 42.5t17 52.5q0 12 -12 24t-26.5 22.5 t-26.5 33.5t-12 54q0 50 32.5 83.5t82.5 33.5q52 0 85.5 -39.5t33.5 -92.5q0 -86 -63 -179t-115 -93q-15 0 -31.5 9.5t-16.5 23.5z" />
<glyph unicode="&#x201e;" horiz-adv-x="587" d="M45 -152q0 8 17.5 25t34.5 42.5t17 52.5q0 12 -12 24t-26.5 22.5t-26.5 33.5t-12 54q0 50 32.5 83.5t82.5 33.5q52 0 85.5 -39.5t33.5 -92.5q0 -86 -63 -179t-115 -93q-15 0 -31.5 9.5t-16.5 23.5zM317 -152q0 8 17.5 25t34.5 42.5t17 52.5q0 12 -12 24t-26.5 22.5 t-26.5 33.5t-12 54q0 50 32.5 83.5t82.5 33.5q52 0 85.5 -39.5t33.5 -92.5q0 -86 -63 -179t-115 -93q-15 0 -31.5 9.5t-16.5 23.5z" />
<glyph unicode="&#x2022;" horiz-adv-x="758" d="M379 525q73 0 124 -51t51 -124t-51 -124t-124 -51t-124 51t-51 124t51 124t124 51z" />
<glyph unicode="&#x2026;" horiz-adv-x="1000" d="M954 107q0 -50 -35.5 -85.5t-85.5 -35.5t-85.5 35.5t-35.5 85.5t35.5 85.5t85.5 35.5t85.5 -35.5t35.5 -85.5zM621 107q0 -50 -35.5 -85.5t-85.5 -35.5t-85.5 35.5t-35.5 85.5t35.5 85.5t85.5 35.5t85.5 -35.5t35.5 -85.5zM288 107q0 -50 -35.5 -85.5t-85.5 -35.5 t-85.5 35.5t-35.5 85.5t35.5 85.5t85.5 35.5t85.5 -35.5t35.5 -85.5z" />
<glyph unicode="&#x202f;" horiz-adv-x="190" />
<glyph unicode="&#x2039;" horiz-adv-x="293" d="M100 375q89 96 130 96q18 0 33.5 -13t15.5 -31q0 -20 -47.5 -88t-47.5 -95t47.5 -95t47.5 -88q0 -18 -15.5 -31t-33.5 -13q-41 0 -130 96l-10 10l-10 11l-12 12q-8 9 -12 14l-10 13q-7 9 -10 15l-9 14q-5 8 -7 14t-4 13.5t-2 14.5q0 21 18.5 50t29.5 40z" />
<glyph unicode="&#x203a;" horiz-adv-x="293" d="M193 113q-89 -96 -130 -96q-18 0 -33.5 13t-15.5 31q0 20 47.5 88t47.5 95t-47.5 95t-47.5 88q0 18 15.5 31t33.5 13q41 0 130 -96l9 -10l12 -11l10 -12q9 -9 12 -14l11 -13q7 -9 11 -15l8 -14q5 -8 7 -14t4 -13.5t2 -14.5q0 -21 -18.5 -50t-28.5 -40z" />
<glyph unicode="&#x205f;" horiz-adv-x="238" />
<glyph unicode="&#x20ac;" d="M619 129q0 -64 -24.5 -98t-54.5 -34q-6 0 -18 4.5t-21 4.5q-5 0 -38.5 -10t-70.5 -10q-132 0 -214 71t-98 183h-48q-25 0 -32 13q-3 5 -3 13q0 10 6 24l15 32q8 17 18 22t37 5h9q20 106 104 173t198 67q40 0 72 -10t35 -10q12 0 22 5q10 4 18 4q30 0 54.5 -34.5 t24.5 -97.5q0 -37 -21 -62t-56 -25q-20 0 -33.5 8.5t-22.5 20.5l-18 24q-9 11 -26 19.5t-41 8.5q-92 0 -100 -91h158q25 0 32 -13q3 -5 3 -13q0 -10 -6 -24l-15 -32q-8 -16 -19 -21.5t-36 -5.5h-106q29 -104 114 -104q24 0 40 12.5t22.5 27.5t22.5 27.5t40 12.5q35 0 56 -25 t21 -62z" />
<glyph unicode="&#x2122;" horiz-adv-x="1000" d="M303 575v-151q0 -32 8.5 -47.5t18 -16.5t18 -7t8.5 -20q0 -42 -119 -42q-137 0 -137 44q0 12 7.5 18t17 7.5t18 10t9.5 25.5l9 167v14q0 46 -18 46q-8 0 -17.5 -11t-17.5 -23.5t-21.5 -23.5t-29.5 -11t-25.5 12.5t-9.5 29.5q0 36 24 74t50 38q1 0 3.5 -0.5t6.5 -1.5t9 -1 q24 -4 52 -4h142q30 0 45 5q18 4 23 4q26 0 48 -37.5t22 -70.5q0 -47 -45 -47q-17 0 -29 10.5t-18 23t-14 23t-18 10.5q-20 0 -20 -47zM748 560l35 69l9 17q5 11 7 14l7 12q5 9 7.5 11t7.5 7.5t9 7.5l10 4q7 2 14.5 3t16.5 1.5t21 0.5q83 0 83 -37q0 -12 -5 -18t-11.5 -8 t-12.5 -12.5t-7 -30.5q-5 -75 -5 -89q0 -18 2.5 -52t2.5 -52q0 -25 6 -39.5t12.5 -17t12.5 -8t6 -15.5q0 -37 -104 -37q-103 0 -103 35q0 10 14.5 21t18.5 30q2 11 2 63q0 37 -11 37q-17 0 -42 -64l-30 -66q-1 -2 -3.5 -8t-5 -10.5t-6 -10t-7.5 -8.5t-8 -3t-7 1t-6 4t-5 6 t-5.5 10t-6 13.5t-7.5 18.5l-11 24l-34 75q-9 25 -20 25q-9 0 -10.5 -11.5t-1.5 -47.5v-24q0 -24 4 -37.5t9.5 -17t10.5 -4.5t9 -4.5t4 -12.5q0 -34 -84 -34q-73 0 -73 32q0 9 5 14t11.5 6.5t13.5 8.5t10 21q9 36 9 194q0 38 -7.5 56t-16 19t-16 6t-7.5 19q0 40 99 40 q45 0 56.5 -6.5t26.5 -34.5l55 -101q1 -1 4.5 -8.5t6 -12t7 -8.5t9.5 -4q4 0 7.5 1.5t5.5 5.5l4 7q2 2 5 7.5t3 6.5z" />
</font>
</defs>
</svg>
